SplineFontDB: 3.2
FontName: Samaano-Wide-Bold
FullName: Samaano Wide Bold
FamilyName: Samaano
Weight: Wide-Bold
Copyright: Copyright 2024 The Samaano Project Authors (https://github.com/mitradranirban/samaano-fonts)
UComments: "2024-8-27: Created with FontForge (http://fontforge.org)"
Version: 1.0
ItalicAngle: 0
UnderlinePosition: 0
UnderlineWidth: 102
Ascent: 1638
Descent: 410
InvalidEm: 0
UFOAscent: 1638
UFODescent: -410
LayerCount: 2
Layer: 0 0 "Back" 1
Layer: 1 0 "public.default" 0 "glyphs"
StyleMap: 0x0000
FSType: 0
OS2Version: 0
OS2_WeightWidthSlopeOnly: 0
OS2_UseTypoMetrics: 0
CreationTime: 1729151290
ModificationTime: 1729153981
PfmFamily: 16
TTFWeight: 700
TTFWidth: 9
LineGap: 0
VLineGap: 0
Panose: 2 7 8 9 0 0 0 0 0 0
OS2TypoAscent: 2457
OS2TypoAOffset: 0
OS2TypoDescent: -615
OS2TypoDOffset: 0
OS2TypoLinegap: 0
OS2WinAscent: 2476
OS2WinAOffset: 0
OS2WinDescent: 958
OS2WinDOffset: 0
HheadAscent: 2457
HheadAOffset: 0
HheadDescent: -615
HheadDOffset: 0
OS2CapHeight: 1548
OS2XHeight: 1023
OS2FamilyClass: 1031
OS2Vendor: 'anir'
MarkAttachClasses: 1
DEI: 91125
LangName: 1033 "Copyright 2024 The Samaano Project Authors (https://github.com/mitradranirban/samaano-fonts)" "" "" "" "" "Version 1.000" "" "" "Dr Anirban Mitra" "Dr Anirban Mitra" "A Monospace Variable Font Family in Latin and Devanagari created using mostly rectangular components" "https://fonts.atipra.in" "https://github.com/mitradranirban" "Copyright 2024 The Samaano Project Authors (https://github.com/mitradranirban/samaano-fonts)+AAoA +AAoA-This Font Software is licensed under the SIL Open Font License, Version 1.1.+AAoA-This license is available with a FAQ at: http://scripts.sil.org/OFL+AAoACgAA" "http://scripts.sil.org/OFL"
PickledDataWithLists: "(dp0
Vorg.unifiedfontobject.normalizer.modTimes
p1
Vversion: 0.6.1\\u000a1729145354.4 fontinfo.plist\\u000a1729145354.4 layercontents.plist\\u000a1729145354.4 metainfo.plist
p2
sVpublic.glyphOrder
p3
(lp4
V.notdef
p5
aVspace
p6
aVexclam
p7
aVquotedbl
p8

StartChar: .notdef
Encoding: 0 0 0
GlifName: _notdef
Width: 2048
VWidth: 0
Flags: W
LayerCount: 2
Fore
SplineSet
525 -16 m 257
 1523 -16 l 257
 1523 1624 l 257
 525 1624 l 257
 525 -16 l 257
599 64 m 257
 599 1548 l 257
 992 827 l 257
 599 64 l 257
691 64 m 257
 1030 750 l 257
 1371 64 l 257
 691 64 l 257
719 1558 m 257
 1350 1558 l 257
 1032 909 l 257
 719 1558 l 257
1070 832 m 257
 1446 1559 l 257
 1446 64 l 257
 1070 832 l 257
EndSplineSet
EndChar

StartChar: A
Encoding: 65 65 1
GlifName: A_
Width: 2048
VWidth: 0
Flags: W
LayerCount: 2
Fore
SplineSet
121 0 m 257
 320 0 l 257
 320 1548 l 257
 121 1548 l 257
 121 0 l 257
182 1332 m 257
 1850 1332 l 257
 1850 1548 l 257
 182 1548 l 257
 182 1332 l 257
200 1023 m 257
 200 849 l 257
 1838 849 l 257
 1838 1023 l 257
 200 1023 l 257
1725 0 m 257
 1925 0 l 257
 1925 1548 l 257
 1725 1548 l 257
 1725 0 l 257
EndSplineSet
EndChar

StartChar: AE
Encoding: 198 198 2
GlifName: A_E_
Width: 2048
VWidth: 0
Flags: W
LayerCount: 2
Fore
SplineSet
1158 185 m 257
 1158 0 l 257
 2020 0 l 257
 2020 185 l 257
 1158 185 l 257
125 0 m 257
 324 0 l 257
 324 1548 l 257
 125 1548 l 257
 125 0 l 257
186 1332 m 257
 1998 1332 l 257
 1998 1548 l 257
 186 1548 l 257
 186 1332 l 257
204 1023 m 257
 204 849 l 257
 1946 849 l 257
 1946 1023 l 257
 204 1023 l 257
1063 0 m 257
 1263 0 l 257
 1263 1548 l 257
 1063 1548 l 257
 1063 0 l 257
EndSplineSet
EndChar

StartChar: B
Encoding: 66 66 12
GlifName: B_
Width: 2048
VWidth: 0
Flags: W
LayerCount: 2
Fore
SplineSet
90 0 m 257
 298 0 l 257
 298 1537 l 257
 90 1537 l 257
 90 0 l 257
1438 1331 m 257
 1952 989 l 257
 1952 1215 l 257
 1438 1537 l 257
 1438 1331 l 257
1438 820 m 257
 1952 991 l 257
 1952 1215 l 257
 1438 1023 l 257
 1438 820 l 257
1380 201 m 257
 1380 0 l 257
 1934 364 l 257
 1934 588 l 257
 1380 201 l 257
1446 567 m 257
 1934 364 l 257
 1934 586 l 257
 1446 766 l 257
 1446 567 l 257
252 1023 m 257
 252 820 l 257
 1438 820 l 257
 1438 1023 l 257
 252 1023 l 257
250 766 m 257
 250 567 l 257
 1446 567 l 257
 1446 766 l 257
 250 766 l 257
188 200 m 257
 188 0 l 257
 1380 0 l 257
 1380 200 l 257
 188 200 l 257
250 1537 m 257
 250 1331 l 257
 1438 1331 l 257
 1438 1537 l 257
 250 1537 l 257
EndSplineSet
EndChar

StartChar: C
Encoding: 67 67 13
GlifName: C_
Width: 2048
VWidth: 0
Flags: W
LayerCount: 2
Fore
SplineSet
71 1537 m 257
 71 0 l 257
 271 0 l 257
 271 1537 l 257
 71 1537 l 257
170 1537 m 257
 170 1338 l 257
 1977 1338 l 257
 1977 1537 l 257
 170 1537 l 257
156 199 m 257
 156 0 l 257
 1975 0 l 257
 1975 199 l 257
 156 199 l 257
EndSplineSet
EndChar

StartChar: D
Encoding: 68 68 19
GlifName: D_
Width: 2048
VWidth: 0
Flags: W
LayerCount: 2
Fore
SplineSet
118 1548 m 257
 118 0 l 257
 320 0 l 257
 320 1548 l 257
 118 1548 l 257
1444 1548 m 257
 1444 1350 l 257
 1928 767 l 257
 1928 1023 l 257
 1444 1548 l 257
1452 201 m 257
 1452 0 l 257
 1924 769 l 257
 1924 1023 l 257
 1452 201 l 257
282 1548 m 257
 282 1349 l 257
 1444 1349 l 257
 1444 1548 l 257
 282 1548 l 257
290 200 m 257
 290 0 l 257
 1452 0 l 257
 1452 200 l 257
 290 200 l 257
EndSplineSet
EndChar

StartChar: Dcroat
Encoding: 272 272 21
GlifName: D_croat
Width: 2048
VWidth: 0
Flags: W
LayerCount: 2
Fore
SplineSet
0 935 m 257
 0 730 l 257
 600 730 l 257
 600 935 l 257
 0 935 l 257
107 1548 m 257
 107 0 l 257
 309 0 l 257
 309 1548 l 257
 107 1548 l 257
1457 1548 m 257
 1457 1350 l 257
 1940 767 l 257
 1940 1023 l 257
 1457 1548 l 257
1465 201 m 257
 1465 0 l 257
 1937 769 l 257
 1937 1023 l 257
 1465 201 l 257
271 1548 m 257
 271 1349 l 257
 1457 1349 l 257
 1457 1548 l 257
 271 1548 l 257
279 200 m 257
 279 0 l 257
 1465 0 l 257
 1465 200 l 257
 279 200 l 257
EndSplineSet
EndChar

StartChar: E
Encoding: 69 69 22
GlifName: E_
Width: 2048
VWidth: 0
Flags: W
LayerCount: 2
Fore
SplineSet
116 1537 m 257
 116 0 l 257
 316 0 l 257
 316 1537 l 257
 116 1537 l 257
194 1537 m 257
 194 1333 l 257
 1912 1333 l 257
 1912 1537 l 257
 194 1537 l 257
182 203 m 257
 182 0 l 257
 1928 0 l 257
 1928 203 l 257
 182 203 l 257
182 888 m 257
 182 688 l 257
 1682 688 l 257
 1682 888 l 257
 182 888 l 257
EndSplineSet
EndChar

StartChar: Eng
Encoding: 330 330 31
GlifName: E_ng
Width: 2048
VWidth: 0
Flags: W
LayerCount: 2
Fore
SplineSet
1548 -211 m 257
 1548 -408 l 257
 1935 -408 l 257
 1935 -211 l 257
 1548 -211 l 257
112 1547 m 257
 112 0 l 257
 313 0 l 257
 313 1547 l 257
 112 1547 l 257
1735 1476 m 257
 1735 -408 l 257
 1936 -408 l 257
 1936 1476 l 257
 1735 1476 l 257
112 1477 m 257
 112 1280 l 257
 1935 1280 l 257
 1935 1477 l 257
 112 1477 l 257
EndSplineSet
EndChar

StartChar: Eth
Encoding: 208 208 33
AltUni2: 000189.ffffffff.0
GlifName: E_th
Width: 2048
VWidth: 0
Flags: W
LayerCount: 2
Fore
SplineSet
0 935 m 257
 0 730 l 257
 476 730 l 257
 476 935 l 257
 0 935 l 257
107 1548 m 257
 107 0 l 257
 309 0 l 257
 309 1548 l 257
 107 1548 l 257
1457 1548 m 257
 1457 1350 l 257
 1940 767 l 257
 1940 1023 l 257
 1457 1548 l 257
1465 201 m 257
 1465 0 l 257
 1937 769 l 257
 1937 1023 l 257
 1465 201 l 257
271 1548 m 257
 271 1349 l 257
 1457 1349 l 257
 1457 1548 l 257
 271 1548 l 257
279 200 m 257
 279 0 l 257
 1465 0 l 257
 1465 200 l 257
 279 200 l 257
EndSplineSet
EndChar

StartChar: Euro
Encoding: 8364 8364 34
GlifName: E_uro
Width: 2048
VWidth: 0
Flags: W
LayerCount: 2
Fore
SplineSet
626 520 m 257
 626 372 l 257
 1422 372 l 257
 1422 520 l 257
 626 520 l 257
638 935 m 257
 638 788 l 257
 1418 788 l 257
 1418 935 l 257
 638 935 l 257
894 1023 m 257
 894 179 l 257
 1084 179 l 257
 1084 1023 l 257
 894 1023 l 257
1212 1633 m 257
 894 1023 l 257
 1084 1023 l 257
 1332 1601 l 257
 1212 1633 l 257
894 179 m 257
 1238 -406 l 257
 1390 -406 l 257
 1084 179 l 257
 894 179 l 257
EndSplineSet
EndChar

StartChar: F
Encoding: 70 70 35
GlifName: F_
Width: 2048
VWidth: 0
Flags: W
LayerCount: 2
Fore
SplineSet
153 1548 m 257
 153 0 l 257
 353 0 l 257
 353 1548 l 257
 153 1548 l 257
255 1548 m 257
 255 1347 l 257
 1889 1347 l 257
 1889 1548 l 257
 255 1548 l 257
243 875 m 257
 243 672 l 257
 1792 672 l 257
 1792 875 l 257
 243 875 l 257
EndSplineSet
EndChar

StartChar: G
Encoding: 71 71 36
GlifName: G_
Width: 2048
VWidth: 0
Flags: W
LayerCount: 2
Fore
SplineSet
127 1548 m 257
 127 0 l 257
 329 0 l 257
 329 1548 l 257
 127 1548 l 257
185 1548 m 257
 185 1347 l 257
 1885 1347 l 257
 1885 1548 l 257
 185 1548 l 257
158 202 m 257
 158 0 l 257
 1921 0 l 257
 1921 202 l 257
 158 202 l 257
1722 561 m 257
 1722 18 l 257
 1921 18 l 257
 1921 561 l 257
 1722 561 l 257
EndSplineSet
EndChar

StartChar: H
Encoding: 72 72 40
GlifName: H_
Width: 2048
VWidth: 0
Flags: W
LayerCount: 2
Fore
SplineSet
126 1537 m 257
 126 0 l 257
 326 0 l 257
 326 1537 l 257
 126 1537 l 257
1712 1537 m 257
 1712 0 l 257
 1922 0 l 257
 1922 1537 l 257
 1712 1537 l 257
246 1023 m 257
 246 818 l 257
 1792 818 l 257
 1792 1023 l 257
 246 1023 l 257
EndSplineSet
EndChar

StartChar: Hbar
Encoding: 294 294 41
GlifName: H_bar
Width: 2048
VWidth: 0
Flags: W
LayerCount: 2
Fore
SplineSet
89 1537 m 257
 89 0 l 257
 289 0 l 257
 289 1537 l 257
 89 1537 l 257
1699 1537 m 257
 1699 0 l 257
 1909 0 l 257
 1909 1537 l 257
 1699 1537 l 257
209 1023 m 257
 209 818 l 257
 1779 818 l 257
 1779 1023 l 257
 209 1023 l 257
28 1434 m 257
 28 1226 l 257
 1977 1226 l 257
 1977 1434 l 257
 28 1434 l 257
EndSplineSet
EndChar

StartChar: I
Encoding: 73 73 43
GlifName: I_
Width: 2048
VWidth: 0
Flags: W
LayerCount: 2
Fore
SplineSet
144 1537 m 257
 144 1335 l 257
 1889 1335 l 257
 1889 1537 l 257
 144 1537 l 257
975 1468 m 257
 975 84 l 257
 1175 84 l 257
 1175 1468 l 257
 975 1468 l 257
124 204 m 257
 124 6 l 257
 1924 6 l 257
 1924 204 l 257
 124 204 l 257
EndSplineSet
EndChar

StartChar: J
Encoding: 74 74 54
GlifName: J_
Width: 2048
VWidth: 0
Flags: W
LayerCount: 2
Fore
SplineSet
1712 1527 m 257
 1712 0 l 257
 1912 0 l 257
 1912 1527 l 257
 1712 1527 l 257
138 208 m 257
 138 0 l 257
 1752 0 l 257
 1752 208 l 257
 138 208 l 257
136 503 m 257
 136 52 l 257
 334 52 l 257
 334 503 l 257
 136 503 l 257
EndSplineSet
EndChar

StartChar: K
Encoding: 75 75 56
GlifName: K_
Width: 2048
VWidth: 0
Flags: W
LayerCount: 2
Fore
SplineSet
112 1537 m 257
 112 5 l 257
 313 5 l 257
 313 1537 l 257
 112 1537 l 257
157 999 m 257
 276 835 l 257
 1883 1529 l 257
 1616 1529 l 257
 157 999 l 257
287 798 m 257
 150 643 l 257
 1655 0 l 257
 1936 0 l 257
 287 798 l 257
EndSplineSet
EndChar

StartChar: L
Encoding: 76 76 57
GlifName: L_
Width: 2048
VWidth: 0
Flags: W
LayerCount: 2
Fore
SplineSet
129 1542 m 257
 129 0 l 257
 327 0 l 257
 327 1542 l 257
 129 1542 l 257
238 202 m 257
 238 0 l 257
 1914 0 l 257
 1914 202 l 257
 238 202 l 257
EndSplineSet
EndChar

StartChar: Lcaron
Encoding: 317 317 59
GlifName: L_caron
Width: 2048
VWidth: 0
Flags: W
LayerCount: 2
Fore
SplineSet
53 1542 m 257
 53 0 l 257
 251 0 l 257
 251 1542 l 257
 53 1542 l 257
162 202 m 257
 162 0 l 257
 1912 0 l 257
 1912 202 l 257
 162 202 l 257
447 1496 m 257
 447 1264 l 257
 577 1264 l 257
 577 1496 l 257
 447 1496 l 257
EndSplineSet
EndChar

StartChar: Lslash
Encoding: 321 321 61
GlifName: L_slash
Width: 2048
VWidth: 0
Flags: W
LayerCount: 2
Fore
SplineSet
171 1542 m 257
 171 0 l 257
 369 0 l 257
 369 1542 l 257
 171 1542 l 257
280 202 m 257
 280 0 l 257
 2030 0 l 257
 2030 202 l 257
 280 202 l 257
16 902 m 257
 96 730 l 257
 530 932 l 257
 450 1104 l 257
 16 902 l 257
EndSplineSet
EndChar

StartChar: M
Encoding: 77 77 62
GlifName: M_
Width: 2048
VWidth: 0
Flags: W
LayerCount: 2
Fore
SplineSet
138 1548 m 257
 138 0 l 257
 340 0 l 257
 340 1548 l 257
 138 1548 l 257
1708 1537 m 257
 1708 0 l 257
 1910 0 l 257
 1910 1537 l 257
 1708 1537 l 257
174 1429 m 257
 890 1031 l 257
 1078 1031 l 257
 316 1548 l 257
 174 1429 l 257
1736 1537 m 257
 888 1023 l 257
 1076 1023 l 257
 1902 1488 l 257
 1736 1537 l 257
EndSplineSet
EndChar

StartChar: N
Encoding: 78 78 63
GlifName: N_
Width: 2048
VWidth: 0
Flags: W
LayerCount: 2
Fore
SplineSet
134 1548 m 257
 134 0 l 257
 338 0 l 257
 338 1548 l 257
 134 1548 l 257
1710 1548 m 257
 1710 0 l 257
 1912 0 l 257
 1912 1548 l 257
 1710 1548 l 257
134 1548 m 257
 1712 0 l 257
 1914 0 l 257
 340 1548 l 257
 134 1548 l 257
EndSplineSet
EndChar

StartChar: O
Encoding: 79 79 67
GlifName: O_
Width: 2048
VWidth: 0
Flags: W
LayerCount: 2
Fore
SplineSet
149 1537 m 257
 149 0 l 257
 350 0 l 257
 350 1537 l 257
 149 1537 l 257
1696 1537 m 257
 1696 0 l 257
 1899 0 l 257
 1899 1537 l 257
 1696 1537 l 257
213 1537 m 257
 213 1337 l 257
 1806 1337 l 257
 1806 1537 l 257
 213 1537 l 257
189 204 m 257
 189 0 l 257
 1812 0 l 257
 1812 204 l 257
 189 204 l 257
EndSplineSet
EndChar

StartChar: OE
Encoding: 338 338 68
GlifName: O_E_
Width: 2048
VWidth: 0
Flags: W
LayerCount: 2
Fore
SplineSet
111 1548 m 257
 111 0 l 257
 312 0 l 257
 312 1548 l 257
 111 1548 l 257
1015 1548 m 257
 1015 0 l 257
 1216 0 l 257
 1216 1548 l 257
 1015 1548 l 257
148 1548 m 257
 148 1349 l 257
 1904 1349 l 257
 1904 1548 l 257
 148 1548 l 257
150 200 m 257
 150 0 l 257
 1912 0 l 257
 1912 200 l 257
 150 200 l 257
1118 859 m 257
 1118 659 l 257
 1874 659 l 257
 1874 859 l 257
 1118 859 l 257
EndSplineSet
EndChar

StartChar: Oslash
Encoding: 216 216 76
GlifName: O_slash
Width: 2048
VWidth: 0
Flags: W
LayerCount: 2
Fore
SplineSet
1812 1667 m 257
 35 -45 l 257
 223 -118 l 257
 2000 1594 l 257
 1812 1667 l 257
110 1537 m 257
 110 0 l 257
 311 0 l 257
 311 1537 l 257
 110 1537 l 257
1731 1537 m 257
 1731 0 l 257
 1934 0 l 257
 1934 1537 l 257
 1731 1537 l 257
174 1537 m 257
 174 1337 l 257
 1841 1337 l 257
 1841 1537 l 257
 174 1537 l 257
150 204 m 257
 150 0 l 257
 1847 0 l 257
 1847 204 l 257
 150 204 l 257
EndSplineSet
EndChar

StartChar: P
Encoding: 80 80 78
GlifName: P_
Width: 2048
VWidth: 0
Flags: W
LayerCount: 2
Fore
SplineSet
172 1548 m 257
 172 9 l 257
 362 9 l 257
 362 1548 l 257
 172 1548 l 257
250 1548 m 257
 250 1346 l 257
 1856 1346 l 257
 1856 1548 l 257
 250 1548 l 257
1676 1548 m 257
 1676 881 l 257
 1876 881 l 257
 1876 1548 l 257
 1676 1548 l 257
234 1068 m 257
 234 868 l 257
 1872 868 l 257
 1872 1068 l 257
 234 1068 l 257
EndSplineSet
EndChar

StartChar: Q
Encoding: 81 81 79
GlifName: Q_
Width: 2048
VWidth: 0
Flags: W
LayerCount: 2
Fore
SplineSet
149 1537 m 257
 149 5 l 257
 348 5 l 257
 348 1537 l 257
 149 1537 l 257
1698 1537 m 257
 1698 0 l 257
 1899 0 l 257
 1899 1537 l 257
 1698 1537 l 257
213 1537 m 257
 213 1337 l 257
 1806 1337 l 257
 1806 1537 l 257
 213 1537 l 257
189 205 m 257
 189 0 l 257
 1812 0 l 257
 1812 205 l 257
 189 205 l 257
1247 21 m 257
 1433 -285 l 257
 1624 -169 l 257
 1438 137 l 257
 1247 21 l 257
EndSplineSet
EndChar

StartChar: R
Encoding: 82 82 80
GlifName: R_
Width: 2048
VWidth: 0
Flags: W
LayerCount: 2
Fore
SplineSet
102 1537 m 257
 102 0 l 257
 303 0 l 257
 303 1537 l 257
 102 1537 l 257
181 1537 m 257
 181 1335 l 257
 1837 1335 l 257
 1837 1537 l 257
 181 1537 l 257
1664 1537 m 257
 1664 872 l 257
 1864 872 l 257
 1864 1537 l 257
 1664 1537 l 257
165 1079 m 257
 165 868 l 257
 1852 868 l 257
 1852 1079 l 257
 165 1079 l 257
305 892 m 257
 1706 0 l 257
 1946 0 l 257
 504 892 l 257
 305 892 l 257
EndSplineSet
EndChar

StartChar: S
Encoding: 83 83 83
GlifName: S_
Width: 2048
VWidth: 0
Flags: W
LayerCount: 2
Fore
SplineSet
138 1537 m 257
 138 1336 l 257
 1736 1336 l 257
 1736 1537 l 257
 138 1537 l 257
138 1542 m 257
 138 1028 l 257
 340 1028 l 257
 340 1542 l 257
 138 1542 l 257
166 199 m 257
 166 0 l 257
 1874 0 l 257
 1874 199 l 257
 166 199 l 257
1709 0 m 257
 1910 0 l 257
 1910 355 l 257
 1709 355 l 257
 1709 0 l 257
138 1028 m 257
 1709 355 l 257
 1910 355 l 257
 340 1028 l 257
 138 1028 l 257
EndSplineSet
EndChar

StartChar: T
Encoding: 84 84 88
GlifName: T_
Width: 2048
VWidth: 0
Flags: W
LayerCount: 2
Fore
SplineSet
125 1548 m 257
 125 1348 l 257
 1923 1348 l 257
 1923 1548 l 257
 125 1548 l 257
924 1436 m 257
 924 6 l 257
 1124 6 l 257
 1124 1436 l 257
 924 1436 l 257
EndSplineSet
EndChar

StartChar: Thorn
Encoding: 222 222 90
GlifName: T_horn
Width: 2048
VWidth: 0
Flags: W
LayerCount: 2
Fore
SplineSet
112 1542 m 257
 112 9 l 257
 302 9 l 257
 302 1542 l 257
 112 1542 l 257
191 1234 m 257
 191 1035 l 257
 1871 1035 l 257
 1871 1234 l 257
 191 1234 l 257
1691 1233 m 257
 1691 569 l 257
 1891 569 l 257
 1891 1233 l 257
 1691 1233 l 257
179 684 m 257
 179 484 l 257
 1890 484 l 257
 1890 684 l 257
 179 684 l 257
EndSplineSet
EndChar

StartChar: U
Encoding: 85 85 91
GlifName: U_
Width: 2048
VWidth: 0
Flags: W
LayerCount: 2
Fore
SplineSet
156 1537 m 257
 156 0 l 257
 356 0 l 257
 356 1537 l 257
 156 1537 l 257
1692 1537 m 257
 1692 0 l 257
 1890 0 l 257
 1890 1537 l 257
 1692 1537 l 257
204 200 m 257
 204 0 l 257
 1848 0 l 257
 1848 200 l 257
 204 200 l 257
EndSplineSet
EndChar

StartChar: V
Encoding: 86 86 102
GlifName: V_
Width: 2048
VWidth: 0
Flags: W
LayerCount: 2
Fore
SplineSet
118 1548 m 257
 890 0 l 257
 1112 0 l 257
 320 1548 l 257
 118 1548 l 257
1728 1548 m 257
 1016 0 l 257
 1238 0 l 257
 1930 1548 l 257
 1728 1548 l 257
EndSplineSet
EndChar

StartChar: W
Encoding: 87 87 103
GlifName: W_
Width: 2048
VWidth: 0
Flags: W
LayerCount: 2
Fore
SplineSet
104 1548 m 257
 104 0 l 257
 304 0 l 257
 304 1548 l 257
 104 1548 l 257
1744 1548 m 257
 1744 12 l 257
 1946 12 l 257
 1946 1548 l 257
 1744 1548 l 257
926 1028 m 257
 926 0 l 257
 1128 0 l 257
 1128 1028 l 257
 926 1028 l 257
102 201 m 257
 102 0 l 257
 1946 0 l 257
 1946 201 l 257
 102 201 l 257
EndSplineSet
EndChar

StartChar: X
Encoding: 88 88 108
GlifName: X_
Width: 2048
VWidth: 0
Flags: W
LayerCount: 2
Fore
SplineSet
82 1548 m 257
 1766 0 l 257
 1966 0 l 257
 281 1548 l 257
 82 1548 l 257
85 6 m 257
 286 6 l 257
 1958 1548 l 257
 1759 1548 l 257
 85 6 l 257
EndSplineSet
EndChar

StartChar: Y
Encoding: 89 89 109
GlifName: Y_
Width: 2048
VWidth: 0
Flags: W
LayerCount: 2
Fore
SplineSet
914 897 m 257
 914 0 l 257
 1116 0 l 257
 1116 897 l 257
 914 897 l 257
110 1548 m 257
 110 859 l 257
 310 859 l 257
 310 1548 l 257
 110 1548 l 257
1738 1548 m 257
 1738 859 l 257
 1938 859 l 257
 1938 1548 l 257
 1738 1548 l 257
178 1023 m 257
 178 859 l 257
 1848 859 l 257
 1848 1023 l 257
 178 1023 l 257
EndSplineSet
EndChar

StartChar: Z
Encoding: 90 90 114
GlifName: Z_
Width: 2048
VWidth: 0
Flags: W
LayerCount: 2
Fore
SplineSet
107 1548 m 257
 107 1336 l 257
 1941 1336 l 257
 1941 1548 l 257
 107 1548 l 257
108 212 m 257
 108 0 l 257
 1936 0 l 257
 1936 212 l 257
 108 212 l 257
1680 1335 m 257
 108 211 l 257
 315 211 l 257
 1925 1335 l 257
 1680 1335 l 257
EndSplineSet
EndChar

StartChar: a
Encoding: 97 97 118
GlifName: a
Width: 2048
VWidth: 0
Flags: W
LayerCount: 2
Fore
SplineSet
178 1023 m 257
 178 824 l 257
 1784 824 l 257
 1784 1023 l 257
 178 1023 l 257
1671 1023 m 257
 1671 0 l 257
 1865 0 l 257
 1865 1023 l 257
 1671 1023 l 257
182 599 m 257
 182 400 l 257
 1806 400 l 257
 1806 599 l 257
 182 599 l 257
182 575 m 257
 182 0 l 257
 383 0 l 257
 383 575 l 257
 182 575 l 257
180 201 m 257
 180 0 l 257
 1870 0 l 257
 1870 201 l 257
 180 201 l 257
EndSplineSet
EndChar

StartChar: acute
Encoding: 180 180 122
GlifName: acute
Width: 2048
VWidth: 0
Flags: W
LayerCount: 2
Fore
SplineSet
522 1556 m 257
 392 1302 l 257
 480 1256 l 257
 611 1511 l 257
 522 1556 l 257
EndSplineSet
EndChar

StartChar: acutecomb
Encoding: 769 769 123
GlifName: acutecomb
Width: 0
VWidth: 0
LayerCount: 2
Fore
SplineSet
1044 980 m 257
 914 726 l 257
 1002 680 l 257
 1134 935 l 257
 1044 980 l 257
EndSplineSet
EndChar

StartChar: ae
Encoding: 230 230 125
GlifName: ae
Width: 2048
VWidth: 0
Flags: W
LayerCount: 2
Fore
SplineSet
48 1023 m 257
 48 824 l 257
 1891 824 l 257
 1891 1023 l 257
 48 1023 l 257
961 1023 m 257
 961 0 l 257
 1155 0 l 257
 1155 1023 l 257
 961 1023 l 257
71 599 m 257
 71 400 l 257
 1892 400 l 257
 1892 599 l 257
 71 599 l 257
71 575 m 257
 71 0 l 257
 272 0 l 257
 272 575 l 257
 71 575 l 257
69 201 m 257
 69 0 l 257
 2013 0 l 257
 2013 201 l 257
 69 201 l 257
1797 1023 m 257
 1797 400 l 257
 1992 400 l 257
 1992 1023 l 257
 1797 1023 l 257
EndSplineSet
EndChar

StartChar: ampersand
Encoding: 38 38 128
GlifName: ampersand
Width: 2048
VWidth: 0
Flags: W
LayerCount: 2
Fore
SplineSet
772 1537 m 257
 1220 12 l 257
 1366 56 l 257
 934 1537 l 257
 772 1537 l 257
1316 1401 m 257
 1316 1537 l 257
 850 1537 l 257
 850 1401 l 257
 1316 1401 l 257
1156 1446 m 257
 1156 917 l 257
 1316 917 l 257
 1316 1446 l 257
 1156 1446 l 257
620 1045 m 257
 620 843 l 257
 1316 843 l 257
 1316 1045 l 257
 620 1045 l 257
620 1045 m 257
 620 24 l 257
 830 24 l 257
 830 1045 l 257
 620 1045 l 257
620 190 m 257
 620 6 l 257
 1428 6 l 257
 1428 190 l 257
 620 190 l 257
EndSplineSet
EndChar

StartChar: asciicircum
Encoding: 94 94 131
GlifName: asciicircum
Width: 2048
VWidth: 0
Flags: W
LayerCount: 2
Fore
SplineSet
1100 1023 m 257
 950 1023 l 257
 686 407 l 257
 836 345 l 257
 1100 1023 l 257
956 904 m 257
 1212 343 l 257
 1362 400 l 257
 1100 1023 l 257
 956 904 l 257
EndSplineSet
EndChar

StartChar: asciitilde
Encoding: 126 126 132
GlifName: asciitilde
Width: 2048
VWidth: 0
Flags: W
LayerCount: 2
Fore
SplineSet
878 815 m 257
 878 716 l 257
 1228 655 l 257
 1228 754 l 257
 878 815 l 257
640 757 m 257
 654 659 l 257
 878 716 l 257
 878 815 l 257
 640 757 l 257
1228 754 m 257
 1228 655 l 257
 1408 796 l 257
 1384 892 l 257
 1228 754 l 257
EndSplineSet
EndChar

StartChar: asterisk
Encoding: 42 42 133
GlifName: asterisk
Width: 2048
VWidth: 0
Flags: W
LayerCount: 2
Fore
SplineSet
934 1297 m 257
 934 300 l 257
 1164 300 l 257
 1164 1297 l 257
 934 1297 l 257
577 1099 m 257
 1305 360 l 257
 1464 504 l 257
 732 1241 l 257
 577 1099 l 257
1329 1232 m 257
 606 525 l 257
 748 372 l 257
 1471 1079 l 257
 1329 1232 l 257
EndSplineSet
EndChar

StartChar: at
Encoding: 64 64 134
GlifName: at
Width: 2048
VWidth: 0
Flags: W
LayerCount: 2
Fore
SplineSet
613 1023 m 257
 613 879 l 257
 1432 879 l 257
 1432 1023 l 257
 613 1023 l 257
1149 592 m 257
 1149 0 l 257
 1302 0 l 257
 1302 592 l 257
 1149 592 l 257
816 600 m 257
 816 444 l 257
 1241 444 l 257
 1241 600 l 257
 816 600 l 257
813 589 m 257
 813 12 l 257
 987 12 l 257
 987 589 l 257
 813 589 l 257
811 188 m 257
 811 0 l 257
 1305 0 l 257
 1305 188 l 257
 811 188 l 257
525 1023 m 257
 525 -223 l 257
 701 -223 l 257
 701 1023 l 257
 525 1023 l 257
523 -86 m 257
 523 -258 l 257
 1471 -258 l 257
 1471 -86 l 257
 523 -86 l 257
1374 1011 m 257
 1374 0 l 257
 1525 0 l 257
 1525 1011 l 257
 1374 1011 l 257
1246 175 m 257
 1246 0 l 257
 1455 0 l 257
 1455 175 l 257
 1246 175 l 257
EndSplineSet
EndChar

StartChar: b
Encoding: 98 98 136
GlifName: b
Width: 2048
VWidth: 0
Flags: W
LayerCount: 2
Fore
SplineSet
143 1537 m 257
 143 0 l 257
 342 0 l 257
 342 1537 l 257
 143 1537 l 257
240 1033 m 257
 240 834 l 257
 1766 834 l 257
 1766 1033 l 257
 240 1033 l 257
1706 1033 m 257
 1706 0 l 257
 1905 0 l 257
 1905 1033 l 257
 1706 1033 l 257
268 207 m 257
 268 0 l 257
 1826 0 l 257
 1826 207 l 257
 268 207 l 257
EndSplineSet
EndChar

StartChar: backslash
Encoding: 92 92 137
GlifName: backslash
Width: 2048
VWidth: 0
Flags: W
LayerCount: 2
Fore
SplineSet
615 1441 m 257
 1242 -13 l 257
 1433 65 l 257
 807 1519 l 257
 615 1441 l 257
EndSplineSet
EndChar

StartChar: bar
Encoding: 124 124 138
GlifName: bar
Width: 2048
VWidth: 0
Flags: W
LayerCount: 2
Fore
SplineSet
922 1435 m 257
 922 -90 l 257
 1126 -90 l 257
 1126 1435 l 257
 922 1435 l 257
EndSplineSet
EndChar

StartChar: braceleft
Encoding: 123 123 139
GlifName: braceleft
Width: 2048
VWidth: 0
Flags: W
LayerCount: 2
Fore
SplineSet
1024 1548 m 257
 1024 838 l 257
 1170 838 l 257
 1170 1548 l 257
 1024 1548 l 257
1036 424 m 257
 1036 -286 l 257
 1182 -286 l 257
 1182 424 l 257
 1036 424 l 257
735 690 m 257
 735 630 l 257
 1170 838 l 257
 1024 838 l 257
 735 690 l 257
735 690 m 257
 735 630 l 257
 1034 425 l 257
 1183 425 l 257
 735 690 l 257
1025 1603 m 257
 1025 1452 l 257
 1293 1574 l 257
 1297 1603 l 257
 1025 1603 l 257
1037 -140 m 257
 1037 -287 l 257
 1313 -287 l 257
 1313 -274 l 257
 1037 -140 l 257
EndSplineSet
EndChar

StartChar: braceright
Encoding: 125 125 140
GlifName: braceright
Width: 2048
VWidth: 0
Flags: W
LayerCount: 2
Fore
SplineSet
1040 1548 m 257
 878 1548 l 257
 878 838 l 257
 1036 838 l 257
 1040 1548 l 257
1026 424 m 257
 866 424 l 257
 866 -286 l 257
 1026 -286 l 257
 1026 424 l 257
1313 690 m 257
 1035 838 l 257
 874 838 l 257
 1313 630 l 257
 1313 690 l 257
1313 690 m 257
 866 424 l 257
 1026 424 l 257
 1313 630 l 257
 1313 690 l 257
1041 1603 m 257
 766 1603 l 257
 770 1574 l 257
 1038 1452 l 257
 1041 1603 l 257
1011 -140 m 257
 735 -274 l 257
 735 -284 l 257
 1011 -284 l 257
 1011 -140 l 257
EndSplineSet
EndChar

StartChar: bracketleft
Encoding: 91 91 141
GlifName: bracketleft
Width: 2048
VWidth: 0
Flags: W
LayerCount: 2
Fore
SplineSet
890 1542 m 257
 890 -242 l 257
 1012 -242 l 257
 1012 1542 l 257
 890 1542 l 257
944 1543 m 257
 944 1416 l 257
 1153 1416 l 257
 1153 1543 l 257
 944 1543 l 257
944 -91 m 257
 944 -242 l 257
 1158 -242 l 257
 1158 -91 l 257
 944 -91 l 257
EndSplineSet
EndChar

StartChar: bracketright
Encoding: 93 93 142
GlifName: bracketright
Width: 2048
VWidth: 0
Flags: W
LayerCount: 2
Fore
SplineSet
1036 1542 m 257
 1036 -242 l 257
 1158 -242 l 257
 1158 1542 l 257
 1036 1542 l 257
886 1543 m 257
 886 1416 l 257
 1094 1416 l 257
 1094 1543 l 257
 886 1543 l 257
886 -91 m 257
 886 -242 l 257
 1100 -242 l 257
 1100 -91 l 257
 886 -91 l 257
EndSplineSet
EndChar

StartChar: breve
Encoding: 728 728 143
GlifName: breve
Width: 2048
VWidth: 0
Flags: W
LayerCount: 2
Fore
SplineSet
1102 1548 m 257
 1102 1480 l 257
 1267 1548 l 257
 1267 1645 l 257
 1102 1548 l 257
778 1548 m 257
 778 1480 l 257
 1102 1480 l 257
 1102 1548 l 257
 778 1548 l 257
607 1630 m 257
 607 1548 l 257
 778 1480 l 257
 778 1548 l 257
 607 1630 l 257
EndSplineSet
EndChar

StartChar: brokenbar
Encoding: 166 166 144
GlifName: brokenbar
Width: 2048
VWidth: 0
Flags: W
LayerCount: 2
Fore
SplineSet
967 -332 m 257
 1077 -332 l 257
 1077 682 l 257
 967 682 l 257
 967 -332 l 257
970 790 m 257
 1081 790 l 257
 1081 1636 l 257
 970 1636 l 257
 970 790 l 257
EndSplineSet
EndChar

StartChar: bullet
Encoding: 8226 8226 145
GlifName: bullet
Width: 2048
VWidth: 0
Flags: W
LayerCount: 2
Fore
SplineSet
882 1023 m 257
 882 765 l 257
 1166 765 l 257
 1166 1023 l 257
 882 1023 l 257
EndSplineSet
EndChar

StartChar: c
Encoding: 99 99 146
GlifName: c
Width: 2048
VWidth: 0
Flags: W
LayerCount: 2
Fore
SplineSet
171 1023 m 257
 171 826 l 257
 1877 826 l 257
 1877 1023 l 257
 171 1023 l 257
173 984 m 257
 173 0 l 257
 375 0 l 257
 375 984 l 257
 173 984 l 257
279 201 m 257
 279 0 l 257
 1871 0 l 257
 1871 201 l 257
 279 201 l 257
EndSplineSet
EndChar

StartChar: caron
Encoding: 711 711 148
GlifName: caron
Width: 2048
VWidth: 0
Flags: W
LayerCount: 2
Fore
SplineSet
979 1158 m 257
 873 1430 l 257
 813 1405 l 257
 919 1158 l 257
 979 1158 l 257
921 1206 m 257
 979 1158 l 257
 1084 1408 l 257
 1024 1430 l 257
 921 1206 l 257
EndSplineSet
EndChar

StartChar: cedilla
Encoding: 184 184 153
GlifName: cedilla
Width: 2048
VWidth: 0
Flags: W
LayerCount: 2
Fore
SplineSet
800 185 m 257
 800 -139 l 257
 956 -139 l 257
 956 185 l 257
 800 185 l 257
802 -283 m 257
 802 -406 l 257
 1248 -406 l 257
 1248 -283 l 257
 802 -283 l 257
1096 5 m 257
 1096 -367 l 257
 1248 -367 l 257
 1248 5 l 257
 1096 5 l 257
802 5 m 257
 802 -151 l 257
 1248 -151 l 257
 1248 5 l 257
 802 5 l 257
EndSplineSet
EndChar

StartChar: cent
Encoding: 162 162 154
GlifName: cent
Width: 2048
VWidth: 0
Flags: W
LayerCount: 2
Fore
SplineSet
1203 1183 m 257
 1056 1183 l 257
 1056 -86 l 257
 1203 -86 l 257
 1203 1183 l 257
676 1023 m 257
 676 826 l 257
 1372 826 l 257
 1372 1023 l 257
 676 1023 l 257
678 984 m 257
 678 0 l 257
 880 0 l 257
 880 984 l 257
 678 984 l 257
784 201 m 257
 784 0 l 257
 1366 0 l 257
 1366 201 l 257
 784 201 l 257
EndSplineSet
EndChar

StartChar: circumflex
Encoding: 710 710 155
GlifName: circumflex
Width: 2048
VWidth: 0
Flags: W
LayerCount: 2
Fore
SplineSet
1085 1298 m 257
 1025 1298 l 257
 919 1051 l 257
 979 1026 l 257
 1085 1298 l 257
1027 1250 m 257
 1131 1026 l 257
 1191 1048 l 257
 1085 1298 l 257
 1027 1250 l 257
EndSplineSet
EndChar

StartChar: colon
Encoding: 58 58 156
GlifName: colon
Width: 2048
VWidth: 0
Flags: W
LayerCount: 2
Fore
SplineSet
912 430 m 257
 912 201 l 257
 1160 201 l 257
 1160 430 l 257
 912 430 l 257
888 1294 m 257
 888 1047 l 257
 1154 1047 l 257
 1154 1294 l 257
 888 1294 l 257
EndSplineSet
EndChar

StartChar: comma
Encoding: 44 44 157
GlifName: comma
Width: 2048
VWidth: 0
Flags: W
LayerCount: 2
Fore
SplineSet
910 237 m 257
 910 8 l 257
 1158 8 l 257
 1158 237 l 257
 910 237 l 257
1008 135 m 257
 890 -146 l 257
 1034 -206 l 257
 1156 0 l 257
 1008 135 l 257
EndSplineSet
EndChar

StartChar: copyright
Encoding: 169 169 158
GlifName: copyright
Width: 2048
VWidth: 0
Flags: W
LayerCount: 2
Fore
SplineSet
24 1537 m 257
 24 0 l 257
 224 0 l 257
 224 1537 l 257
 24 1537 l 257
1822 1537 m 257
 1822 0 l 257
 2024 0 l 257
 2024 1537 l 257
 1822 1537 l 257
134 1537 m 257
 134 1337 l 257
 1824 1337 l 257
 1824 1537 l 257
 134 1537 l 257
158 204 m 257
 158 0 l 257
 1830 0 l 257
 1830 204 l 257
 158 204 l 257
270 1197 m 257
 270 996 l 257
 1704 996 l 257
 1704 1197 l 257
 270 1197 l 257
270 1154 m 257
 270 340 l 257
 440 340 l 257
 440 1154 l 257
 270 1154 l 257
270 495 m 257
 270 294 l 257
 1710 294 l 257
 1710 495 l 257
 270 495 l 257
EndSplineSet
EndChar

StartChar: currency
Encoding: 164 164 159
GlifName: currency
Width: 2048
VWidth: 0
Flags: W
LayerCount: 2
Fore
SplineSet
116 1202 m 257
 116 180 l 257
 316 180 l 257
 316 1202 l 257
 116 1202 l 257
1731 1204 m 257
 1731 180 l 257
 1933 180 l 257
 1933 1204 l 257
 1731 1204 l 257
239 1204 m 257
 239 1002 l 257
 1825 1002 l 257
 1825 1204 l 257
 239 1204 l 257
243 380 m 257
 243 181 l 257
 1815 181 l 257
 1815 380 l 257
 243 380 l 257
52 1372 m 257
 52 1125 l 257
 318 1125 l 257
 318 1372 l 257
 52 1372 l 257
1730 1371 m 257
 1730 1124 l 257
 1996 1124 l 257
 1996 1371 l 257
 1730 1371 l 257
50 270 m 257
 50 23 l 257
 316 23 l 257
 316 270 l 257
 50 270 l 257
1732 279 m 257
 1732 32 l 257
 1998 32 l 257
 1998 279 l 257
 1732 279 l 257
EndSplineSet
EndChar

StartChar: d
Encoding: 100 100 160
GlifName: d
Width: 2048
VWidth: 0
Flags: W
LayerCount: 2
Fore
SplineSet
1704 1527 m 257
 1704 0 l 257
 1904 0 l 257
 1904 1527 l 257
 1704 1527 l 257
240 1023 m 257
 240 822 l 257
 1792 822 l 257
 1792 1023 l 257
 240 1023 l 257
144 1023 m 257
 144 0 l 257
 344 0 l 257
 344 1023 l 257
 144 1023 l 257
240 195 m 257
 240 0 l 257
 1856 0 l 257
 1856 195 l 257
 240 195 l 257
EndSplineSet
EndChar

StartChar: dagger
Encoding: 8224 8224 161
GlifName: dagger
Width: 2048
VWidth: 0
Flags: W
LayerCount: 2
Fore
SplineSet
721 1251 m 257
 721 1086 l 257
 1327 1086 l 257
 1327 1251 l 257
 721 1251 l 257
945 1548 m 257
 945 0 l 257
 1090 0 l 257
 1090 1548 l 257
 945 1548 l 257
EndSplineSet
EndChar

StartChar: daggerdbl
Encoding: 8225 8225 162
GlifName: daggerdbl
Width: 2048
VWidth: 0
Flags: W
LayerCount: 2
Fore
SplineSet
721 937 m 257
 721 772 l 257
 1327 772 l 257
 1327 937 l 257
 721 937 l 257
721 1251 m 257
 721 1086 l 257
 1327 1086 l 257
 1327 1251 l 257
 721 1251 l 257
945 1548 m 257
 945 0 l 257
 1090 0 l 257
 1090 1548 l 257
 945 1548 l 257
EndSplineSet
EndChar

StartChar: dcaron
Encoding: 271 271 163
GlifName: dcaron
Width: 2048
VWidth: 0
Flags: W
LayerCount: 2
Fore
SplineSet
1637 1527 m 257
 1637 0 l 257
 1838 0 l 257
 1838 1527 l 257
 1637 1527 l 257
149 1023 m 257
 149 822 l 257
 1726 822 l 257
 1726 1023 l 257
 149 1023 l 257
53 1023 m 257
 53 0 l 257
 254 0 l 257
 254 1023 l 257
 53 1023 l 257
149 195 m 257
 149 0 l 257
 1790 0 l 257
 1790 195 l 257
 149 195 l 257
1884 1496 m 257
 1884 1264 l 257
 2014 1264 l 257
 2014 1496 l 257
 1884 1496 l 257
EndSplineSet
EndChar

StartChar: dcroat
Encoding: 273 273 164
GlifName: dcroat
Width: 2048
VWidth: 0
Flags: W
LayerCount: 2
Fore
SplineSet
1716 1527 m 257
 1716 0 l 257
 1917 0 l 257
 1917 1527 l 257
 1716 1527 l 257
228 1023 m 257
 228 822 l 257
 1805 822 l 257
 1805 1023 l 257
 228 1023 l 257
132 1023 m 257
 132 0 l 257
 333 0 l 257
 333 1023 l 257
 132 1023 l 257
228 195 m 257
 228 0 l 257
 1869 0 l 257
 1869 195 l 257
 228 195 l 257
1579 1403 m 257
 1579 1202 l 257
 2023 1202 l 257
 2023 1403 l 257
 1579 1403 l 257
EndSplineSet
EndChar

StartChar: degree
Encoding: 176 176 165
GlifName: degree
Width: 2048
VWidth: 0
Flags: W
LayerCount: 2
Fore
SplineSet
949 1456 m 257
 1097 1456 l 257
 1097 1326 l 257
 949 1326 l 257
 949 1456 l 257
844 1548 m 257
 844 1238 l 257
 1204 1238 l 257
 1204 1548 l 257
 844 1548 l 257
EndSplineSet
EndChar

StartChar: dieresis
Encoding: 168 168 166
GlifName: dieresis
Width: 2048
VWidth: 0
Flags: W
LayerCount: 2
Fore
SplineSet
724 1016 m 257
 724 865 l 257
 892 865 l 257
 892 1016 l 257
 724 1016 l 257
1088 1016 m 257
 1088 865 l 257
 1256 865 l 257
 1256 1016 l 257
 1088 1016 l 257
EndSplineSet
EndChar

StartChar: divide
Encoding: 247 247 167
GlifName: divide
Width: 2048
VWidth: 0
Flags: W
LayerCount: 2
Fore
SplineSet
912 430 m 257
 912 201 l 257
 1160 201 l 257
 1160 430 l 257
 912 430 l 257
888 1294 m 257
 888 1047 l 257
 1154 1047 l 257
 1154 1294 l 257
 888 1294 l 257
611 808 m 257
 611 600 l 257
 1437 600 l 257
 1437 808 l 257
 611 808 l 257
EndSplineSet
EndChar

StartChar: dollar
Encoding: 36 36 168
GlifName: dollar
Width: 2048
VWidth: 0
Flags: W
LayerCount: 2
Fore
SplineSet
638 1537 m 257
 638 1358 l 257
 1236 1358 l 257
 1236 1537 l 257
 638 1537 l 257
638 1542 m 257
 638 1028 l 257
 843 1028 l 257
 843 1542 l 257
 638 1542 l 257
666 163 m 257
 666 0 l 257
 1374 0 l 257
 1374 163 l 257
 666 163 l 257
1204 0 m 257
 1410 0 l 257
 1410 355 l 257
 1204 355 l 257
 1204 0 l 257
638 1028 m 257
 1204 355 l 257
 1410 355 l 257
 843 1028 l 257
 638 1028 l 257
897 1636 m 257
 897 -215 l 257
 1111 -215 l 257
 1111 1636 l 257
 897 1636 l 257
EndSplineSet
EndChar

StartChar: dotaccent
Encoding: 729 729 169
GlifName: dotaccent
Width: 2048
VWidth: 0
Flags: W
LayerCount: 2
Fore
SplineSet
908 1023 m 257
 908 926 l 257
 1020 926 l 257
 1020 1023 l 257
 908 1023 l 257
EndSplineSet
EndChar

StartChar: dotbelowcomb
Encoding: 803 803 170
GlifName: dotbelowcomb
Width: 0
VWidth: 0
LayerCount: 2
Fore
SplineSet
380 -204 m 257
 380 -451 l 257
 644 -451 l 257
 644 -204 l 257
 380 -204 l 257
EndSplineSet
EndChar

StartChar: dotlessi
Encoding: 305 305 171
GlifName: dotlessi
Width: 2048
VWidth: 0
Flags: W
LayerCount: 2
Fore
SplineSet
923 1018 m 257
 923 139 l 257
 1125 139 l 257
 1125 1018 l 257
 923 1018 l 257
153 204 m 257
 153 6 l 257
 1895 6 l 257
 1895 204 l 257
 153 204 l 257
203 1018 m 257
 203 818 l 257
 1079 818 l 257
 1079 1018 l 257
 203 1018 l 257
EndSplineSet
EndChar

StartChar: e
Encoding: 101 101 172
GlifName: e
Width: 2048
VWidth: 0
Flags: W
LayerCount: 2
Fore
SplineSet
230 1023 m 257
 230 812 l 257
 1864 812 l 257
 1864 1023 l 257
 230 1023 l 257
180 1023 m 257
 180 0 l 257
 382 0 l 257
 382 1023 l 257
 180 1023 l 257
282 201 m 257
 282 0 l 257
 1864 0 l 257
 1864 201 l 257
 282 201 l 257
250 625 m 257
 250 446 l 257
 1840 446 l 257
 1840 625 l 257
 250 625 l 257
1668 993 m 257
 1668 445 l 257
 1862 445 l 257
 1862 993 l 257
 1668 993 l 257
EndSplineSet
EndChar

StartChar: eight
Encoding: 56 56 180
GlifName: eight
Width: 2048
VWidth: 0
Flags: W
LayerCount: 2
Fore
SplineSet
56 1548 m 257
 56 0 l 257
 1993 0 l 257
 1993 1548 l 257
 56 1548 l 257
1791 759 m 257
 1791 197 l 257
 260 197 l 257
 260 759 l 257
 1791 759 l 257
1792 959 m 257
 260 959 l 257
 260 1350 l 257
 1792 1350 l 257
 1792 959 l 257
EndSplineSet
EndChar

StartChar: ellipsis
Encoding: 8230 8230 181
GlifName: ellipsis
Width: 2048
VWidth: 0
Flags: W
LayerCount: 2
Fore
SplineSet
692 114 m 257
 692 0 l 257
 834 0 l 257
 834 114 l 257
 692 114 l 257
948 114 m 257
 948 0 l 257
 1092 0 l 257
 1092 114 l 257
 948 114 l 257
1214 114 m 257
 1214 0 l 257
 1356 0 l 257
 1356 114 l 257
 1214 114 l 257
EndSplineSet
EndChar

StartChar: emdash
Encoding: 8212 8212 183
GlifName: emdash
Width: 2048
VWidth: 0
Flags: W
LayerCount: 2
Fore
SplineSet
87 600 m 257
 1950 600 l 257
 1950 808 l 257
 87 808 l 257
 87 600 l 257
EndSplineSet
EndChar

StartChar: endash
Encoding: 8211 8211 184
GlifName: endash
Width: 2048
VWidth: 0
Flags: W
LayerCount: 2
Fore
SplineSet
611 600 m 257
 1437 600 l 257
 1437 808 l 257
 611 808 l 257
 611 600 l 257
EndSplineSet
EndChar

StartChar: eng
Encoding: 331 331 185
GlifName: eng
Width: 2048
VWidth: 0
Flags: W
LayerCount: 2
Fore
SplineSet
1480 -211 m 257
 1480 -408 l 257
 1867 -408 l 257
 1867 -211 l 257
 1480 -211 l 257
244 990 m 257
 244 0 l 257
 445 0 l 257
 445 990 l 257
 244 990 l 257
1667 976 m 257
 1667 -408 l 257
 1868 -408 l 257
 1868 976 l 257
 1667 976 l 257
65 1023 m 257
 65 826 l 257
 1867 826 l 257
 1867 1023 l 257
 65 1023 l 257
EndSplineSet
EndChar

StartChar: equal
Encoding: 61 61 187
GlifName: equal
Width: 2048
VWidth: 0
Flags: W
LayerCount: 2
Fore
SplineSet
616 914 m 257
 616 724 l 257
 1432 724 l 257
 1432 914 l 257
 616 914 l 257
616 540 m 257
 616 350 l 257
 1432 350 l 257
 1432 540 l 257
 616 540 l 257
EndSplineSet
EndChar

StartChar: eth
Encoding: 240 240 188
GlifName: eth
Width: 2048
VWidth: 0
Flags: W
LayerCount: 2
Fore
SplineSet
1265 1548 m 257
 1716 0 l 257
 1917 0 l 257
 1466 1548 l 257
 1265 1548 l 257
228 1023 m 257
 228 822 l 257
 1593 822 l 257
 1593 1023 l 257
 228 1023 l 257
132 1023 m 257
 132 0 l 257
 333 0 l 257
 333 1023 l 257
 132 1023 l 257
228 195 m 257
 228 0 l 257
 1869 0 l 257
 1869 195 l 257
 228 195 l 257
1185 1416 m 257
 1185 1229 l 257
 1717 1229 l 257
 1717 1416 l 257
 1185 1416 l 257
EndSplineSet
EndChar

StartChar: exclam
Encoding: 33 33 189
GlifName: exclam
Width: 2048
VWidth: 0
Flags: W
LayerCount: 2
Fore
SplineSet
952 126 m 257
 1096 126 l 257
 1096 374 l 257
 952 374 l 257
 952 126 l 257
962 611 m 257
 1090 611 l 257
 1090 1629 l 257
 962 1629 l 257
 962 611 l 257
EndSplineSet
EndChar

StartChar: exclamdown
Encoding: 161 161 190
GlifName: exclamdown
Width: 2048
VWidth: 0
Flags: W
LayerCount: 2
Fore
SplineSet
1096 1520 m 257
 952 1520 l 257
 952 1272 l 257
 1096 1272 l 257
 1096 1520 l 257
1086 1035 m 257
 958 1035 l 257
 958 17 l 257
 1086 17 l 257
 1086 1035 l 257
EndSplineSet
EndChar

StartChar: f
Encoding: 102 102 191
GlifName: f
Width: 2048
VWidth: 0
Flags: W
LayerCount: 2
Fore
SplineSet
840 1023 m 257
 840 -406 l 257
 1022 -406 l 257
 1022 1023 l 257
 840 1023 l 257
898 1023 m 257
 898 831 l 257
 1976 831 l 257
 1976 1023 l 257
 898 1023 l 257
72 559 m 257
 72 356 l 257
 1880 356 l 257
 1880 559 l 257
 72 559 l 257
EndSplineSet
EndChar

StartChar: five
Encoding: 53 53 192
GlifName: five
Width: 2048
VWidth: 0
Flags: W
LayerCount: 2
Fore
SplineSet
1796 759 m 257
 1796 198 l 257
 59 198 l 257
 59 0 l 257
 2001 0 l 257
 2001 959 l 257
 260 959 l 257
 260 1352 l 257
 2011 1352 l 257
 2011 1548 l 257
 60 1548 l 257
 60 759 l 257
 1796 759 l 257
EndSplineSet
EndChar

StartChar: four
Encoding: 52 52 193
GlifName: four
Width: 2048
VWidth: 0
Flags: W
LayerCount: 2
Fore
SplineSet
91 761 m 257
 1757 761 l 257
 1757 7 l 257
 1953 7 l 257
 1953 1548 l 257
 1754 1548 l 257
 1754 961 l 257
 291 961 l 257
 291 1548 l 257
 91 1548 l 257
 91 761 l 257
EndSplineSet
EndChar

StartChar: g
Encoding: 103 103 194
GlifName: g
Width: 2048
VWidth: 0
Flags: W
LayerCount: 2
Fore
SplineSet
238 1023 m 257
 238 0 l 257
 430 0 l 257
 430 1023 l 257
 238 1023 l 257
278 1023 m 257
 278 823 l 257
 1794 823 l 257
 1794 1023 l 257
 278 1023 l 257
1622 1023 m 257
 1622 -411 l 257
 1816 -411 l 257
 1816 1023 l 257
 1622 1023 l 257
301 198 m 257
 301 0 l 257
 1758 0 l 257
 1758 198 l 257
 301 198 l 257
232 -214 m 257
 232 -413 l 257
 1767 -413 l 257
 1767 -214 l 257
 232 -214 l 257
EndSplineSet
EndChar

StartChar: germandbls
Encoding: 223 223 198
GlifName: germandbls
Width: 2048
VWidth: 0
Flags: W
LayerCount: 2
Fore
SplineSet
18 1221 m 257
 18 1023 l 257
 269 1023 l 257
 269 1221 l 257
 18 1221 l 257
204 1548 m 257
 204 0 l 257
 410 0 l 257
 410 1548 l 257
 204 1548 l 257
410 1548 m 257
 410 1328 l 257
 1829 1328 l 257
 1829 1548 l 257
 410 1548 l 257
1714 1548 m 257
 1714 1023 l 257
 1913 1023 l 257
 1913 1548 l 257
 1714 1548 l 257
1714 1062 m 257
 490 1062 l 257
 490 826 l 257
 1714 826 l 257
 1714 1062 l 257
1714 848 m 257
 1714 175 l 257
 1914 175 l 257
 1914 848 l 257
 1714 848 l 257
547 251 m 257
 547 40 l 257
 1914 40 l 257
 1914 251 l 257
 547 251 l 257
EndSplineSet
EndChar

StartChar: glyph094D
Encoding: 65536 -1 199
GlifName: glyph094D_
Width: 2048
VWidth: 0
Flags: W
LayerCount: 2
Fore
SplineSet
-553 -22 m 257
 -553 -218 l 257
 -196 -218 l 257
 -196 -22 l 257
 -553 -22 l 257
-337 -183 m 257
 133 -588 l 257
 277 -425 l 257
 -194 -21 l 257
 -337 -183 l 257
EndSplineSet
EndChar

StartChar: grave
Encoding: 96 96 200
GlifName: grave
Width: 2048
VWidth: 0
Flags: W
LayerCount: 2
Fore
SplineSet
877 1358 m 257
 1022 1057 l 257
 1171 1129 l 257
 1025 1430 l 257
 877 1358 l 257
EndSplineSet
EndChar

StartChar: gravecomb
Encoding: 768 768 201
GlifName: gravecomb
Width: 0
VWidth: 0
LayerCount: 2
Fore
SplineSet
918 907 m 257
 1038 671 l 257
 1130 717 l 257
 1010 954 l 257
 918 907 l 257
EndSplineSet
EndChar

StartChar: greater
Encoding: 62 62 202
GlifName: greater
Width: 2048
VWidth: 0
Flags: W
LayerCount: 2
Fore
SplineSet
1436 777 m 257
 614 1013 l 257
 614 807 l 257
 1437 568 l 257
 1436 777 l 257
1436 777 m 257
 616 319 l 257
 616 122 l 257
 1437 568 l 257
 1436 777 l 257
EndSplineSet
EndChar

StartChar: guillemotleft
Encoding: 171 171 203
GlifName: guillemotleft
Width: 2048
VWidth: 0
Flags: W
LayerCount: 2
Fore
SplineSet
632 609 m 257
 632 454 l 257
 1001 631 l 257
 1001 784 l 257
 632 609 l 257
632 609 m 257
 632 454 l 257
 1000 122 l 257
 1000 268 l 257
 632 609 l 257
1047 609 m 257
 1047 454 l 257
 1416 631 l 257
 1416 784 l 257
 1047 609 l 257
1047 609 m 257
 1047 454 l 257
 1415 122 l 257
 1415 268 l 257
 1047 609 l 257
EndSplineSet
EndChar

StartChar: guillemotright
Encoding: 187 187 204
GlifName: guillemotright
Width: 2048
VWidth: 0
Flags: W
LayerCount: 2
Fore
SplineSet
1416 609 m 257
 1047 784 l 257
 1047 631 l 257
 1416 454 l 257
 1416 609 l 257
1416 609 m 257
 1048 268 l 257
 1048 122 l 257
 1416 454 l 257
 1416 609 l 257
1001 609 m 257
 632 784 l 257
 632 631 l 257
 1001 454 l 257
 1001 609 l 257
1001 609 m 257
 633 268 l 257
 633 122 l 257
 1001 454 l 257
 1001 609 l 257
EndSplineSet
EndChar

StartChar: guilsinglleft
Encoding: 8249 8249 205
GlifName: guilsinglleft
Width: 2048
VWidth: 0
Flags: W
LayerCount: 2
Fore
SplineSet
614 777 m 257
 614 569 l 257
 1432 807 l 257
 1432 1013 l 257
 614 777 l 257
614 777 m 257
 614 569 l 257
 1430 122 l 257
 1430 319 l 257
 614 777 l 257
EndSplineSet
EndChar

StartChar: guilsinglright
Encoding: 8250 8250 206
GlifName: guilsinglright
Width: 2048
VWidth: 0
Flags: W
LayerCount: 2
Fore
SplineSet
1436 777 m 257
 614 1013 l 257
 614 807 l 257
 1437 568 l 257
 1436 777 l 257
1436 777 m 257
 616 319 l 257
 616 122 l 257
 1437 568 l 257
 1436 777 l 257
EndSplineSet
EndChar

StartChar: h
Encoding: 104 104 207
GlifName: h
Width: 2048
VWidth: 0
Flags: W
LayerCount: 2
Fore
SplineSet
186 1537 m 257
 186 6 l 257
 386 6 l 257
 386 1537 l 257
 186 1537 l 257
323 1023 m 257
 323 826 l 257
 1854 826 l 257
 1854 1023 l 257
 323 1023 l 257
1663 1023 m 257
 1663 0 l 257
 1862 0 l 257
 1862 1023 l 257
 1663 1023 l 257
EndSplineSet
EndChar

StartChar: hbar
Encoding: 295 295 208
GlifName: hbar
Width: 2048
VWidth: 0
Flags: W
LayerCount: 2
Fore
SplineSet
174 1537 m 257
 174 6 l 257
 374 6 l 257
 374 1537 l 257
 174 1537 l 257
311 1023 m 257
 311 826 l 257
 1866 826 l 257
 1866 1023 l 257
 311 1023 l 257
1675 1023 m 257
 1675 0 l 257
 1874 0 l 257
 1874 1023 l 257
 1675 1023 l 257
38 1429 m 257
 38 1221 l 257
 494 1221 l 257
 494 1429 l 257
 38 1429 l 257
EndSplineSet
EndChar

StartChar: hungarumlaut
Encoding: 733 733 210
GlifName: hungarumlaut
Width: 2048
VWidth: 0
Flags: W
LayerCount: 2
Fore
SplineSet
752 1134 m 257
 896 1134 l 257
 896 1382 l 257
 752 1382 l 257
 752 1134 l 257
1152 1134 m 257
 1296 1134 l 257
 1296 1382 l 257
 1152 1382 l 257
 1152 1134 l 257
EndSplineSet
EndChar

StartChar: hyphen
Encoding: 45 45 211
GlifName: hyphen
Width: 2048
VWidth: 0
Flags: W
LayerCount: 2
Fore
SplineSet
611 808 m 257
 611 600 l 257
 1437 600 l 257
 1437 808 l 257
 611 808 l 257
EndSplineSet
EndChar

StartChar: i
Encoding: 105 105 212
GlifName: i
Width: 2048
VWidth: 0
Flags: W
LayerCount: 2
Fore
SplineSet
923 1018 m 257
 923 139 l 257
 1125 139 l 257
 1125 1018 l 257
 923 1018 l 257
153 204 m 257
 153 6 l 257
 1895 6 l 257
 1895 204 l 257
 153 204 l 257
659 1333 m 257
 659 1133 l 257
 866 1133 l 257
 866 1333 l 257
 659 1333 l 257
497 1018 m 257
 497 816 l 257
 1117 816 l 257
 1117 1018 l 257
 497 1018 l 257
EndSplineSet
EndChar

StartChar: j
Encoding: 106 106 222
GlifName: j
Width: 2048
VWidth: 0
Flags: W
LayerCount: 2
Fore
SplineSet
1640 1023 m 257
 1640 -411 l 257
 1838 -411 l 257
 1838 1023 l 257
 1640 1023 l 257
210 -209 m 257
 210 -406 l 257
 1740 -406 l 257
 1740 -209 l 257
 210 -209 l 257
210 -6 m 257
 210 -351 l 257
 410 -351 l 257
 410 -6 l 257
 210 -6 l 257
1627 1307 m 257
 1627 1112 l 257
 1853 1112 l 257
 1853 1307 l 257
 1627 1307 l 257
EndSplineSet
EndChar

StartChar: k
Encoding: 107 107 224
GlifName: k
Width: 2048
VWidth: 0
Flags: W
LayerCount: 2
Fore
SplineSet
103 1537 m 257
 103 5 l 257
 303 5 l 257
 303 1537 l 257
 103 1537 l 257
152 516 m 257
 201 298 l 257
 1888 1023 l 257
 1671 1023 l 257
 152 516 l 257
467 596 m 257
 257 483 l 257
 1707 0 l 257
 1945 0 l 257
 467 596 l 257
EndSplineSet
EndChar

StartChar: l
Encoding: 108 108 225
GlifName: l
Width: 2048
VWidth: 0
Flags: W
LayerCount: 2
Fore
SplineSet
207 209 m 257
 207 9 l 257
 1841 9 l 257
 1841 209 l 257
 207 209 l 257
924 1548 m 257
 924 86 l 257
 1124 86 l 257
 1124 1548 l 257
 924 1548 l 257
268 1548 m 257
 268 1349 l 257
 1003 1349 l 257
 1003 1548 l 257
 268 1548 l 257
EndSplineSet
EndChar

StartChar: lcaron
Encoding: 318 318 227
GlifName: lcaron
Width: 2048
VWidth: 0
Flags: W
LayerCount: 2
Fore
SplineSet
133 209 m 257
 133 9 l 257
 1791 9 l 257
 1791 209 l 257
 133 209 l 257
862 1548 m 257
 862 86 l 257
 1062 86 l 257
 1062 1548 l 257
 862 1548 l 257
194 1548 m 257
 194 1349 l 257
 941 1349 l 257
 941 1548 l 257
 194 1548 l 257
1309 1496 m 257
 1309 1264 l 257
 1439 1264 l 257
 1439 1496 l 257
 1309 1496 l 257
EndSplineSet
EndChar

StartChar: less
Encoding: 60 60 229
GlifName: less
Width: 2048
VWidth: 0
Flags: W
LayerCount: 2
Fore
SplineSet
614 777 m 257
 614 569 l 257
 1432 807 l 257
 1432 1013 l 257
 614 777 l 257
614 777 m 257
 614 569 l 257
 1430 122 l 257
 1430 319 l 257
 614 777 l 257
EndSplineSet
EndChar

StartChar: logicalnot
Encoding: 172 172 230
GlifName: logicalnot
Width: 2048
VWidth: 0
Flags: W
LayerCount: 2
Fore
SplineSet
1179 935 m 257
 1179 640 l 257
 1289 640 l 257
 1289 935 l 257
 1179 935 l 257
749 935 m 257
 749 835 l 257
 1299 835 l 257
 1299 935 l 257
 749 935 l 257
EndSplineSet
EndChar

StartChar: lslash
Encoding: 322 322 231
GlifName: lslash
Width: 2048
VWidth: 0
Flags: W
LayerCount: 2
Fore
SplineSet
195 209 m 257
 195 9 l 257
 1853 9 l 257
 1853 209 l 257
 195 209 l 257
924 1548 m 257
 924 86 l 257
 1124 86 l 257
 1124 1548 l 257
 924 1548 l 257
256 1548 m 257
 256 1349 l 257
 1003 1349 l 257
 1003 1548 l 257
 256 1548 l 257
1839 1213 m 257
 112 830 l 257
 214 656 l 257
 1941 1039 l 257
 1839 1213 l 257
EndSplineSet
EndChar

StartChar: m
Encoding: 109 109 232
GlifName: m
Width: 2048
VWidth: 0
Flags: W
LayerCount: 2
Fore
SplineSet
148 993 m 257
 148 0 l 257
 348 0 l 257
 348 993 l 257
 148 993 l 257
962 972 m 257
 962 0 l 257
 1162 0 l 257
 1162 972 l 257
 962 972 l 257
1778 976 m 257
 1778 0 l 257
 1978 0 l 257
 1978 976 l 257
 1778 976 l 257
70 1023 m 257
 70 826 l 257
 1976 826 l 257
 1976 1023 l 257
 70 1023 l 257
EndSplineSet
EndChar

StartChar: macron
Encoding: 175 175 233
GlifName: macron
Width: 2048
VWidth: 0
Flags: W
LayerCount: 2
Fore
SplineSet
758 1023 m 257
 758 941 l 257
 1318 941 l 257
 1318 1023 l 257
 758 1023 l 257
EndSplineSet
EndChar

StartChar: mu
Encoding: 181 181 235
GlifName: mu
Width: 2048
VWidth: 0
Flags: W
LayerCount: 2
Fore
SplineSet
1736 935 m 257
 1736 0 l 257
 1846 0 l 257
 1846 935 l 257
 1736 935 l 257
302 120 m 257
 302 0 l 257
 1816 0 l 257
 1816 120 l 257
 302 120 l 257
202 935 m 257
 202 -430 l 257
 296 -430 l 257
 296 935 l 257
 202 935 l 257
EndSplineSet
EndChar

StartChar: multiply
Encoding: 215 215 236
GlifName: multiply
Width: 2048
VWidth: 0
Flags: W
LayerCount: 2
Fore
SplineSet
91 302 m 257
 414 302 l 257
 1951 1323 l 257
 1640 1323 l 257
 91 302 l 257
93 1325 m 257
 1647 298 l 257
 1958 298 l 257
 417 1325 l 257
 93 1325 l 257
EndSplineSet
EndChar

StartChar: n
Encoding: 110 110 237
GlifName: n
Width: 2048
VWidth: 0
Flags: W
LayerCount: 2
Fore
SplineSet
314 990 m 257
 314 0 l 257
 514 0 l 257
 514 990 l 257
 314 990 l 257
1712 976 m 257
 1712 0 l 257
 1914 0 l 257
 1914 976 l 257
 1712 976 l 257
134 1023 m 257
 134 826 l 257
 1912 826 l 257
 1912 1023 l 257
 134 1023 l 257
EndSplineSet
EndChar

StartChar: nine
Encoding: 57 57 240
GlifName: nine
Width: 2048
VWidth: 0
Flags: W
LayerCount: 2
Fore
SplineSet
1805 759 m 257
 1805 200 l 257
 79 200 l 257
 79 0 l 257
 2001 0 l 257
 2001 1554 l 257
 57 1554 l 257
 57 1537 l 257
 57 759 l 257
 1805 759 l 257
1802 959 m 257
 257 959 l 257
 257 1354 l 257
 1802 1354 l 257
 1802 959 l 257
EndSplineSet
EndChar

StartChar: numbersign
Encoding: 35 35 242
GlifName: numbersign
Width: 2048
VWidth: 0
Flags: W
LayerCount: 2
Fore
SplineSet
740 1347 m 257
 740 313 l 257
 880 313 l 257
 880 1347 l 257
 740 1347 l 257
1152 1350 m 257
 1152 279 l 257
 1318 279 l 257
 1318 1350 l 257
 1152 1350 l 257
612 1157 m 257
 612 1010 l 257
 1430 1010 l 257
 1430 1157 l 257
 612 1157 l 257
612 767 m 257
 612 592 l 257
 1438 592 l 257
 1438 767 l 257
 612 767 l 257
EndSplineSet
EndChar

StartChar: o
Encoding: 111 111 243
GlifName: o
Width: 2048
VWidth: 0
Flags: W
LayerCount: 2
Fore
SplineSet
116 1023 m 257
 116 0 l 257
 316 0 l 257
 316 1023 l 257
 116 1023 l 257
1732 1023 m 257
 1732 0 l 257
 1934 0 l 257
 1934 1023 l 257
 1732 1023 l 257
240 1023 m 257
 240 822 l 257
 1826 822 l 257
 1826 1023 l 257
 240 1023 l 257
244 200 m 257
 244 0 l 257
 1816 0 l 257
 1816 200 l 257
 244 200 l 257
EndSplineSet
EndChar

StartChar: oe
Encoding: 339 339 248
GlifName: oe
Width: 2048
VWidth: 0
Flags: W
LayerCount: 2
Fore
SplineSet
1109 645 m 257
 1109 446 l 257
 1848 446 l 257
 1848 645 l 257
 1109 645 l 257
1823 1023 m 257
 1823 445 l 257
 2023 445 l 257
 2023 1023 l 257
 1823 1023 l 257
103 1023 m 257
 103 0 l 257
 303 0 l 257
 303 1023 l 257
 103 1023 l 257
963 1023 m 257
 963 0 l 257
 1163 0 l 257
 1163 1023 l 257
 963 1023 l 257
158 1023 m 257
 158 823 l 257
 1883 823 l 257
 1883 1023 l 257
 158 1023 l 257
149 200 m 257
 149 0 l 257
 2023 0 l 257
 2023 200 l 257
 149 200 l 257
EndSplineSet
EndChar

StartChar: ogonek
Encoding: 731 731 249
GlifName: ogonek
Width: 2048
VWidth: 0
Flags: W
LayerCount: 2
Fore
SplineSet
753 -274 m 257
 753 -396 l 257
 1295 -396 l 257
 1295 -274 l 257
 753 -274 l 257
753 14 m 257
 753 -396 l 257
 871 -396 l 257
 871 14 l 257
 753 14 l 257
753 14 m 257
 753 -107 l 257
 1295 -107 l 257
 1295 14 l 257
 753 14 l 257
EndSplineSet
EndChar

StartChar: one
Encoding: 49 49 253
GlifName: one
Width: 2048
VWidth: 0
Flags: W
LayerCount: 2
Fore
SplineSet
1022 0 m 257
 1220 0 l 257
 1220 1548 l 257
 1022 1548 l 257
 1022 0 l 257
1026 1548 m 257
 828 1252 l 257
 978 1152 l 257
 1176 1449 l 257
 1026 1548 l 257
EndSplineSet
EndChar

StartChar: onehalf
Encoding: 189 189 254
GlifName: onehalf
Width: 2048
VWidth: 0
Flags: W
LayerCount: 2
Fore
SplineSet
1292 1483 m 257
 267 6 l 257
 444 -30 l 257
 1469 1447 l 257
 1292 1483 l 257
298 863 m 257
 381 863 l 257
 381 1548 l 257
 298 1548 l 257
 298 863 l 257
300 1548 m 257
 218 1419 l 257
 280 1374 l 257
 362 1506 l 257
 300 1548 l 257
1641 633 m 257
 1912 633 l 257
 1912 437 l 257
 1643 437 l 257
 1643 30 l 257
 1994 30 l 257
 1994 120 l 257
 1733 120 l 257
 1733 347 l 257
 2001 347 l 257
 2001 723 l 257
 1641 723 l 257
 1641 633 l 257
EndSplineSet
EndChar

StartChar: onequarter
Encoding: 188 188 255
GlifName: onequarter
Width: 2048
VWidth: 0
Flags: W
LayerCount: 2
Fore
SplineSet
1276 1482 m 257
 81 10 l 257
 292 10 l 257
 1487 1482 l 257
 1276 1482 l 257
540 1046 m 257
 651 1046 l 257
 651 1548 l 257
 540 1548 l 257
 540 1046 l 257
550 1542 m 257
 325 1428 l 257
 366 1391 l 257
 610 1542 l 257
 550 1542 l 257
1079 381 m 257
 1706 381 l 257
 1706 9 l 257
 1825 9 l 257
 1825 770 l 257
 1702 770 l 257
 1702 447 l 257
 1200 447 l 257
 1200 772 l 257
 1079 772 l 257
 1079 381 l 257
EndSplineSet
EndChar

StartChar: ordfeminine
Encoding: 170 170 256
GlifName: ordfeminine
Width: 2048
VWidth: 0
Flags: W
LayerCount: 2
Fore
SplineSet
217 1319 m 257
 217 1119 l 257
 1823 1119 l 257
 1823 1319 l 257
 217 1319 l 257
1710 1320 m 257
 1710 296 l 257
 1904 296 l 257
 1904 1320 l 257
 1710 1320 l 257
221 894 m 257
 221 695 l 257
 1845 695 l 257
 1845 894 l 257
 221 894 l 257
221 870 m 257
 221 293 l 257
 422 293 l 257
 422 870 l 257
 221 870 l 257
219 496 m 257
 219 296 l 257
 1909 296 l 257
 1909 496 l 257
 219 496 l 257
126 162 m 257
 126 0 l 257
 1922 0 l 257
 1922 162 l 257
 126 162 l 257
EndSplineSet
EndChar

StartChar: ordmasculine
Encoding: 186 186 257
GlifName: ordmasculine
Width: 2048
VWidth: 0
Flags: W
LayerCount: 2
Fore
SplineSet
172 1023 m 257
 172 0 l 257
 372 0 l 257
 372 1023 l 257
 172 1023 l 257
1787 1023 m 257
 1787 0 l 257
 1989 0 l 257
 1989 1023 l 257
 1787 1023 l 257
295 1023 m 257
 295 822 l 257
 1881 822 l 257
 1881 1023 l 257
 295 1023 l 257
299 200 m 257
 299 0 l 257
 1871 0 l 257
 1871 200 l 257
 299 200 l 257
0 -84 m 257
 0 -216 l 257
 2048 -216 l 257
 2048 -84 l 257
 0 -84 l 257
EndSplineSet
EndChar

StartChar: oslash
Encoding: 248 248 258
GlifName: oslash
Width: 2048
VWidth: 0
Flags: W
LayerCount: 2
Fore
SplineSet
1861 1164 m 257
 9 -5 l 257
 171 -103 l 257
 2024 1066 l 257
 1861 1164 l 257
104 1023 m 257
 104 0 l 257
 304 0 l 257
 304 1023 l 257
 104 1023 l 257
1743 1023 m 257
 1743 0 l 257
 1945 0 l 257
 1945 1023 l 257
 1743 1023 l 257
227 1023 m 257
 227 822 l 257
 1837 822 l 257
 1837 1023 l 257
 227 1023 l 257
231 200 m 257
 231 0 l 257
 1827 0 l 257
 1827 200 l 257
 231 200 l 257
EndSplineSet
EndChar

StartChar: p
Encoding: 112 112 260
GlifName: p
Width: 2048
VWidth: 0
Flags: W
LayerCount: 2
Fore
SplineSet
202 1203 m 257
 202 -406 l 257
 402 -406 l 257
 402 1203 l 257
 202 1203 l 257
300 1023 m 257
 300 821 l 257
 1838 821 l 257
 1838 1023 l 257
 300 1023 l 257
304 202 m 257
 304 0 l 257
 1844 0 l 257
 1844 202 l 257
 304 202 l 257
1642 876 m 257
 1642 175 l 257
 1840 175 l 257
 1840 876 l 257
 1642 876 l 257
EndSplineSet
EndChar

StartChar: paragraph
Encoding: 182 182 261
GlifName: paragraph
Width: 2048
VWidth: 0
Flags: W
LayerCount: 2
Fore
SplineSet
602 1130 m 257
 602 985 l 257
 1166 985 l 257
 1166 1130 l 257
 602 1130 l 257
602 1548 m 257
 602 1000 l 257
 762 1000 l 257
 762 1548 l 257
 602 1548 l 257
602 1548 m 257
 602 1435 l 257
 1422 1435 l 257
 1422 1548 l 257
 602 1548 l 257
1072 1548 m 257
 1072 0 l 257
 1216 0 l 257
 1216 1548 l 257
 1072 1548 l 257
1342 1548 m 257
 1342 0 l 257
 1446 0 l 257
 1446 1548 l 257
 1342 1548 l 257
EndSplineSet
EndChar

StartChar: parenleft
Encoding: 40 40 262
GlifName: parenleft
Width: 2048
VWidth: 0
Flags: W
LayerCount: 2
Fore
SplineSet
836 1023 m 257
 836 179 l 257
 1026 179 l 257
 1026 1023 l 257
 836 1023 l 257
1154 1633 m 257
 836 1028 l 257
 1024 1028 l 257
 1184 1640 l 257
 1154 1633 l 257
836 179 m 257
 1180 -406 l 257
 1212 -406 l 257
 1026 179 l 257
 836 179 l 257
EndSplineSet
EndChar

StartChar: parenright
Encoding: 41 41 263
GlifName: parenright
Width: 2048
VWidth: 0
Flags: W
LayerCount: 2
Fore
SplineSet
1000 1023 m 257
 1000 179 l 257
 1190 179 l 257
 1190 1023 l 257
 1000 1023 l 257
858 1629 m 257
 1000 1023 l 257
 1190 1023 l 257
 896 1629 l 257
 858 1629 l 257
1000 179 m 257
 858 -406 l 257
 886 -406 l 257
 1190 179 l 257
 1000 179 l 257
EndSplineSet
EndChar

StartChar: percent
Encoding: 37 37 264
GlifName: percent
Width: 2048
VWidth: 0
Flags: W
LayerCount: 2
Fore
SplineSet
590 522 m 257
 634 377 l 257
 1458 716 l 257
 1414 860 l 257
 590 522 l 257
730 1148 m 257
 730 822 l 257
 808 822 l 257
 808 1148 l 257
 730 1148 l 257
730 1152 m 257
 730 1057 l 257
 1078 1057 l 257
 1078 1152 l 257
 730 1152 l 257
730 871 m 257
 730 789 l 257
 1074 789 l 257
 1074 871 l 257
 730 871 l 257
986 1152 m 257
 986 791 l 257
 1078 791 l 257
 1078 1152 l 257
 986 1152 l 257
1058 436 m 257
 1058 110 l 257
 1136 110 l 257
 1136 436 l 257
 1058 436 l 257
1058 440 m 257
 1058 345 l 257
 1404 345 l 257
 1404 440 l 257
 1058 440 l 257
1058 159 m 257
 1058 77 l 257
 1402 77 l 257
 1402 159 l 257
 1058 159 l 257
1312 440 m 257
 1312 79 l 257
 1404 79 l 257
 1404 440 l 257
 1312 440 l 257
EndSplineSet
EndChar

StartChar: period
Encoding: 46 46 265
GlifName: period
Width: 2048
VWidth: 0
Flags: W
LayerCount: 2
Fore
SplineSet
892 246 m 257
 892 0 l 257
 1156 0 l 257
 1156 246 l 257
 892 246 l 257
EndSplineSet
EndChar

StartChar: periodcentered
Encoding: 183 183 266
GlifName: periodcentered
Width: 2048
VWidth: 0
Flags: W
LayerCount: 2
Fore
SplineSet
892 1146 m 257
 892 899 l 257
 1156 899 l 257
 1156 1146 l 257
 892 1146 l 257
EndSplineSet
EndChar

StartChar: perthousand
Encoding: 8240 8240 267
GlifName: perthousand
Width: 2048
VWidth: 0
Flags: W
LayerCount: 2
Fore
SplineSet
1174 436 m 257
 1174 110 l 257
 1252 110 l 257
 1252 436 l 257
 1174 436 l 257
1174 440 m 257
 1174 345 l 257
 1520 345 l 257
 1520 440 l 257
 1174 440 l 257
1174 159 m 257
 1174 77 l 257
 1518 77 l 257
 1518 159 l 257
 1174 159 l 257
1428 440 m 257
 1428 79 l 257
 1520 79 l 257
 1520 440 l 257
 1428 440 l 257
528 522 m 257
 570 377 l 257
 1394 716 l 257
 1350 860 l 257
 528 522 l 257
668 1148 m 257
 668 822 l 257
 746 822 l 257
 746 1148 l 257
 668 1148 l 257
668 1152 m 257
 668 1057 l 257
 1014 1057 l 257
 1014 1152 l 257
 668 1152 l 257
668 871 m 257
 668 789 l 257
 1012 789 l 257
 1012 871 l 257
 668 871 l 257
922 1152 m 257
 922 791 l 257
 1014 791 l 257
 1014 1152 l 257
 922 1152 l 257
772 436 m 257
 772 110 l 257
 850 110 l 257
 850 436 l 257
 772 436 l 257
772 440 m 257
 772 345 l 257
 1120 345 l 257
 1120 440 l 257
 772 440 l 257
772 159 m 257
 772 77 l 257
 1116 77 l 257
 1116 159 l 257
 772 159 l 257
1028 440 m 257
 1028 79 l 257
 1120 79 l 257
 1120 440 l 257
 1028 440 l 257
EndSplineSet
EndChar

StartChar: plus
Encoding: 43 43 268
GlifName: plus
Width: 2048
VWidth: 0
Flags: W
LayerCount: 2
Fore
SplineSet
896 1221 m 257
 896 165 l 257
 1121 165 l 257
 1121 1221 l 257
 896 1221 l 257
573 821 m 257
 573 613 l 257
 1475 613 l 257
 1475 821 l 257
 573 821 l 257
EndSplineSet
EndChar

StartChar: plusminus
Encoding: 177 177 269
GlifName: plusminus
Width: 2048
VWidth: 0
Flags: W
LayerCount: 2
Fore
SplineSet
611 108 m 257
 611 -100 l 257
 1437 -100 l 257
 1437 108 l 257
 611 108 l 257
896 1221 m 257
 896 165 l 257
 1121 165 l 257
 1121 1221 l 257
 896 1221 l 257
573 821 m 257
 573 613 l 257
 1475 613 l 257
 1475 821 l 257
 573 821 l 257
EndSplineSet
EndChar

StartChar: q
Encoding: 113 113 270
GlifName: q
Width: 2048
VWidth: 0
Flags: W
LayerCount: 2
Fore
SplineSet
1424 1201 m 257
 1424 -406 l 257
 1622 -406 l 257
 1622 1201 l 257
 1424 1201 l 257
150 1023 m 257
 150 823 l 257
 1600 823 l 257
 1600 1023 l 257
 150 1023 l 257
152 203 m 257
 152 0 l 257
 1568 0 l 257
 1568 203 l 257
 152 203 l 257
150 855 m 257
 150 107 l 257
 350 107 l 257
 350 855 l 257
 150 855 l 257
1462 -268 m 257
 1462 -406 l 257
 1898 -406 l 257
 1898 -268 l 257
 1462 -268 l 257
EndSplineSet
EndChar

StartChar: question
Encoding: 63 63 271
GlifName: question
Width: 2048
VWidth: 0
Flags: W
LayerCount: 2
Fore
SplineSet
880 247 m 257
 880 0 l 257
 1126 0 l 257
 1126 247 l 257
 880 247 l 257
704 1519 m 257
 704 1333 l 257
 1340 1333 l 257
 1340 1519 l 257
 704 1519 l 257
1150 1514 m 257
 1150 966 l 257
 1344 966 l 257
 1344 1514 l 257
 1150 1514 l 257
880 1015 m 257
 880 816 l 257
 1344 816 l 257
 1344 1015 l 257
 880 1015 l 257
880 1011 m 257
 880 392 l 257
 1128 392 l 257
 1128 1011 l 257
 880 1011 l 257
EndSplineSet
EndChar

StartChar: questiondown
Encoding: 191 191 272
GlifName: questiondown
Width: 2048
VWidth: 0
Flags: W
LayerCount: 2
Fore
SplineSet
1168 1273 m 257
 1168 1519 l 257
 918 1519 l 257
 918 1272 l 257
 1168 1273 l 257
1344 0 m 257
 1344 186 l 257
 708 186 l 257
 708 0 l 257
 1344 0 l 257
898 5 m 257
 898 553 l 257
 704 553 l 257
 704 5 l 257
 898 5 l 257
1168 504 m 257
 1168 703 l 257
 704 703 l 257
 704 504 l 257
 1168 504 l 257
1168 508 m 257
 1168 1127 l 257
 920 1127 l 257
 920 508 l 257
 1168 508 l 257
EndSplineSet
EndChar

StartChar: quotedbl
Encoding: 34 34 273
GlifName: quotedbl
Width: 2048
VWidth: 0
Flags: W
LayerCount: 2
Fore
SplineSet
752 1326 m 257
 896 1326 l 257
 896 1574 l 257
 752 1574 l 257
 752 1326 l 257
1152 1326 m 257
 1296 1326 l 257
 1296 1574 l 257
 1152 1574 l 257
 1152 1326 l 257
EndSplineSet
EndChar

StartChar: quotedblbase
Encoding: 8222 8222 274
GlifName: quotedblbase
Width: 2048
VWidth: 0
Flags: W
LayerCount: 2
Fore
SplineSet
198 237 m 257
 198 8 l 257
 446 8 l 257
 446 237 l 257
 198 237 l 257
297 135 m 257
 179 -146 l 257
 322 -206 l 257
 444 0 l 257
 297 135 l 257
597 237 m 257
 597 8 l 257
 845 8 l 257
 845 237 l 257
 597 237 l 257
696 135 m 257
 578 -146 l 257
 721 -206 l 257
 843 0 l 257
 696 135 l 257
EndSplineSet
EndChar

StartChar: quotedblleft
Encoding: 8220 8220 275
GlifName: quotedblleft
Width: 2048
VWidth: 0
Flags: W
LayerCount: 2
Fore
SplineSet
970 1842 m 257
 970 2071 l 257
 722 2071 l 257
 722 1842 l 257
 970 1842 l 257
872 1944 m 257
 990 2225 l 257
 846 2285 l 257
 724 2075 l 257
 872 1944 l 257
1306 1842 m 257
 1306 2071 l 257
 1058 2071 l 257
 1058 1842 l 257
 1306 1842 l 257
1208 1944 m 257
 1326 2225 l 257
 1182 2285 l 257
 1060 2075 l 257
 1208 1944 l 257
EndSplineSet
EndChar

StartChar: quotedblright
Encoding: 8221 8221 276
GlifName: quotedblright
Width: 2048
VWidth: 0
Flags: W
LayerCount: 2
Fore
SplineSet
1068 2285 m 257
 1068 2056 l 257
 1316 2056 l 257
 1316 2285 l 257
 1068 2285 l 257
1168 2183 m 257
 1050 1902 l 257
 1192 1842 l 257
 1314 2052 l 257
 1168 2183 l 257
750 2285 m 257
 750 2056 l 257
 998 2056 l 257
 998 2285 l 257
 750 2285 l 257
850 2183 m 257
 732 1902 l 257
 874 1842 l 257
 996 2052 l 257
 850 2183 l 257
EndSplineSet
EndChar

StartChar: quoteleft
Encoding: 8216 8216 277
GlifName: quoteleft
Width: 2048
VWidth: 0
Flags: W
LayerCount: 2
Fore
SplineSet
1138 1842 m 257
 1138 2071 l 257
 890 2071 l 257
 890 1842 l 257
 1138 1842 l 257
1040 1944 m 257
 1158 2225 l 257
 1014 2285 l 257
 892 2075 l 257
 1040 1944 l 257
EndSplineSet
EndChar

StartChar: quoteright
Encoding: 8217 8217 278
GlifName: quoteright
Width: 2048
VWidth: 0
Flags: W
LayerCount: 2
Fore
SplineSet
910 2285 m 257
 910 2056 l 257
 1158 2056 l 257
 1158 2285 l 257
 910 2285 l 257
1008 2183 m 257
 890 1902 l 257
 1034 1842 l 257
 1156 2052 l 257
 1008 2183 l 257
EndSplineSet
EndChar

StartChar: quotesinglbase
Encoding: 8218 8218 279
GlifName: quotesinglbase
Width: 2048
VWidth: 0
Flags: W
LayerCount: 2
Fore
SplineSet
910 237 m 257
 910 8 l 257
 1158 8 l 257
 1158 237 l 257
 910 237 l 257
1008 135 m 257
 890 -146 l 257
 1034 -206 l 257
 1156 0 l 257
 1008 135 l 257
EndSplineSet
EndChar

StartChar: quotesingle
Encoding: 39 39 280
GlifName: quotesingle
Width: 2048
VWidth: 0
Flags: W
LayerCount: 2
Fore
SplineSet
959 1496 m 257
 959 1264 l 257
 1089 1264 l 257
 1089 1496 l 257
 959 1496 l 257
EndSplineSet
EndChar

StartChar: r
Encoding: 114 114 281
GlifName: r
Width: 2048
VWidth: 0
Flags: W
LayerCount: 2
Fore
SplineSet
158 1023 m 257
 158 821 l 257
 1890 821 l 257
 1890 1023 l 257
 158 1023 l 257
872 954 m 257
 872 0 l 257
 1072 0 l 257
 1072 954 l 257
 872 954 l 257
1690 976 m 257
 1690 650 l 257
 1890 650 l 257
 1890 976 l 257
 1690 976 l 257
EndSplineSet
EndChar

StartChar: registered
Encoding: 174 174 284
GlifName: registered
Width: 2048
VWidth: 0
Flags: W
LayerCount: 2
Fore
SplineSet
609 1032 m 257
 609 501 l 257
 677 501 l 257
 677 1032 l 257
 609 1032 l 257
634 1032 m 257
 634 963 l 257
 1463 963 l 257
 1463 1032 l 257
 634 1032 l 257
1403 1032 m 257
 1403 802 l 257
 1472 802 l 257
 1472 1032 l 257
 1403 1032 l 257
630 875 m 257
 630 801 l 257
 1468 801 l 257
 1468 875 l 257
 630 875 l 257
677 809 m 257
 1416 485 l 257
 1551 485 l 257
 799 809 l 257
 677 809 l 257
153 1537 m 257
 153 0 l 257
 354 0 l 257
 354 1537 l 257
 153 1537 l 257
1692 1537 m 257
 1692 0 l 257
 1895 0 l 257
 1895 1537 l 257
 1692 1537 l 257
294 1537 m 257
 294 1337 l 257
 1737 1337 l 257
 1737 1537 l 257
 294 1537 l 257
270 204 m 257
 270 0 l 257
 1743 0 l 257
 1743 204 l 257
 270 204 l 257
EndSplineSet
EndChar

StartChar: ring
Encoding: 730 730 285
GlifName: ring
Width: 2048
VWidth: 0
Flags: W
LayerCount: 2
Fore
SplineSet
949 1252 m 257
 1097 1252 l 257
 1097 1122 l 257
 949 1122 l 257
 949 1252 l 257
844 1343 m 257
 844 1034 l 257
 1204 1034 l 257
 1204 1343 l 257
 844 1343 l 257
EndSplineSet
EndChar

StartChar: s
Encoding: 115 115 286
GlifName: s
Width: 2048
VWidth: 0
Flags: W
LayerCount: 2
Fore
SplineSet
219 1023 m 257
 219 826 l 257
 1828 826 l 257
 1828 1023 l 257
 219 1023 l 257
219 1023 m 257
 219 736 l 257
 419 736 l 257
 419 1023 l 257
 219 1023 l 257
220 201 m 257
 220 0 l 257
 1825 0 l 257
 1825 201 l 257
 220 201 l 257
1624 293 m 257
 1624 12 l 257
 1824 12 l 257
 1824 293 l 257
 1624 293 l 257
220 736 m 257
 1624 293 l 257
 1824 293 l 257
 420 736 l 257
 220 736 l 257
EndSplineSet
EndChar

StartChar: section
Encoding: 167 167 291
GlifName: section
Width: 2048
VWidth: 0
Flags: W
LayerCount: 2
Fore
SplineSet
634 1238 m 257
 634 1035 l 257
 1232 1035 l 257
 1232 1238 l 257
 634 1238 l 257
634 1241 m 257
 634 605 l 257
 836 605 l 257
 836 1241 l 257
 634 1241 l 257
670 -61 m 257
 670 -260 l 257
 1378 -260 l 257
 1378 -61 l 257
 670 -61 l 257
1214 -259 m 257
 1414 -259 l 257
 1414 95 l 257
 1214 95 l 257
 1214 -259 l 257
634 605 m 257
 1214 95 l 257
 1414 95 l 257
 836 605 l 257
 634 605 l 257
634 1626 m 257
 634 1423 l 257
 1232 1423 l 257
 1232 1626 l 257
 634 1626 l 257
634 1629 m 257
 634 1237 l 257
 836 1237 l 257
 836 1629 l 257
 634 1629 l 257
662 286 m 257
 662 87 l 257
 1370 87 l 257
 1370 286 l 257
 662 286 l 257
1204 88 m 257
 1406 88 l 257
 1406 442 l 257
 1204 442 l 257
 1204 88 l 257
634 1237 m 257
 1204 442 l 257
 1406 442 l 257
 836 1237 l 257
 634 1237 l 257
EndSplineSet
EndChar

StartChar: semicolon
Encoding: 59 59 292
GlifName: semicolon
Width: 2048
VWidth: 0
Flags: W
LayerCount: 2
Fore
SplineSet
912 430 m 257
 912 201 l 257
 1160 201 l 257
 1160 430 l 257
 912 430 l 257
1010 328 m 257
 892 47 l 257
 1036 -13 l 257
 1158 197 l 257
 1010 328 l 257
888 871 m 257
 888 624 l 257
 1154 624 l 257
 1154 871 l 257
 888 871 l 257
EndSplineSet
EndChar

StartChar: seven
Encoding: 55 55 293
GlifName: seven
Width: 2048
VWidth: 0
Flags: W
LayerCount: 2
Fore
SplineSet
54 1355 m 257
 1788 1355 l 257
 1788 0 l 257
 1991 0 l 257
 1991 1557 l 257
 54 1557 l 257
 54 1355 l 257
EndSplineSet
EndChar

StartChar: six
Encoding: 54 54 294
GlifName: six
Width: 2048
VWidth: 0
Flags: W
LayerCount: 2
Fore
SplineSet
41 1548 m 257
 41 201 l 257
 41 0 l 257
 2004 0 l 257
 2004 959 l 257
 244 959 l 257
 244 1348 l 257
 2009 1348 l 257
 2009 1548 l 257
 41 1548 l 257
1796 759 m 257
 1796 203 l 257
 250 203 l 257
 250 759 l 257
 1796 759 l 257
EndSplineSet
EndChar

StartChar: slash
Encoding: 47 47 295
GlifName: slash
Width: 2048
VWidth: 0
Flags: W
LayerCount: 2
Fore
SplineSet
1215 1483 m 257
 645 6 l 257
 833 -67 l 257
 1403 1410 l 257
 1215 1483 l 257
EndSplineSet
EndChar

StartChar: sterling
Encoding: 163 163 297
GlifName: sterling
Width: 2048
VWidth: 0
Flags: W
LayerCount: 2
Fore
SplineSet
934 1543 m 257
 934 1344 l 257
 1225 1344 l 257
 1225 1543 l 257
 934 1543 l 257
607 770 m 257
 607 571 l 257
 1333 571 l 257
 1333 770 l 257
 607 770 l 257
890 1542 m 257
 890 0 l 257
 1088 0 l 257
 1088 1542 l 257
 890 1542 l 257
715 202 m 257
 715 0 l 257
 1441 0 l 257
 1441 202 l 257
 715 202 l 257
EndSplineSet
EndChar

StartChar: t
Encoding: 116 116 298
GlifName: t
Width: 2048
VWidth: 0
Flags: W
LayerCount: 2
Fore
SplineSet
922 1548 m 257
 922 0 l 257
 1122 0 l 257
 1122 1548 l 257
 922 1548 l 257
930 199 m 257
 930 0 l 257
 1822 0 l 257
 1822 199 l 257
 930 199 l 257
186 1023 m 257
 186 824 l 257
 1860 824 l 257
 1860 1023 l 257
 186 1023 l 257
EndSplineSet
EndChar

StartChar: tcaron
Encoding: 357 357 299
GlifName: tcaron
Width: 2048
VWidth: 0
Flags: W
LayerCount: 2
Fore
SplineSet
854 1529 m 257
 854 0 l 257
 1055 0 l 257
 1055 1529 l 257
 854 1529 l 257
1007 199 m 257
 1007 0 l 257
 1910 0 l 257
 1910 199 l 257
 1007 199 l 257
70 1023 m 257
 70 824 l 257
 1873 824 l 257
 1873 1023 l 257
 70 1023 l 257
1396 1496 m 257
 1396 1291 l 257
 1526 1291 l 257
 1526 1496 l 257
 1396 1496 l 257
EndSplineSet
EndChar

StartChar: thorn
Encoding: 254 254 300
GlifName: thorn
Width: 2048
VWidth: 0
Flags: W
LayerCount: 2
Fore
SplineSet
173 1034 m 257
 173 -406 l 257
 373 -406 l 257
 373 1034 l 257
 173 1034 l 257
360 667 m 257
 360 468 l 257
 1940 468 l 257
 1940 667 l 257
 360 667 l 257
368 6 m 257
 368 -195 l 257
 1938 -195 l 257
 1938 6 l 257
 368 6 l 257
1740 597 m 257
 1740 -104 l 257
 1938 -104 l 257
 1938 597 l 257
 1740 597 l 257
EndSplineSet
EndChar

StartChar: three
Encoding: 51 51 301
GlifName: three
Width: 2048
VWidth: 0
Flags: W
LayerCount: 2
Fore
SplineSet
101 736 m 257
 1783 736 l 257
 1783 192 l 257
 59 192 l 257
 59 -8 l 257
 1987 -8 l 257
 1987 1553 l 257
 89 1553 l 257
 89 1353 l 257
 1781 1353 l 257
 1781 936 l 257
 101 936 l 257
 101 736 l 257
EndSplineSet
EndChar

StartChar: threequarters
Encoding: 190 190 302
GlifName: threequarters
Width: 2048
VWidth: 0
Flags: W
LayerCount: 2
Fore
SplineSet
1388 1483 m 257
 212 6 l 257
 332 -67 l 257
 1508 1410 l 257
 1388 1483 l 257
96 1272 m 257
 670 1272 l 257
 670 1084 l 257
 59 1084 l 257
 67 1015 l 257
 847 1015 l 257
 847 1553 l 257
 86 1553 l 257
 86 1484 l 257
 668 1484 l 257
 668 1340 l 257
 96 1340 l 257
 96 1272 l 257
1264 340 m 257
 1811 340 l 257
 1811 7 l 257
 1978 7 l 257
 1978 687 l 257
 1809 687 l 257
 1809 428 l 257
 1433 428 l 257
 1433 689 l 257
 1264 689 l 257
 1264 340 l 257
EndSplineSet
EndChar

StartChar: tilde
Encoding: 732 732 303
GlifName: tilde
Width: 2048
VWidth: 0
Flags: W
LayerCount: 2
Fore
SplineSet
858 781 m 257
 858 682 l 257
 1208 621 l 257
 1208 720 l 257
 858 781 l 257
620 723 m 257
 636 625 l 257
 858 682 l 257
 858 781 l 257
 620 723 l 257
1208 720 m 257
 1208 621 l 257
 1390 762 l 257
 1366 858 l 257
 1208 720 l 257
EndSplineSet
EndChar

StartChar: tildecomb
Encoding: 771 771 304
GlifName: tildecomb
Width: 0
VWidth: 0
LayerCount: 2
Fore
SplineSet
878 2015 m 257
 878 1916 l 257
 1228 1855 l 257
 1228 1954 l 257
 878 2015 l 257
640 1957 m 257
 654 1859 l 257
 878 1916 l 257
 878 2015 l 257
 640 1957 l 257
1228 1954 m 257
 1228 1855 l 257
 1408 1996 l 257
 1384 2092 l 257
 1228 1954 l 257
EndSplineSet
EndChar

StartChar: two
Encoding: 50 50 306
GlifName: two
Width: 2048
VWidth: 0
Flags: W
LayerCount: 2
Fore
SplineSet
109 1344 m 257
 1742 1344 l 257
 1742 908 l 257
 116 908 l 257
 116 0 l 257
 1928 0 l 257
 1928 200 l 257
 319 200 l 257
 319 707 l 257
 1942 707 l 257
 1942 1548 l 257
 109 1548 l 257
 109 1344 l 257
EndSplineSet
EndChar

StartChar: u
Encoding: 117 117 307
GlifName: u
Width: 2048
VWidth: 0
Flags: W
LayerCount: 2
Fore
SplineSet
150 1023 m 257
 150 0 l 257
 350 0 l 257
 350 1023 l 257
 150 1023 l 257
1382 1023 m 257
 1382 0 l 257
 1582 0 l 257
 1582 1023 l 257
 1382 1023 l 257
196 200 m 257
 196 0 l 257
 1898 0 l 257
 1898 200 l 257
 196 200 l 257
EndSplineSet
EndChar

StartChar: underscore
Encoding: 95 95 315
GlifName: underscore
Width: 2048
VWidth: 0
Flags: W
LayerCount: 2
Fore
SplineSet
0 -5 m 257
 0 -71 l 257
 2052 -71 l 257
 2052 -5 l 257
 0 -5 l 257
EndSplineSet
EndChar

StartChar: uni00B2
Encoding: 178 178 317
GlifName: uni00B_2
Width: 2048
VWidth: 0
Flags: W
LayerCount: 2
Fore
SplineSet
385 1455 m 257
 1275 1455 l 257
 1275 1259 l 257
 394 1259 l 257
 394 851 l 257
 1361 851 l 257
 1361 940 l 257
 514 940 l 257
 514 1168 l 257
 1381 1168 l 257
 1381 1548 l 257
 385 1548 l 257
 385 1455 l 257
EndSplineSet
EndChar

StartChar: uni00B3
Encoding: 179 179 318
GlifName: uni00B_3
Width: 2048
VWidth: 0
Flags: W
LayerCount: 2
Fore
SplineSet
456 1184 m 257
 1408 1184 l 257
 1408 938 l 257
 432 938 l 257
 432 849 l 257
 1524 849 l 257
 1524 1553 l 257
 449 1553 l 257
 449 1463 l 257
 1407 1463 l 257
 1407 1275 l 257
 456 1275 l 257
 456 1184 l 257
EndSplineSet
EndChar

StartChar: uni00B9
Encoding: 185 185 319
GlifName: uni00B_9
Width: 2048
VWidth: 0
Flags: W
LayerCount: 2
Fore
SplineSet
1022.75 887 m 257
 1122.25 887 l 257
 1122.25 1661 l 257
 1022.75 1661 l 257
 1022.75 887 l 257
1024.75 1661 m 257
 925.75 1513 l 257
 1000.75 1463 l 257
 1099.75 1611.5 l 257
 1024.75 1661 l 257
EndSplineSet
EndChar

StartChar: uni0123
Encoding: 291 291 321
GlifName: uni0123
Width: 2048
VWidth: 0
Flags: W
LayerCount: 2
Fore
SplineSet
297 1023 m 257
 297 0 l 257
 489 0 l 257
 489 1023 l 257
 297 1023 l 257
337 1023 m 257
 337 823 l 257
 1877 823 l 257
 1877 1023 l 257
 337 1023 l 257
1705 1023 m 257
 1705 -411 l 257
 1899 -411 l 257
 1899 1023 l 257
 1705 1023 l 257
360 198 m 257
 360 0 l 257
 1841 0 l 257
 1841 198 l 257
 360 198 l 257
291 -214 m 257
 291 -413 l 257
 1850 -413 l 257
 1850 -214 l 257
 291 -214 l 257
959 1496 m 257
 959 1198 l 257
 1089 1198 l 257
 1089 1496 l 257
 959 1496 l 257
EndSplineSet
EndChar

StartChar: uni0192
Encoding: 402 402 332
GlifName: uni0192
Width: 2048
VWidth: 0
Flags: W
LayerCount: 2
Fore
SplineSet
763 1023 m 257
 763 -406 l 257
 963 -406 l 257
 963 1023 l 257
 763 1023 l 257
825 1023 m 257
 825 831 l 257
 1603 831 l 257
 1603 1023 l 257
 825 1023 l 257
229 559 m 257
 229 356 l 257
 1506 356 l 257
 1506 559 l 257
 229 559 l 257
167 -201 m 257
 167 -406 l 257
 965 -406 l 257
 965 -201 l 257
 167 -201 l 257
EndSplineSet
EndChar

StartChar: uni0237
Encoding: 567 567 337
GlifName: uni0237
Width: 2048
VWidth: 0
Flags: W
LayerCount: 2
Fore
SplineSet
1640 1023 m 257
 1640 -411 l 257
 1838 -411 l 257
 1838 1023 l 257
 1640 1023 l 257
210 -209 m 257
 210 -406 l 257
 1740 -406 l 257
 1740 -209 l 257
 210 -209 l 257
210 -6 m 257
 210 -351 l 257
 410 -351 l 257
 410 -6 l 257
 210 -6 l 257
EndSplineSet
EndChar

StartChar: uni02C9
Encoding: 713 713 341
GlifName: uni02C_9
Width: 2048
VWidth: 0
Flags: W
LayerCount: 2
Fore
SplineSet
744 1630 m 257
 744 1548 l 257
 1304 1548 l 257
 1304 1630 l 257
 744 1630 l 257
EndSplineSet
EndChar

StartChar: uni02CA
Encoding: 714 714 342
GlifName: uni02C_A_
Width: 2048
VWidth: 0
Flags: W
LayerCount: 2
Fore
SplineSet
1070 1330 m 257
 940 1076 l 257
 1028 1030 l 257
 1160 1285 l 257
 1070 1330 l 257
EndSplineSet
EndChar

StartChar: uni02CB
Encoding: 715 715 343
GlifName: uni02C_B_
Width: 2048
VWidth: 0
Flags: W
LayerCount: 2
Fore
SplineSet
918 2107 m 257
 1038 1871 l 257
 1130 1917 l 257
 1010 2154 l 257
 918 2107 l 257
EndSplineSet
EndChar

StartChar: uni0302
Encoding: 770 770 344
GlifName: uni0302
Width: 0
VWidth: 0
LayerCount: 2
Fore
SplineSet
1062 2300 m 257
 987 2300 l 257
 855 1992 l 257
 930 1960 l 257
 1062 2300 l 257
990 2240 m 257
 1118 1960 l 257
 1193 1988 l 257
 1062 2300 l 257
 990 2240 l 257
EndSplineSet
EndChar

StartChar: uni0304
Encoding: 772 772 345
GlifName: uni0304
Width: 0
VWidth: 0
LayerCount: 2
Fore
SplineSet
744 1630 m 257
 744 1548 l 257
 1304 1548 l 257
 1304 1630 l 257
 744 1630 l 257
EndSplineSet
EndChar

StartChar: uni0306
Encoding: 774 774 346
GlifName: uni0306
Width: 0
VWidth: 0
LayerCount: 2
Fore
SplineSet
1189 1548 m 257
 1189 1480 l 257
 1354 1548 l 257
 1354 1645 l 257
 1189 1548 l 257
865 1548 m 257
 865 1480 l 257
 1189 1480 l 257
 1189 1548 l 257
 865 1548 l 257
694 1630 m 257
 694 1548 l 257
 865 1480 l 257
 865 1548 l 257
 694 1630 l 257
EndSplineSet
EndChar

StartChar: uni0307
Encoding: 775 775 347
GlifName: uni0307
Width: 0
VWidth: 0
LayerCount: 2
Fore
SplineSet
912 1843 m 257
 912 1641 l 257
 1136 1641 l 257
 1136 1843 l 257
 912 1843 l 257
EndSplineSet
EndChar

StartChar: uni0308
Encoding: 776 776 348
GlifName: uni0308
Width: 0
VWidth: 0
LayerCount: 2
Fore
SplineSet
724 1625 m 257
 724 1474 l 257
 892 1474 l 257
 892 1625 l 257
 724 1625 l 257
1088 1625 m 257
 1088 1474 l 257
 1256 1474 l 257
 1256 1625 l 257
 1088 1625 l 257
EndSplineSet
EndChar

StartChar: uni030A
Encoding: 778 778 349
GlifName: uni030A_
Width: 0
VWidth: 0
LayerCount: 2
Fore
SplineSet
949 1756 m 257
 1097 1756 l 257
 1097 1626 l 257
 949 1626 l 257
 949 1756 l 257
844 1847 m 257
 844 1537 l 257
 1204 1537 l 257
 1204 1847 l 257
 844 1847 l 257
EndSplineSet
EndChar

StartChar: uni030C
Encoding: 780 780 351
GlifName: uni030C_
Width: 0
VWidth: 0
LayerCount: 2
Fore
SplineSet
1143 1364 m 257
 1055 1645 l 257
 1005 1620 l 257
 1093 1363 l 257
 1143 1364 l 257
1095 1413 m 257
 1143 1364 l 257
 1231 1622 l 257
 1180 1646 l 257
 1095 1413 l 257
EndSplineSet
EndChar

StartChar: uni0326
Encoding: 806 806 352
GlifName: uni0326
Width: 0
VWidth: 0
LayerCount: 2
Fore
SplineSet
910 0 m 257
 910 -230 l 257
 1158 -230 l 257
 1158 0 l 257
 910 0 l 257
1008 -103 m 257
 890 -384 l 257
 1034 -444 l 257
 1156 -234 l 257
 1008 -103 l 257
EndSplineSet
EndChar

StartChar: uni0327
Encoding: 807 807 353
GlifName: uni0327
Width: 0
VWidth: 0
LayerCount: 2
Fore
SplineSet
800 180 m 257
 800 -144 l 257
 956 -144 l 257
 956 180 l 257
 800 180 l 257
802 -288 m 257
 802 -406 l 257
 1248 -406 l 257
 1248 -288 l 257
 802 -288 l 257
1096 0 m 257
 1096 -372 l 257
 1248 -372 l 257
 1248 0 l 257
 1096 0 l 257
802 0 m 257
 802 -156 l 257
 1248 -156 l 257
 1248 0 l 257
 802 0 l 257
EndSplineSet
EndChar

StartChar: uni0328
Encoding: 808 808 354
GlifName: uni0328
Width: 0
VWidth: 0
LayerCount: 2
Fore
SplineSet
753 -288 m 257
 753 -406 l 257
 1295 -406 l 257
 1295 -288 l 257
 753 -288 l 257
753 0 m 257
 753 -406 l 257
 871 -406 l 257
 871 0 l 257
 753 0 l 257
753 0 m 257
 753 -121 l 257
 1295 -121 l 257
 1295 0 l 257
 753 0 l 257
EndSplineSet
EndChar

StartChar: uni0331
Encoding: 817 817 355
GlifName: uni0331
Width: 2048
VWidth: 0
Flags: W
LayerCount: 2
Fore
SplineSet
226 -170 m 257
 226 -248 l 257
 786 -248 l 257
 786 -170 l 257
 226 -170 l 257
EndSplineSet
EndChar

StartChar: uni0900
Encoding: 2304 2304 356
GlifName: uni0900
Width: 2048
VWidth: 0
Flags: W
LayerCount: 2
Fore
SplineSet
0 1548 m 257
 0 1346 l 257
 2048 1346 l 257
 2048 1548 l 257
 0 1548 l 257
114 2124 m 257
 114 1639 l 257
 312 1639 l 257
 312 2124 l 257
 114 2124 l 257
160 2126 m 257
 160 1925 l 257
 1794 1925 l 257
 1794 2126 l 257
 160 2126 l 257
414 1865 m 257
 414 1665 l 257
 1614 1665 l 257
 1614 1865 l 257
 414 1865 l 257
1718 2127 m 257
 1718 1636 l 257
 1918 1636 l 257
 1918 2127 l 257
 1718 2127 l 257
EndSplineSet
EndChar

StartChar: uni0901
Encoding: 2305 2305 357
GlifName: uni0901
Width: 2048
VWidth: 0
Flags: W
LayerCount: 2
Fore
SplineSet
0 1548 m 257
 0 1348 l 257
 2051 1348 l 257
 2051 1548 l 257
 0 1548 l 257
154 2124 m 257
 154 1639 l 257
 354 1639 l 257
 354 2124 l 257
 154 2124 l 257
200 1842 m 257
 200 1641 l 257
 1834 1641 l 257
 1834 1842 l 257
 200 1842 l 257
456 2095 m 257
 456 1895 l 257
 1656 1895 l 257
 1656 2095 l 257
 456 2095 l 257
1758 2132 m 257
 1758 1641 l 257
 1958 1641 l 257
 1958 2132 l 257
 1758 2132 l 257
EndSplineSet
EndChar

StartChar: uni0902
Encoding: 2306 2306 358
GlifName: uni0902
Width: 2048
VWidth: 0
Flags: W
LayerCount: 2
Fore
SplineSet
93 1839 m 257
 93 1639 l 257
 293 1639 l 257
 293 1839 l 257
 93 1839 l 257
0 1548 m 257
 0 1347 l 257
 2050 1347 l 257
 2050 1548 l 257
 0 1548 l 257
EndSplineSet
EndChar

StartChar: uni0903
Encoding: 2307 2307 359
GlifName: uni0903
Width: 2048
VWidth: 0
Flags: W
LayerCount: 2
Fore
SplineSet
924 649 m 257
 924 449 l 257
 1124 449 l 257
 1124 649 l 257
 924 649 l 257
924 1317 m 257
 924 1117 l 257
 1124 1117 l 257
 1124 1317 l 257
 924 1317 l 257
EndSplineSet
EndChar

StartChar: uni0904
Encoding: 2308 2308 360
GlifName: uni0904
Width: 2048
VWidth: 0
Flags: W
LayerCount: 2
Fore
SplineSet
766 2155 m 257
 766 1836 l 257
 964 1836 l 257
 964 2155 l 257
 766 2155 l 257
764 1967 m 257
 764 1768 l 257
 1936 1768 l 257
 1936 1967 l 257
 764 1967 l 257
1736 1956 m 257
 1736 1516 l 257
 1938 1516 l 257
 1938 1956 l 257
 1736 1956 l 257
1704 1548 m 257
 1704 1348 l 257
 2051 1348 l 257
 2051 1548 l 257
 1704 1548 l 257
1764 1419 m 257
 1764 0 l 257
 1964 0 l 257
 1964 1419 l 257
 1764 1419 l 257
38 1548 m 257
 38 1348 l 257
 1072 1348 l 257
 1072 1548 l 257
 38 1548 l 257
898 1548 m 257
 898 140 l 257
 1098 140 l 257
 1098 1548 l 257
 898 1548 l 257
122 894 m 257
 122 693 l 257
 1818 693 l 257
 1818 894 l 257
 122 894 l 257
12 201 m 257
 12 0 l 257
 1098 0 l 257
 1098 201 l 257
 12 201 l 257
EndSplineSet
EndChar

StartChar: uni0905
Encoding: 2309 2309 361
GlifName: uni0905
Width: 2048
VWidth: 0
Flags: W
LayerCount: 2
Fore
SplineSet
1671 1548 m 257
 1671 1347 l 257
 2050 1347 l 257
 2050 1548 l 257
 1671 1548 l 257
1800 1419 m 257
 1800 0 l 257
 1998 0 l 257
 1998 1419 l 257
 1800 1419 l 257
38 1548 m 257
 38 1348 l 257
 1072 1348 l 257
 1072 1548 l 257
 38 1548 l 257
898 1548 m 257
 898 140 l 257
 1098 140 l 257
 1098 1548 l 257
 898 1548 l 257
122 894 m 257
 122 693 l 257
 1854 693 l 257
 1854 894 l 257
 122 894 l 257
12 201 m 257
 12 0 l 257
 1098 0 l 257
 1098 201 l 257
 12 201 l 257
EndSplineSet
EndChar

StartChar: uni0906
Encoding: 2310 2310 362
GlifName: uni0906
Width: 2048
VWidth: 0
Flags: W
LayerCount: 2
Fore
SplineSet
1328 1548 m 257
 1328 1348 l 257
 2050 1348 l 257
 2050 1548 l 257
 1328 1548 l 257
1344 1419 m 257
 1344 0 l 257
 1543 0 l 257
 1543 1419 l 257
 1344 1419 l 257
25 1548 m 257
 25 1348 l 257
 897 1348 l 257
 897 1548 l 257
 25 1548 l 257
723 1548 m 257
 723 140 l 257
 923 140 l 257
 923 1548 l 257
 723 1548 l 257
109 894 m 257
 109 693 l 257
 1443 693 l 257
 1443 894 l 257
 109 894 l 257
0 201 m 257
 0 0 l 257
 923 0 l 257
 923 201 l 257
 0 201 l 257
1762 1420 m 257
 1762 0 l 257
 1961 0 l 257
 1961 1420 l 257
 1762 1420 l 257
EndSplineSet
EndChar

StartChar: uni0907
Encoding: 2311 2311 363
GlifName: uni0907
Width: 2048
VWidth: 0
Flags: W
LayerCount: 2
Fore
SplineSet
-6 1548 m 257
 -6 1349 l 257
 2054 1349 l 257
 2054 1548 l 257
 -6 1548 l 257
1064 1537 m 257
 1064 1110 l 257
 1264 1110 l 257
 1264 1537 l 257
 1064 1537 l 257
171 1205 m 257
 171 1004 l 257
 1264 1004 l 257
 1264 1205 l 257
 171 1205 l 257
171 1181 m 257
 171 738 l 257
 341 738 l 257
 341 1181 l 257
 171 1181 l 257
171 881 m 257
 171 681 l 257
 1278 681 l 257
 1278 881 l 257
 171 881 l 257
1157 881 m 257
 1157 262 l 257
 1356 262 l 257
 1356 881 l 257
 1157 881 l 257
149 298 m 257
 149 97 l 257
 1356 97 l 257
 1356 298 l 257
 149 298 l 257
265 298 m 257
 265 -244 l 257
 465 -244 l 257
 465 298 l 257
 265 298 l 257
EndSplineSet
EndChar

StartChar: uni0908
Encoding: 2312 2312 364
GlifName: uni0908
Width: 2048
VWidth: 0
Flags: W
LayerCount: 2
Fore
SplineSet
-6 1556 m 257
 -6 1355 l 257
 2054 1355 l 257
 2054 1556 l 257
 -6 1556 l 257
1064 1553 m 257
 1064 1110 l 257
 1264 1110 l 257
 1264 1553 l 257
 1064 1553 l 257
171 1205 m 257
 171 1004 l 257
 1264 1004 l 257
 1264 1205 l 257
 171 1205 l 257
171 1181 m 257
 171 738 l 257
 371 738 l 257
 371 1181 l 257
 171 1181 l 257
171 881 m 257
 171 681 l 257
 1278 681 l 257
 1278 881 l 257
 171 881 l 257
1175 881 m 257
 1175 285 l 257
 1356 285 l 257
 1356 881 l 257
 1175 881 l 257
149 298 m 257
 149 97 l 257
 1359 97 l 257
 1359 298 l 257
 149 298 l 257
265 298 m 257
 265 -244 l 257
 488 -244 l 257
 488 298 l 257
 265 298 l 257
274 1770 m 257
 1033 1423 l 257
 1196 1537 l 257
 436 1886 l 257
 274 1770 l 257
EndSplineSet
EndChar

StartChar: uni0909
Encoding: 2313 2313 365
GlifName: uni0909
Width: 2048
VWidth: 0
Flags: W
LayerCount: 2
Fore
SplineSet
0 1548 m 257
 0 1348 l 257
 2050 1348 l 257
 2050 1548 l 257
 0 1548 l 257
894 1530 m 257
 894 1001 l 257
 1093 1001 l 257
 1093 1530 l 257
 894 1530 l 257
237 1044 m 257
 237 845 l 257
 1591 845 l 257
 1591 1044 l 257
 237 1044 l 257
1392 994 m 257
 1392 8 l 257
 1592 8 l 257
 1592 994 l 257
 1392 994 l 257
132 201 m 257
 132 0 l 257
 1581 0 l 257
 1581 201 l 257
 132 201 l 257
132 363 m 257
 132 36 l 257
 332 36 l 257
 332 363 l 257
 132 363 l 257
EndSplineSet
EndChar

StartChar: uni090A
Encoding: 2314 2314 366
GlifName: uni090A_
Width: 2048
VWidth: 0
Flags: W
LayerCount: 2
Fore
SplineSet
-6 1548 m 257
 -6 1347 l 257
 2055 1347 l 257
 2055 1548 l 257
 -6 1548 l 257
818 1530 m 257
 818 1001 l 257
 1016 1001 l 257
 1016 1530 l 257
 818 1530 l 257
148 1044 m 257
 148 845 l 257
 1872 845 l 257
 1872 1044 l 257
 148 1044 l 257
1184 994 m 257
 1184 11 l 257
 1384 11 l 257
 1384 994 l 257
 1184 994 l 257
44 204 m 257
 44 5 l 257
 1382 5 l 257
 1382 204 l 257
 44 204 l 257
44 366 m 257
 44 39 l 257
 244 39 l 257
 244 366 l 257
 44 366 l 257
1672 946 m 257
 1672 217 l 257
 1872 217 l 257
 1872 946 l 257
 1672 946 l 257
EndSplineSet
EndChar

StartChar: uni090B
Encoding: 2315 2315 367
GlifName: uni090B_
Width: 2048
VWidth: 0
Flags: W
LayerCount: 2
Fore
SplineSet
0 1548 m 257
 0 1347 l 257
 2053 1347 l 257
 2053 1548 l 257
 0 1548 l 257
1018 1537 m 257
 1018 0 l 257
 1217 0 l 257
 1217 1537 l 257
 1018 1537 l 257
28 1044 m 257
 28 845 l 257
 332 845 l 257
 332 1044 l 257
 28 1044 l 257
1017 496 m 257
 124 329 l 257
 206 136 l 257
 1099 303 l 257
 1017 496 l 257
332 1044 m 257
 332 846 l 257
 1114 742 l 257
 1114 944 l 257
 332 1044 l 257
1201 897 m 257
 1201 699 l 257
 2016 699 l 257
 2016 897 l 257
 1201 897 l 257
1694 897 m 257
 1694 262 l 257
 1893 262 l 257
 1893 897 l 257
 1694 897 l 257
1770 464 m 257
 1770 264 l 257
 2034 264 l 257
 2034 464 l 257
 1770 464 l 257
EndSplineSet
EndChar

StartChar: uni090C
Encoding: 2316 2316 368
GlifName: uni090C_
Width: 2048
VWidth: 0
Flags: W
LayerCount: 2
Fore
SplineSet
-8 1548 m 257
 -8 1348 l 257
 2056 1348 l 257
 2056 1548 l 257
 -8 1548 l 257
1065 1548 m 257
 1065 689 l 257
 1265 689 l 257
 1265 1548 l 257
 1065 1548 l 257
1764 791 m 257
 50 791 l 257
 50 590 l 257
 1764 590 l 257
 1764 791 l 257
50 777 m 257
 50 252 l 257
 251 252 l 257
 251 777 l 257
 50 777 l 257
701 791 m 257
 701 433 l 257
 902 433 l 257
 902 791 l 257
 701 791 l 257
1553 792 m 257
 1553 73 l 257
 1753 73 l 257
 1753 792 l 257
 1553 792 l 257
1628 259 m 257
 1628 71 l 257
 2054 71 l 257
 2054 259 l 257
 1628 259 l 257
EndSplineSet
EndChar

StartChar: uni090D
Encoding: 2317 2317 369
GlifName: uni090D_
Width: 2048
VWidth: 0
Flags: W
LayerCount: 2
Fore
SplineSet
-5 1548 m 257
 -5 1348 l 257
 2049 1348 l 257
 2049 1548 l 257
 -5 1548 l 257
1748 1548 m 257
 1748 779 l 257
 1947 779 l 257
 1947 1548 l 257
 1748 1548 l 257
1189 839 m 257
 1189 639 l 257
 1947 639 l 257
 1947 839 l 257
 1189 839 l 257
142 1542 m 257
 142 338 l 257
 341 338 l 257
 341 1542 l 257
 142 1542 l 257
142 496 m 257
 142 297 l 257
 1124 297 l 257
 1124 496 l 257
 142 496 l 257
925 358 m 257
 925 -98 l 257
 1124 -98 l 257
 1124 358 l 257
 925 358 l 257
387 101 m 257
 387 -98 l 257
 1122 -98 l 257
 1122 101 l 257
 387 101 l 257
157 2124 m 257
 157 1639 l 257
 356 1639 l 257
 356 2124 l 257
 157 2124 l 257
203 1840 m 257
 203 1641 l 257
 1816 1641 l 257
 1816 1840 l 257
 203 1840 l 257
1641 2132 m 257
 1641 1641 l 257
 1840 1641 l 257
 1840 2132 l 257
 1641 2132 l 257
EndSplineSet
EndChar

StartChar: uni090E
Encoding: 2318 2318 370
GlifName: uni090E_
Width: 2048
VWidth: 0
Flags: W
LayerCount: 2
Fore
SplineSet
-5 1548 m 257
 -5 1348 l 257
 2049 1348 l 257
 2049 1548 l 257
 -5 1548 l 257
1748 1548 m 257
 1748 645 l 257
 1947 645 l 257
 1947 1548 l 257
 1748 1548 l 257
1221 845 m 257
 1221 645 l 257
 1947 645 l 257
 1947 845 l 257
 1221 845 l 257
142 1542 m 257
 142 338 l 257
 341 338 l 257
 341 1542 l 257
 142 1542 l 257
142 358 m 257
 142 159 l 257
 1117 159 l 257
 1117 358 l 257
 142 358 l 257
923 358 m 257
 923 -98 l 257
 1124 -98 l 257
 1124 358 l 257
 923 358 l 257
387 -38 m 257
 387 -238 l 257
 1122 -238 l 257
 1122 -38 l 257
 387 -38 l 257
270 2062 m 257
 270 1823 l 257
 470 1823 l 257
 470 2062 l 257
 270 2062 l 257
269 1868 m 257
 269 1667 l 257
 1971 1667 l 257
 1971 1868 l 257
 269 1868 l 257
1769 1858 m 257
 1769 1537 l 257
 1971 1537 l 257
 1971 1858 l 257
 1769 1858 l 257
EndSplineSet
EndChar

StartChar: uni090F
Encoding: 2319 2319 371
GlifName: uni090F_
Width: 2048
VWidth: 0
Flags: W
LayerCount: 2
Fore
SplineSet
10 1548 m 257
 10 1348 l 257
 2038 1348 l 257
 2038 1548 l 257
 10 1548 l 257
1736 1548 m 257
 1736 782 l 257
 1936 782 l 257
 1936 1548 l 257
 1736 1548 l 257
1642 979 m 257
 1642 779 l 257
 1936 779 l 257
 1936 979 l 257
 1642 979 l 257
150 1542 m 257
 150 338 l 257
 350 338 l 257
 350 1542 l 257
 150 1542 l 257
150 497 m 257
 150 297 l 257
 1250 297 l 257
 1250 497 l 257
 150 497 l 257
1056 473 m 257
 1056 -98 l 257
 1256 -98 l 257
 1256 473 l 257
 1056 473 l 257
394 102 m 257
 394 -98 l 257
 1254 -98 l 257
 1254 102 l 257
 394 102 l 257
EndSplineSet
EndChar

StartChar: uni0910
Encoding: 2320 2320 372
GlifName: uni0910
Width: 2048
VWidth: 0
Flags: W
LayerCount: 2
Fore
SplineSet
0 1548 m 257
 0 1348 l 257
 2046 1348 l 257
 2046 1548 l 257
 0 1548 l 257
1744 1548 m 257
 1744 779 l 257
 1944 779 l 257
 1944 1548 l 257
 1744 1548 l 257
1652 979 m 257
 1652 779 l 257
 1944 779 l 257
 1944 979 l 257
 1652 979 l 257
136 1542 m 257
 136 338 l 257
 336 338 l 257
 336 1542 l 257
 136 1542 l 257
136 497 m 257
 136 297 l 257
 1236 297 l 257
 1236 497 l 257
 136 497 l 257
1044 473 m 257
 1044 -98 l 257
 1244 -98 l 257
 1244 473 l 257
 1044 473 l 257
382 102 m 257
 382 -98 l 257
 1242 -98 l 257
 1242 102 l 257
 382 102 l 257
440 1883 m 257
 1778 1433 l 257
 1942 1548 l 257
 604 1998 l 257
 440 1883 l 257
EndSplineSet
EndChar

StartChar: uni0911
Encoding: 2321 2321 373
GlifName: uni0911
Width: 2048
VWidth: 0
Flags: W
LayerCount: 2
Fore
SplineSet
1331 1548 m 257
 1331 1348 l 257
 2048 1348 l 257
 2048 1548 l 257
 1331 1548 l 257
1344 1419 m 257
 1344 0 l 257
 1544 0 l 257
 1544 1419 l 257
 1344 1419 l 257
26 1548 m 257
 26 1348 l 257
 898 1348 l 257
 898 1548 l 257
 26 1548 l 257
724 1548 m 257
 724 140 l 257
 924 140 l 257
 924 1548 l 257
 724 1548 l 257
110 894 m 257
 110 693 l 257
 1444 693 l 257
 1444 894 l 257
 110 894 l 257
0 201 m 257
 0 0 l 257
 924 0 l 257
 924 201 l 257
 0 201 l 257
1836 1420 m 257
 1836 0 l 257
 2034 0 l 257
 2034 1420 l 257
 1836 1420 l 257
1326 2085 m 257
 1326 1639 l 257
 1526 1639 l 257
 1526 2085 l 257
 1326 2085 l 257
1332 1842 m 257
 1332 1641 l 257
 2048 1641 l 257
 2048 1842 l 257
 1332 1842 l 257
1848 2083 m 257
 1848 1641 l 257
 2048 1641 l 257
 2048 2083 l 257
 1848 2083 l 257
EndSplineSet
EndChar

StartChar: uni0912
Encoding: 2322 2322 374
GlifName: uni0912
Width: 2048
VWidth: 0
Flags: W
LayerCount: 2
Fore
SplineSet
1328 1548 m 257
 1328 1348 l 257
 2048 1348 l 257
 2048 1548 l 257
 1328 1548 l 257
1349 1419 m 257
 1349 0 l 257
 1548 0 l 257
 1548 1419 l 257
 1349 1419 l 257
25 1548 m 257
 25 1348 l 257
 897 1348 l 257
 897 1548 l 257
 25 1548 l 257
723 1548 m 257
 723 140 l 257
 923 140 l 257
 923 1548 l 257
 723 1548 l 257
109 894 m 257
 109 693 l 257
 1443 693 l 257
 1443 894 l 257
 109 894 l 257
0 201 m 257
 0 0 l 257
 923 0 l 257
 923 201 l 257
 0 201 l 257
1843 1420 m 257
 1843 0 l 257
 2042 0 l 257
 2042 1420 l 257
 1843 1420 l 257
1066 2155 m 257
 1066 1836 l 257
 1264 1836 l 257
 1264 2155 l 257
 1066 2155 l 257
1065 1967 m 257
 1065 1768 l 257
 1980 1768 l 257
 1980 1967 l 257
 1065 1967 l 257
1781 1956 m 257
 1781 1516 l 257
 1982 1516 l 257
 1982 1956 l 257
 1781 1956 l 257
EndSplineSet
EndChar

StartChar: uni0913
Encoding: 2323 2323 375
GlifName: uni0913
Width: 2048
VWidth: 0
Flags: W
LayerCount: 2
Fore
SplineSet
1344 1548 m 257
 1344 1348 l 257
 2032 1348 l 257
 2032 1548 l 257
 1344 1548 l 257
1360 1419 m 257
 1360 0 l 257
 1559 0 l 257
 1559 1419 l 257
 1360 1419 l 257
41 1548 m 257
 41 1348 l 257
 901 1348 l 257
 901 1548 l 257
 41 1548 l 257
727 1548 m 257
 727 140 l 257
 927 140 l 257
 927 1548 l 257
 727 1548 l 257
125 894 m 257
 125 693 l 257
 1459 693 l 257
 1459 894 l 257
 125 894 l 257
16 201 m 257
 16 0 l 257
 927 0 l 257
 927 201 l 257
 16 201 l 257
1827 1423 m 257
 1827 5 l 257
 2026 5 l 257
 2026 1423 l 257
 1827 1423 l 257
1455 1768 m 257
 1816 1458 l 257
 1994 1548 l 257
 1632 1861 l 257
 1455 1768 l 257
EndSplineSet
EndChar

StartChar: uni0914
Encoding: 2324 2324 376
GlifName: uni0914
Width: 2048
VWidth: 0
Flags: W
LayerCount: 2
Fore
SplineSet
1344 1548 m 257
 1344 1343 l 257
 2032 1343 l 257
 2032 1548 l 257
 1344 1548 l 257
1360 1419 m 257
 1360 0 l 257
 1559 0 l 257
 1559 1419 l 257
 1360 1419 l 257
41 1548 m 257
 41 1348 l 257
 901 1348 l 257
 901 1548 l 257
 41 1548 l 257
727 1548 m 257
 727 140 l 257
 927 140 l 257
 927 1548 l 257
 727 1548 l 257
125 894 m 257
 125 693 l 257
 1459 693 l 257
 1459 894 l 257
 125 894 l 257
16 201 m 257
 16 0 l 257
 927 0 l 257
 927 201 l 257
 16 201 l 257
1827 1420 m 257
 1827 0 l 257
 2026 0 l 257
 2026 1420 l 257
 1827 1420 l 257
1155 1750 m 257
 1435 1523 l 257
 1766 1523 l 257
 1291 1903 l 257
 1155 1750 l 257
1744 1949 m 257
 1807 1522 l 257
 2019 1548 l 257
 1941 1988 l 257
 1744 1949 l 257
EndSplineSet
EndChar

StartChar: uni0915
Encoding: 2325 2325 377
GlifName: uni0915
Width: 2048
VWidth: 0
Flags: W
LayerCount: 2
Fore
SplineSet
5 1548 m 257
 5 1343 l 257
 2043 1343 l 257
 2043 1548 l 257
 5 1548 l 257
1108 1516 m 257
 1108 10 l 257
 1310 10 l 257
 1310 1516 l 257
 1108 1516 l 257
137 1029 m 257
 137 829 l 257
 1024 829 l 257
 1024 1029 l 257
 137 1029 l 257
137 1029 m 257
 137 408 l 257
 303 408 l 257
 303 1029 l 257
 137 1029 l 257
155 604 m 257
 155 401 l 257
 1162 401 l 257
 1162 604 l 257
 155 604 l 257
1214 947 m 257
 1214 746 l 257
 1950 746 l 257
 1950 947 l 257
 1214 947 l 257
1751 879 m 257
 1751 587 l 257
 1950 587 l 257
 1950 879 l 257
 1751 879 l 257
EndSplineSet
EndChar

StartChar: uni0915_uni0930_uni094D.vatu
Encoding: 65537 -1 378
GlifName: uni0915_uni0930_uni094D_.vatu
Width: 2048
VWidth: 0
Flags: W
LayerCount: 2
Fore
SplineSet
5 1548 m 257
 5 1343 l 257
 2043 1343 l 257
 2043 1548 l 257
 5 1548 l 257
1108 1516 m 257
 1108 10 l 257
 1310 10 l 257
 1310 1516 l 257
 1108 1516 l 257
137 1029 m 257
 137 829 l 257
 1015 829 l 257
 1015 1029 l 257
 137 1029 l 257
137 989 m 257
 137 443 l 257
 303 443 l 257
 303 989 l 257
 137 989 l 257
132 604 m 257
 132 401 l 257
 1162 401 l 257
 1162 604 l 257
 132 604 l 257
1214 947 m 257
 1214 746 l 257
 1950 746 l 257
 1950 947 l 257
 1214 947 l 257
1751 879 m 257
 1751 587 l 257
 1950 587 l 257
 1950 879 l 257
 1751 879 l 257
52 0 m 257
 476 0 l 257
 1274 134 l 257
 1274 335 l 257
 52 0 l 257
EndSplineSet
EndChar

StartChar: uni0915_uni094D.half
Encoding: 65538 -1 379
GlifName: uni0915_uni094D_.half
Width: 2048
VWidth: 0
Flags: W
LayerCount: 2
Fore
SplineSet
5 1548 m 257
 5 1343 l 257
 2043 1343 l 257
 2043 1548 l 257
 5 1548 l 257
1108 1516 m 257
 1108 10 l 257
 1310 10 l 257
 1310 1516 l 257
 1108 1516 l 257
137 1029 m 257
 137 829 l 257
 1014 829 l 257
 1014 1029 l 257
 137 1029 l 257
137 989 m 257
 137 443 l 257
 303 443 l 257
 303 989 l 257
 137 989 l 257
155 604 m 257
 155 401 l 257
 1162 401 l 257
 1162 604 l 257
 155 604 l 257
1202 947 m 257
 1202 746 l 257
 2090 746 l 257
 2090 947 l 257
 1202 947 l 257
EndSplineSet
EndChar

StartChar: uni0915_uni094D_uni0937.akhn
Encoding: 65540 -1 381
GlifName: uni0915_uni094D__uni0937.akhn
Width: 2048
VWidth: 0
Flags: W
LayerCount: 2
Fore
SplineSet
1689 1548 m 257
 1689 1351 l 257
 2048 1351 l 257
 2048 1548 l 257
 1689 1548 l 257
1746 1511 m 257
 1746 0 l 257
 1945 0 l 257
 1945 1511 l 257
 1746 1511 l 257
48 1078 m 257
 48 878 l 257
 1945 878 l 257
 1945 1078 l 257
 48 1078 l 257
47 1023 m 257
 248 1023 l 257
 248 1422 l 257
 47 1422 l 257
 47 1023 l 257
48 1435 m 257
 48 1235 l 257
 1079 1235 l 257
 1079 1435 l 257
 48 1435 l 257
880 1422 m 257
 880 882 l 257
 1078 882 l 257
 1078 1422 l 257
 880 1422 l 257
158 635 m 257
 355 635 l 257
 1077 880 l 257
 879 880 l 257
 158 635 l 257
158 635 m 257
 158 200 l 257
 357 200 l 257
 357 635 l 257
 158 635 l 257
158 367 m 257
 158 166 l 257
 1906 166 l 257
 1906 367 l 257
 158 367 l 257
EndSplineSet
EndChar

StartChar: uni0915_uni094D_uni0937.half
Encoding: 65541 -1 382
GlifName: uni0915_uni094D__uni0937.half
Width: 2048
VWidth: 0
Flags: W
LayerCount: 2
Fore
SplineSet
1689 1548 m 257
 1689 1351 l 257
 2048 1351 l 257
 2048 1548 l 257
 1689 1548 l 257
48 1078 m 257
 48 878 l 257
 2065 878 l 257
 2065 1078 l 257
 48 1078 l 257
47 1023 m 257
 248 1023 l 257
 248 1422 l 257
 47 1422 l 257
 47 1023 l 257
48 1435 m 257
 48 1235 l 257
 1079 1235 l 257
 1079 1435 l 257
 48 1435 l 257
880 1422 m 257
 880 882 l 257
 1078 882 l 257
 1078 1422 l 257
 880 1422 l 257
158 635 m 257
 355 635 l 257
 1077 880 l 257
 879 880 l 257
 158 635 l 257
158 635 m 257
 158 200 l 257
 357 200 l 257
 357 635 l 257
 158 635 l 257
158 367 m 257
 158 166 l 257
 2026 166 l 257
 2026 367 l 257
 158 367 l 257
EndSplineSet
EndChar

StartChar: uni0916
Encoding: 2326 2326 384
GlifName: uni0916
Width: 2048
VWidth: 0
Flags: W
LayerCount: 2
Fore
SplineSet
0 1548 m 257
 0 1349 l 257
 2052 1349 l 257
 2052 1548 l 257
 0 1548 l 257
1720 1514 m 257
 1720 0 l 257
 1920 0 l 257
 1920 1514 l 257
 1720 1514 l 257
1033 979 m 257
 1033 779 l 257
 1461 779 l 257
 1461 979 l 257
 1033 979 l 257
1003 979 m 257
 1003 457 l 257
 1203 457 l 257
 1203 979 l 257
 1003 979 l 257
1003 568 m 257
 1003 368 l 257
 1772 368 l 257
 1772 568 l 257
 1003 568 l 257
318 1441 m 257
 318 120 l 257
 518 120 l 257
 518 1441 l 257
 318 1441 l 257
13 734 m 257
 13 534 l 257
 517 534 l 257
 517 734 l 257
 13 734 l 257
317 270 m 257
 317 70 l 257
 1857 70 l 257
 1857 270 l 257
 317 270 l 257
EndSplineSet
EndChar

StartChar: uni0916_uni0930_uni094D.vatu
Encoding: 65543 -1 385
GlifName: uni0916_uni0930_uni094D_.vatu
Width: 2048
VWidth: 0
Flags: W
LayerCount: 2
Fore
SplineSet
52 0 m 257
 476 0 l 257
 1778 215 l 257
 1778 416 l 257
 52 0 l 257
0 1548 m 257
 0 1349 l 257
 2052 1349 l 257
 2052 1548 l 257
 0 1548 l 257
1720 1514 m 257
 1720 0 l 257
 1920 0 l 257
 1920 1514 l 257
 1720 1514 l 257
1033 1279 m 257
 1033 1079 l 257
 1461 1079 l 257
 1461 1279 l 257
 1033 1279 l 257
1003 1279 m 257
 1003 757 l 257
 1203 757 l 257
 1203 1279 l 257
 1003 1279 l 257
1003 868 m 257
 1003 668 l 257
 1772 668 l 257
 1772 868 l 257
 1003 868 l 257
318 1441 m 257
 318 420 l 257
 518 420 l 257
 518 1441 l 257
 318 1441 l 257
13 1034 m 257
 13 834 l 257
 517 834 l 257
 517 1034 l 257
 13 1034 l 257
317 570 m 257
 317 370 l 257
 1857 370 l 257
 1857 570 l 257
 317 570 l 257
EndSplineSet
EndChar

StartChar: uni0916_uni094D.half
Encoding: 65544 -1 386
GlifName: uni0916_uni094D_.half
Width: 2048
VWidth: 0
Flags: W
LayerCount: 2
Fore
SplineSet
0 1548 m 257
 0 1349 l 257
 2052 1349 l 257
 2052 1548 l 257
 0 1548 l 257
1033 979 m 257
 1033 779 l 257
 1461 779 l 257
 1461 979 l 257
 1033 979 l 257
1003 979 m 257
 1003 457 l 257
 1203 457 l 257
 1203 979 l 257
 1003 979 l 257
1003 568 m 257
 1003 368 l 257
 1972 368 l 257
 1972 568 l 257
 1003 568 l 257
318 1441 m 257
 318 120 l 257
 518 120 l 257
 518 1441 l 257
 318 1441 l 257
13 734 m 257
 13 534 l 257
 517 534 l 257
 517 734 l 257
 13 734 l 257
317 270 m 257
 317 70 l 257
 2057 70 l 257
 2057 270 l 257
 317 270 l 257
EndSplineSet
EndChar

StartChar: uni0917
Encoding: 2327 2327 388
GlifName: uni0917
Width: 2048
VWidth: 0
Flags: W
LayerCount: 2
Fore
SplineSet
51 853 m 257
 250 853 l 257
 250 1044 l 257
 51 1044 l 257
 51 853 l 257
51 882 m 257
 51 683 l 257
 1039 683 l 257
 1039 882 l 257
 51 882 l 257
840 1548 m 257
 840 812 l 257
 1039 812 l 257
 1039 1548 l 257
 840 1548 l 257
1997 1548 m 257
 210 1548 l 257
 210 1348 l 257
 1997 1348 l 257
 1997 1548 l 257
1717 1523 m 257
 1717 0 l 257
 1916 0 l 257
 1916 1523 l 257
 1717 1523 l 257
EndSplineSet
EndChar

StartChar: uni0917_uni0930_uni094D.vatu
Encoding: 65546 -1 389
GlifName: uni0917_uni0930_uni094D_.vatu
Width: 2048
VWidth: 0
Flags: W
LayerCount: 2
Fore
SplineSet
52 0 m 257
 476 0 l 257
 1778 215 l 257
 1778 416 l 257
 52 0 l 257
51 853 m 257
 250 853 l 257
 250 1044 l 257
 51 1044 l 257
 51 853 l 257
51 882 m 257
 51 683 l 257
 1039 683 l 257
 1039 882 l 257
 51 882 l 257
840 1548 m 257
 840 812 l 257
 1039 812 l 257
 1039 1548 l 257
 840 1548 l 257
1997 1548 m 257
 210 1548 l 257
 210 1348 l 257
 1997 1348 l 257
 1997 1548 l 257
1717 1523 m 257
 1717 0 l 257
 1916 0 l 257
 1916 1523 l 257
 1717 1523 l 257
EndSplineSet
EndChar

StartChar: uni0917_uni094D.half
Encoding: 65547 -1 390
GlifName: uni0917_uni094D_.half
Width: 2048
VWidth: 0
Flags: W
LayerCount: 2
Fore
SplineSet
51 853 m 257
 250 853 l 257
 250 1044 l 257
 51 1044 l 257
 51 853 l 257
51 882 m 257
 51 683 l 257
 1039 683 l 257
 1039 882 l 257
 51 882 l 257
840 1548 m 257
 840 812 l 257
 1039 812 l 257
 1039 1548 l 257
 840 1548 l 257
2097 1548 m 257
 210 1548 l 257
 210 1348 l 257
 2097 1348 l 257
 2097 1548 l 257
EndSplineSet
EndChar

StartChar: uni0918
Encoding: 2328 2328 392
GlifName: uni0918
Width: 2048
VWidth: 0
Flags: W
LayerCount: 2
Fore
SplineSet
0 1554 m 257
 0 1354 l 257
 2048 1354 l 257
 2048 1554 l 257
 0 1554 l 257
1726 1522 m 257
 1726 13 l 257
 1926 13 l 257
 1926 1522 l 257
 1726 1522 l 257
172 1515 m 257
 172 883 l 257
 372 883 l 257
 372 1515 l 257
 172 1515 l 257
266 917 m 257
 266 717 l 257
 1022 717 l 257
 1022 917 l 257
 266 917 l 257
178 469 m 257
 178 269 l 257
 1902 269 l 257
 1902 469 l 257
 178 469 l 257
172 269 m 257
 372 269 l 257
 372 764 l 257
 172 764 l 257
 172 269 l 257
EndSplineSet
EndChar

StartChar: uni0918_uni0930_uni094D.vatu
Encoding: 65549 -1 393
GlifName: uni0918_uni0930_uni094D_.vatu
Width: 2048
VWidth: 0
Flags: W
LayerCount: 2
Fore
SplineSet
52 0 m 257
 476 0 l 257
 1778 215 l 257
 1778 416 l 257
 52 0 l 257
0 1554 m 257
 0 1354 l 257
 2048 1354 l 257
 2048 1554 l 257
 0 1554 l 257
1726 1522 m 257
 1726 13 l 257
 1926 13 l 257
 1926 1522 l 257
 1726 1522 l 257
172 1515 m 257
 172 1083 l 257
 372 1083 l 257
 372 1515 l 257
 172 1515 l 257
266 1117 m 257
 266 917 l 257
 1022 917 l 257
 1022 1117 l 257
 266 1117 l 257
178 669 m 257
 178 469 l 257
 1902 469 l 257
 1902 669 l 257
 178 669 l 257
172 469 m 257
 372 469 l 257
 372 964 l 257
 172 964 l 257
 172 469 l 257
EndSplineSet
EndChar

StartChar: uni0918_uni094D.half
Encoding: 65550 -1 394
GlifName: uni0918_uni094D_.half
Width: 2048
VWidth: 0
Flags: W
LayerCount: 2
Fore
SplineSet
0 1554 m 257
 0 1354 l 257
 2048 1354 l 257
 2048 1554 l 257
 0 1554 l 257
172 1515 m 257
 172 883 l 257
 372 883 l 257
 372 1515 l 257
 172 1515 l 257
266 917 m 257
 266 717 l 257
 1022 717 l 257
 1022 917 l 257
 266 917 l 257
178 469 m 257
 178 269 l 257
 2102 269 l 257
 2102 469 l 257
 178 469 l 257
172 269 m 257
 372 269 l 257
 372 764 l 257
 172 764 l 257
 172 269 l 257
EndSplineSet
EndChar

StartChar: uni0919
Encoding: 2329 2329 396
GlifName: uni0919
Width: 2048
VWidth: 0
Flags: W
LayerCount: 2
Fore
SplineSet
0 1554 m 257
 0 1354 l 257
 2050 1354 l 257
 2050 1554 l 257
 0 1554 l 257
1023 1543 m 257
 1023 1023 l 257
 1223 1023 l 257
 1223 1543 l 257
 1023 1543 l 257
1214 1226 m 257
 228 1226 l 257
 228 1023 l 257
 1214 1023 l 257
 1214 1226 l 257
227 1083 m 257
 227 629 l 257
 432 629 l 257
 432 1083 l 257
 227 1083 l 257
227 820 m 257
 227 620 l 257
 1300 620 l 257
 1300 820 l 257
 227 820 l 257
1100 680 m 257
 1100 29 l 257
 1300 29 l 257
 1300 680 l 257
 1100 680 l 257
114 201 m 257
 114 0 l 257
 1301 0 l 257
 1301 201 l 257
 114 201 l 257
114 423 m 257
 114 8 l 257
 315 8 l 257
 315 423 l 257
 114 423 l 257
1327 1037 m 257
 1327 890 l 257
 1484 890 l 257
 1484 1037 l 257
 1327 1037 l 257
EndSplineSet
EndChar

StartChar: uni0919_uni0930_uni094D.vatu
Encoding: 65552 -1 397
GlifName: uni0919_uni0930_uni094D_.vatu
Width: 2048
VWidth: 0
Flags: W
LayerCount: 2
Fore
SplineSet
929 90 m 257
 1153 -290 l 257
 1435 -290 l 257
 1051 259 l 257
 929 90 l 257
1051 259 m 257
 644 -299 l 257
 865 -299 l 257
 1166 94 l 257
 1051 259 l 257
0 1554 m 257
 0 1354 l 257
 2050 1354 l 257
 2050 1554 l 257
 0 1554 l 257
1023 1543 m 257
 1023 1126 l 257
 1223 1126 l 257
 1223 1543 l 257
 1023 1543 l 257
1214 1326 m 257
 228 1326 l 257
 228 1126 l 257
 1214 1126 l 257
 1214 1326 l 257
227 1183 m 257
 227 829 l 257
 432 829 l 257
 432 1183 l 257
 227 1183 l 257
227 1023 m 257
 227 820 l 257
 1300 820 l 257
 1300 1023 l 257
 227 1023 l 257
1100 880 m 257
 1100 329 l 257
 1300 329 l 257
 1300 880 l 257
 1100 880 l 257
114 501 m 257
 114 300 l 257
 1301 300 l 257
 1301 501 l 257
 114 501 l 257
114 723 m 257
 114 308 l 257
 315 308 l 257
 315 723 l 257
 114 723 l 257
1353 1171 m 257
 1353 1023 l 257
 1510 1023 l 257
 1510 1171 l 257
 1353 1171 l 257
EndSplineSet
EndChar

StartChar: uni0919_uni094D.half
Encoding: 65553 -1 398
GlifName: uni0919_uni094D_.half
Width: 2048
VWidth: 0
Flags: W
LayerCount: 2
Fore
SplineSet
0 1554 m 257
 0 1354 l 257
 2050 1354 l 257
 2050 1554 l 257
 0 1554 l 257
1023 1543 m 257
 1023 1023 l 257
 1223 1023 l 257
 1223 1543 l 257
 1023 1543 l 257
1214 1226 m 257
 228 1226 l 257
 228 1023 l 257
 1214 1023 l 257
 1214 1226 l 257
227 1083 m 257
 227 729 l 257
 432 729 l 257
 432 1083 l 257
 227 1083 l 257
227 920 m 257
 227 720 l 257
 1300 720 l 257
 1300 920 l 257
 227 920 l 257
1100 780 m 257
 1100 129 l 257
 1300 129 l 257
 1300 780 l 257
 1100 780 l 257
114 301 m 257
 114 100 l 257
 1301 100 l 257
 1301 301 l 257
 114 301 l 257
114 523 m 257
 114 108 l 257
 315 108 l 257
 315 523 l 257
 114 523 l 257
1327 1037 m 257
 1327 890 l 257
 1484 890 l 257
 1484 1037 l 257
 1327 1037 l 257
1095 78 m 257
 1095 -118 l 257
 1452 -118 l 257
 1452 78 l 257
 1095 78 l 257
1311 -83 m 257
 1781 -488 l 257
 1925 -325 l 257
 1454 79 l 257
 1311 -83 l 257
EndSplineSet
EndChar

StartChar: uni091A
Encoding: 2330 2330 400
GlifName: uni091A_
Width: 2048
VWidth: 0
Flags: W
LayerCount: 2
Fore
SplineSet
0 1556 m 257
 0 1356 l 257
 2048 1356 l 257
 2048 1556 l 257
 0 1556 l 257
1662 1553 m 257
 1662 0 l 257
 1862 0 l 257
 1862 1553 l 257
 1662 1553 l 257
1829 280 m 257
 1829 480 l 257
 808 480 l 257
 808 280 l 257
 1829 280 l 257
808 837 m 257
 808 421 l 257
 1008 421 l 257
 1008 837 l 257
 808 837 l 257
72 991 m 257
 72 791 l 257
 1080 791 l 257
 1080 991 l 257
 72 991 l 257
EndSplineSet
EndChar

StartChar: uni091A_uni0930_uni094D.vatu
Encoding: 65555 -1 401
GlifName: uni091A__uni0930_uni094D_.vatu
Width: 2048
VWidth: 0
Flags: W
LayerCount: 2
Fore
SplineSet
52 0 m 257
 476 0 l 257
 1778 215 l 257
 1778 416 l 257
 52 0 l 257
0 1556 m 257
 0 1356 l 257
 2048 1356 l 257
 2048 1556 l 257
 0 1556 l 257
1662 1553 m 257
 1662 0 l 257
 1862 0 l 257
 1862 1553 l 257
 1662 1553 l 257
1829 480 m 257
 1829 680 l 257
 808 680 l 257
 808 480 l 257
 1829 480 l 257
808 1037 m 257
 808 621 l 257
 1008 621 l 257
 1008 1037 l 257
 808 1037 l 257
72 1191 m 257
 72 991 l 257
 1080 991 l 257
 1080 1191 l 257
 72 1191 l 257
EndSplineSet
EndChar

StartChar: uni091A_uni094D.half
Encoding: 65556 -1 402
GlifName: uni091A__uni094D_.half
Width: 2048
VWidth: 0
Flags: W
LayerCount: 2
Fore
SplineSet
0 1556 m 257
 0 1356 l 257
 2048 1356 l 257
 2048 1556 l 257
 0 1556 l 257
2129 280 m 257
 2129 480 l 257
 1108 480 l 257
 1108 280 l 257
 2129 280 l 257
1108 837 m 257
 1108 421 l 257
 1308 421 l 257
 1308 837 l 257
 1108 837 l 257
372 991 m 257
 372 791 l 257
 1380 791 l 257
 1380 991 l 257
 372 991 l 257
EndSplineSet
EndChar

StartChar: uni091B
Encoding: 2331 2331 404
GlifName: uni091B_
Width: 2048
VWidth: 0
Flags: W
LayerCount: 2
Fore
SplineSet
0 1555 m 257
 0 1355 l 257
 2051 1355 l 257
 2051 1555 l 257
 0 1555 l 257
1236 1130 m 257
 95 1130 l 257
 95 931 l 257
 1236 931 l 257
 1236 1130 l 257
92 1130 m 257
 92 584 l 257
 292 584 l 257
 292 1130 l 257
 92 1130 l 257
170 639 m 257
 170 439 l 257
 820 439 l 257
 820 639 l 257
 170 639 l 257
87 493 m 257
 87 0 l 257
 287 0 l 257
 287 493 l 257
 87 493 l 257
87 199 m 257
 87 0 l 257
 1522 0 l 257
 1522 199 l 257
 87 199 l 257
1321 6 m 257
 1522 6 l 257
 1522 1515 l 257
 1321 1515 l 257
 1321 6 l 257
1462 1007 m 257
 1462 808 l 257
 2032 808 l 257
 2032 1007 l 257
 1462 1007 l 257
1831 868 m 257
 1831 471 l 257
 2032 471 l 257
 2032 868 l 257
 1831 868 l 257
EndSplineSet
EndChar

StartChar: uni091B_uni0930_uni094D.vatu
Encoding: 65558 -1 405
GlifName: uni091B__uni0930_uni094D_.vatu
Width: 2048
VWidth: 0
Flags: W
LayerCount: 2
Fore
SplineSet
536 0 m 257
 960 0 l 257
 1525 70 l 257
 1525 271 l 257
 536 0 l 257
0 1555 m 257
 0 1355 l 257
 2051 1355 l 257
 2051 1555 l 257
 0 1555 l 257
1236 1258 m 257
 95 1258 l 257
 95 1072 l 257
 1236 1072 l 257
 1236 1258 l 257
92 1264 m 257
 92 815 l 257
 292 815 l 257
 292 1264 l 257
 92 1264 l 257
170 870 m 257
 170 670 l 257
 820 670 l 257
 820 870 l 257
 170 870 l 257
87 724 m 257
 87 231 l 257
 287 231 l 257
 287 724 l 257
 87 724 l 257
87 430 m 257
 87 231 l 257
 1522 231 l 257
 1522 430 l 257
 87 430 l 257
1321 6 m 257
 1522 6 l 257
 1522 1515 l 257
 1321 1515 l 257
 1321 6 l 257
1462 1104 m 257
 1462 905 l 257
 2032 905 l 257
 2032 1104 l 257
 1462 1104 l 257
1831 965 m 257
 1831 568 l 257
 2032 568 l 257
 2032 965 l 257
 1831 965 l 257
EndSplineSet
EndChar

StartChar: uni091B_uni094D.half
Encoding: 65559 -1 406
GlifName: uni091B__uni094D_.half
Width: 2048
VWidth: 0
Flags: W
LayerCount: 2
Fore
SplineSet
0 1555 m 257
 0 1355 l 257
 2051 1355 l 257
 2051 1555 l 257
 0 1555 l 257
1836 1130 m 257
 695 1130 l 257
 695 931 l 257
 1836 931 l 257
 1836 1130 l 257
692 1130 m 257
 692 584 l 257
 892 584 l 257
 892 1130 l 257
 692 1130 l 257
770 639 m 257
 770 439 l 257
 1420 439 l 257
 1420 639 l 257
 770 639 l 257
687 493 m 257
 687 0 l 257
 887 0 l 257
 887 493 l 257
 687 493 l 257
687 199 m 257
 687 0 l 257
 2122 0 l 257
 2122 199 l 257
 687 199 l 257
EndSplineSet
EndChar

StartChar: uni091C
Encoding: 2332 2332 408
GlifName: uni091C_
Width: 2048
VWidth: 0
Flags: W
LayerCount: 2
Fore
SplineSet
-17 1548 m 257
 -17 1350 l 257
 2065 1350 l 257
 2065 1548 l 257
 -17 1548 l 257
1719 1548 m 257
 1719 -12 l 257
 1918 -12 l 257
 1918 1548 l 257
 1719 1548 l 257
926 860 m 257
 926 663 l 257
 1852 663 l 257
 1852 860 l 257
 926 860 l 257
880 860 m 257
 880 413 l 257
 1080 413 l 257
 1080 860 l 257
 880 860 l 257
58 567 m 257
 58 367 l 257
 1080 367 l 257
 1080 567 l 257
 58 567 l 257
58 855 m 257
 58 509 l 257
 258 509 l 257
 258 855 l 257
 58 855 l 257
EndSplineSet
EndChar

StartChar: uni091C_uni0930_uni094D.vatu
Encoding: 65561 -1 409
GlifName: uni091C__uni0930_uni094D_.vatu
Width: 2048
VWidth: 0
Flags: W
LayerCount: 2
Fore
SplineSet
52 0 m 257
 476 0 l 257
 1778 215 l 257
 1778 416 l 257
 52 0 l 257
-17 1548 m 257
 -17 1350 l 257
 2065 1350 l 257
 2065 1548 l 257
 -17 1548 l 257
1719 1548 m 257
 1719 -12 l 257
 1918 -12 l 257
 1918 1548 l 257
 1719 1548 l 257
926 860 m 257
 926 663 l 257
 1852 663 l 257
 1852 860 l 257
 926 860 l 257
880 860 m 257
 880 413 l 257
 1080 413 l 257
 1080 860 l 257
 880 860 l 257
58 567 m 257
 58 367 l 257
 1080 367 l 257
 1080 567 l 257
 58 567 l 257
58 855 m 257
 58 509 l 257
 258 509 l 257
 258 855 l 257
 58 855 l 257
EndSplineSet
EndChar

StartChar: uni091C_uni094D.half
Encoding: 65562 -1 410
GlifName: uni091C__uni094D_.half
Width: 2048
VWidth: 0
Flags: W
LayerCount: 2
Fore
SplineSet
-17 1548 m 257
 -17 1350 l 257
 2065 1350 l 257
 2065 1548 l 257
 -17 1548 l 257
1226 860 m 257
 1226 663 l 257
 2152 663 l 257
 2152 860 l 257
 1226 860 l 257
1180 860 m 257
 1180 413 l 257
 1380 413 l 257
 1380 860 l 257
 1180 860 l 257
358 567 m 257
 358 367 l 257
 1380 367 l 257
 1380 567 l 257
 358 567 l 257
358 855 m 257
 358 509 l 257
 558 509 l 257
 558 855 l 257
 358 855 l 257
EndSplineSet
EndChar

StartChar: uni091C_uni094D_uni091E.akhn
Encoding: 65564 -1 412
GlifName: uni091C__uni094D__uni091E_.akhn
Width: 2048
VWidth: 0
Flags: W
LayerCount: 2
Fore
SplineSet
-34 1548 m 257
 -34 1350 l 257
 2048 1350 l 257
 2048 1548 l 257
 -34 1548 l 257
1702 1548 m 257
 1702 -12 l 257
 1901 -12 l 257
 1901 1548 l 257
 1702 1548 l 257
909 860 m 257
 909 663 l 257
 1835 663 l 257
 1835 860 l 257
 909 860 l 257
863 860 m 257
 863 413 l 257
 1063 413 l 257
 1063 860 l 257
 863 860 l 257
41 567 m 257
 41 367 l 257
 1063 367 l 257
 1063 567 l 257
 41 567 l 257
41 368 m 257
 313 75 l 257
 571 75 l 257
 284 368 l 257
 41 368 l 257
EndSplineSet
EndChar

StartChar: uni091C_uni094D_uni091E.half
Encoding: 65565 -1 413
GlifName: uni091C__uni094D__uni091E_.half
Width: 2048
VWidth: 0
Flags: W
LayerCount: 2
Fore
SplineSet
-34 1548 m 257
 -34 1350 l 257
 2048 1350 l 257
 2048 1548 l 257
 -34 1548 l 257
1109 860 m 257
 1109 663 l 257
 2035 663 l 257
 2035 860 l 257
 1109 860 l 257
1063 860 m 257
 1063 413 l 257
 1263 413 l 257
 1263 860 l 257
 1063 860 l 257
241 567 m 257
 241 367 l 257
 1263 367 l 257
 1263 567 l 257
 241 567 l 257
241 368 m 257
 513 75 l 257
 771 75 l 257
 484 368 l 257
 241 368 l 257
EndSplineSet
EndChar

StartChar: uni091D
Encoding: 2333 2333 415
GlifName: uni091D_
Width: 2048
VWidth: 0
Flags: W
LayerCount: 2
Fore
SplineSet
-8 1548 m 257
 -8 1349 l 257
 2056 1349 l 257
 2056 1548 l 257
 -8 1548 l 257
1712 1537 m 257
 1712 -5 l 257
 1914 -5 l 257
 1914 1537 l 257
 1712 1537 l 257
968 1537 m 257
 968 1023 l 257
 1168 1023 l 257
 1168 1537 l 257
 968 1537 l 257
134 1223 m 257
 134 1023 l 257
 1168 1023 l 257
 1168 1223 l 257
 134 1223 l 257
134 1085 m 257
 134 651 l 257
 334 651 l 257
 334 1085 l 257
 134 1085 l 257
134 837 m 257
 134 638 l 257
 1908 638 l 257
 1908 837 l 257
 134 837 l 257
940 691 m 257
 940 7 l 257
 1140 7 l 257
 1140 691 l 257
 940 691 l 257
134 203 m 257
 134 0 l 257
 1140 0 l 257
 1140 203 l 257
 134 203 l 257
134 63 m 257
 134 -148 l 257
 334 -148 l 257
 334 63 l 257
 134 63 l 257
EndSplineSet
EndChar

StartChar: uni091D_uni0930_uni094D.vatu
Encoding: 65567 -1 416
GlifName: uni091D__uni0930_uni094D_.vatu
Width: 2048
VWidth: 0
Flags: W
LayerCount: 2
Fore
SplineSet
902 0 m 257
 1416 0 l 257
 1778 215 l 257
 1778 416 l 257
 902 0 l 257
-8 1548 m 257
 -8 1349 l 257
 2056 1349 l 257
 2056 1548 l 257
 -8 1548 l 257
1712 1537 m 257
 1712 -5 l 257
 1914 -5 l 257
 1914 1537 l 257
 1712 1537 l 257
968 1537 m 257
 968 1023 l 257
 1168 1023 l 257
 1168 1537 l 257
 968 1537 l 257
134 1223 m 257
 134 1023 l 257
 1168 1023 l 257
 1168 1223 l 257
 134 1223 l 257
134 1085 m 257
 134 651 l 257
 334 651 l 257
 334 1085 l 257
 134 1085 l 257
134 837 m 257
 134 638 l 257
 1908 638 l 257
 1908 837 l 257
 134 837 l 257
650 691 m 257
 650 7 l 257
 850 7 l 257
 850 691 l 257
 650 691 l 257
134 203 m 257
 134 0 l 257
 850 0 l 257
 850 203 l 257
 134 203 l 257
134 63 m 257
 134 -148 l 257
 334 -148 l 257
 334 63 l 257
 134 63 l 257
EndSplineSet
EndChar

StartChar: uni091D_uni094D.half
Encoding: 65568 -1 417
GlifName: uni091D__uni094D_.half
Width: 2048
VWidth: 0
Flags: W
LayerCount: 2
Fore
SplineSet
-8 1548 m 257
 -8 1349 l 257
 2056 1349 l 257
 2056 1548 l 257
 -8 1548 l 257
1268 1537 m 257
 1268 1023 l 257
 1468 1023 l 257
 1468 1537 l 257
 1268 1537 l 257
434 1223 m 257
 434 1023 l 257
 1468 1023 l 257
 1468 1223 l 257
 434 1223 l 257
434 1085 m 257
 434 651 l 257
 634 651 l 257
 634 1085 l 257
 434 1085 l 257
434 837 m 257
 434 638 l 257
 2208 638 l 257
 2208 837 l 257
 434 837 l 257
1240 691 m 257
 1240 7 l 257
 1440 7 l 257
 1440 691 l 257
 1240 691 l 257
434 203 m 257
 434 0 l 257
 1440 0 l 257
 1440 203 l 257
 434 203 l 257
434 63 m 257
 434 -148 l 257
 634 -148 l 257
 634 63 l 257
 434 63 l 257
EndSplineSet
EndChar

StartChar: uni091E
Encoding: 2334 2334 419
GlifName: uni091E_
Width: 2048
VWidth: 0
Flags: W
LayerCount: 2
Fore
SplineSet
0 1548 m 257
 0 1348 l 257
 2050 1348 l 257
 2050 1548 l 257
 0 1548 l 257
1756 1537 m 257
 1756 -8 l 257
 1956 -8 l 257
 1956 1537 l 257
 1756 1537 l 257
980 737 m 257
 980 537 l 257
 1854 537 l 257
 1854 737 l 257
 980 737 l 257
86 960 m 257
 86 760 l 257
 956 760 l 257
 956 960 l 257
 86 960 l 257
926 960 m 257
 926 316 l 257
 1126 316 l 257
 1126 960 l 257
 926 960 l 257
64 460 m 257
 64 260 l 257
 1126 260 l 257
 1126 460 l 257
 64 460 l 257
EndSplineSet
EndChar

StartChar: uni091E_uni0930_uni094D.vatu
Encoding: 65570 -1 420
GlifName: uni091E__uni0930_uni094D_.vatu
Width: 2048
VWidth: 0
Flags: W
LayerCount: 2
Fore
SplineSet
52 0 m 257
 476 0 l 257
 1778 215 l 257
 1778 416 l 257
 52 0 l 257
0 1548 m 257
 0 1348 l 257
 2050 1348 l 257
 2050 1548 l 257
 0 1548 l 257
1756 1537 m 257
 1756 -8 l 257
 1956 -8 l 257
 1956 1537 l 257
 1756 1537 l 257
980 737 m 257
 980 537 l 257
 1854 537 l 257
 1854 737 l 257
 980 737 l 257
86 960 m 257
 86 760 l 257
 956 760 l 257
 956 960 l 257
 86 960 l 257
926 960 m 257
 926 316 l 257
 1126 316 l 257
 1126 960 l 257
 926 960 l 257
64 482 m 257
 64 282 l 257
 1126 282 l 257
 1126 482 l 257
 64 482 l 257
EndSplineSet
EndChar

StartChar: uni091E_uni094D.half
Encoding: 65571 -1 421
GlifName: uni091E__uni094D_.half
Width: 2048
VWidth: 0
Flags: W
LayerCount: 2
Fore
SplineSet
0 1548 m 257
 0 1348 l 257
 2050 1348 l 257
 2050 1548 l 257
 0 1548 l 257
1240 737 m 257
 1240 537 l 257
 2114 537 l 257
 2114 737 l 257
 1240 737 l 257
346 960 m 257
 346 760 l 257
 1216 760 l 257
 1216 960 l 257
 346 960 l 257
1186 960 m 257
 1186 316 l 257
 1386 316 l 257
 1386 960 l 257
 1186 960 l 257
324 460 m 257
 324 260 l 257
 1386 260 l 257
 1386 460 l 257
 324 460 l 257
EndSplineSet
EndChar

StartChar: uni091F
Encoding: 2335 2335 423
GlifName: uni091F_
Width: 2048
VWidth: 0
Flags: W
LayerCount: 2
Fore
SplineSet
0 1548 m 257
 0 1348 l 257
 2052 1348 l 257
 2052 1548 l 257
 0 1548 l 257
1597 1528 m 257
 1597 988 l 257
 1797 988 l 257
 1797 1528 l 257
 1597 1528 l 257
1797 1023 m 257
 106 1023 l 257
 106 822 l 257
 1797 822 l 257
 1797 1023 l 257
85 1023 m 257
 85 5 l 257
 285 5 l 257
 285 1023 l 257
 85 1023 l 257
85 201 m 257
 85 0 l 257
 1840 0 l 257
 1840 201 l 257
 85 201 l 257
EndSplineSet
EndChar

StartChar: uni091F_uni0930_uni094D.vatu
Encoding: 65573 -1 424
GlifName: uni091F__uni0930_uni094D_.vatu
Width: 2048
VWidth: 0
Flags: W
LayerCount: 2
Fore
SplineSet
929 90 m 257
 1153 -290 l 257
 1435 -290 l 257
 1051 259 l 257
 929 90 l 257
1051 259 m 257
 644 -299 l 257
 865 -299 l 257
 1166 94 l 257
 1051 259 l 257
0 1548 m 257
 0 1348 l 257
 2052 1348 l 257
 2052 1548 l 257
 0 1548 l 257
1597 1528 m 257
 1597 988 l 257
 1797 988 l 257
 1797 1528 l 257
 1597 1528 l 257
1797 1023 m 257
 106 1023 l 257
 106 822 l 257
 1797 822 l 257
 1797 1023 l 257
85 1023 m 257
 85 305 l 257
 285 305 l 257
 285 1023 l 257
 85 1023 l 257
85 501 m 257
 85 300 l 257
 1840 300 l 257
 1840 501 l 257
 85 501 l 257
EndSplineSet
EndChar

StartChar: uni0920
Encoding: 2336 2336 426
GlifName: uni0920
Width: 2048
VWidth: 0
Flags: W
LayerCount: 2
Fore
SplineSet
0 1548 m 257
 0 1350 l 257
 2048 1350 l 257
 2048 1548 l 257
 0 1548 l 257
912 1484 m 257
 912 1023 l 257
 1120 1023 l 257
 1120 1484 l 257
 912 1484 l 257
85 1035 m 257
 85 834 l 257
 1985 834 l 257
 1985 1035 l 257
 85 1035 l 257
72 1035 m 257
 72 13 l 257
 272 13 l 257
 272 1035 l 257
 72 1035 l 257
1785 1035 m 257
 1785 0 l 257
 1985 0 l 257
 1985 1035 l 257
 1785 1035 l 257
73 198 m 257
 73 0 l 257
 1965 0 l 257
 1965 198 l 257
 73 198 l 257
EndSplineSet
EndChar

StartChar: uni0920_uni0930_uni094D.vatu
Encoding: 65575 -1 427
GlifName: uni0920_uni0930_uni094D_.vatu
Width: 2048
VWidth: 0
Flags: W
LayerCount: 2
Fore
SplineSet
929 90 m 257
 1153 -290 l 257
 1435 -290 l 257
 1051 259 l 257
 929 90 l 257
1051 259 m 257
 644 -299 l 257
 865 -299 l 257
 1166 94 l 257
 1051 259 l 257
0 1548 m 257
 0 1350 l 257
 2048 1350 l 257
 2048 1548 l 257
 0 1548 l 257
912 1484 m 257
 912 1023 l 257
 1120 1023 l 257
 1120 1484 l 257
 912 1484 l 257
85 1035 m 257
 85 834 l 257
 1985 834 l 257
 1985 1035 l 257
 85 1035 l 257
72 1035 m 257
 72 313 l 257
 272 313 l 257
 272 1035 l 257
 72 1035 l 257
1785 1035 m 257
 1785 298 l 257
 1985 298 l 257
 1985 1035 l 257
 1785 1035 l 257
73 498 m 257
 73 297 l 257
 1965 297 l 257
 1965 498 l 257
 73 498 l 257
EndSplineSet
EndChar

StartChar: uni0921
Encoding: 2337 2337 429
GlifName: uni0921
Width: 2048
VWidth: 0
Flags: W
LayerCount: 2
Fore
SplineSet
0 1548 m 257
 0 1348 l 257
 2052 1348 l 257
 2052 1548 l 257
 0 1548 l 257
384 1049 m 257
 384 638 l 257
 583 638 l 257
 583 1049 l 257
 384 1049 l 257
384 746 m 257
 384 538 l 257
 1581 538 l 257
 1581 746 l 257
 384 746 l 257
1382 703 m 257
 1383 5 l 257
 1582 5 l 257
 1581 703 l 257
 1382 703 l 257
62 200 m 257
 62 0 l 257
 1582 0 l 257
 1580 200 l 257
 62 200 l 257
62 331 m 257
 62 5 l 257
 262 5 l 257
 262 331 l 257
 62 331 l 257
384 1134 m 257
 384 926 l 257
 1445 926 l 257
 1445 1134 l 257
 384 1134 l 257
1246 1391 m 257
 1246 980 l 257
 1445 980 l 257
 1445 1391 l 257
 1246 1391 l 257
EndSplineSet
EndChar

StartChar: uni0921_uni0930_uni094D.vatu
Encoding: 65577 -1 430
GlifName: uni0921_uni0930_uni094D_.vatu
Width: 2048
VWidth: 0
Flags: W
LayerCount: 2
Fore
SplineSet
929 63 m 257
 1153 -222 l 257
 1435 -222 l 257
 1051 190 l 257
 929 63 l 257
1051 190 m 257
 644 -228 l 257
 865 -228 l 257
 1166 67 l 257
 1051 190 l 257
0 1548 m 257
 0 1348 l 257
 2052 1348 l 257
 2052 1548 l 257
 0 1548 l 257
384 1106 m 257
 384 729 l 257
 583 729 l 257
 583 1106 l 257
 384 1106 l 257
384 837 m 257
 384 629 l 257
 1581 629 l 257
 1581 837 l 257
 384 837 l 257
1382 794 m 257
 1383 164 l 257
 1582 164 l 257
 1581 794 l 257
 1382 794 l 257
62 359 m 257
 62 159 l 257
 1582 159 l 257
 1580 359 l 257
 62 359 l 257
62 490 m 257
 62 164 l 257
 262 164 l 257
 262 490 l 257
 62 490 l 257
384 1191 m 257
 384 983 l 257
 1445 983 l 257
 1445 1191 l 257
 384 1191 l 257
1246 1391 m 257
 1246 1037 l 257
 1445 1037 l 257
 1445 1391 l 257
 1246 1391 l 257
EndSplineSet
EndChar

StartChar: uni0922
Encoding: 2338 2338 432
GlifName: uni0922
Width: 2048
VWidth: 0
Flags: W
LayerCount: 2
Fore
SplineSet
5 1548 m 257
 5 1348 l 257
 2043 1348 l 257
 2043 1548 l 257
 5 1548 l 257
1588 1528 m 257
 1588 988 l 257
 1788 988 l 257
 1788 1528 l 257
 1588 1528 l 257
1788 1023 m 257
 115 1023 l 257
 115 822 l 257
 1788 822 l 257
 1788 1023 l 257
94 1023 m 257
 94 5 l 257
 294 5 l 257
 294 1023 l 257
 94 1023 l 257
94 201 m 257
 94 0 l 257
 1831 0 l 257
 1831 201 l 257
 94 201 l 257
1632 544 m 257
 1632 0 l 257
 1833 0 l 257
 1833 544 l 257
 1632 544 l 257
1579 547 m 257
 1579 347 l 257
 1831 347 l 257
 1831 547 l 257
 1579 547 l 257
EndSplineSet
EndChar

StartChar: uni0922_uni0930_uni094D.vatu
Encoding: 65579 -1 433
GlifName: uni0922_uni0930_uni094D_.vatu
Width: 2048
VWidth: 0
Flags: W
LayerCount: 2
Fore
SplineSet
934 90 m 257
 1158 -290 l 257
 1440 -290 l 257
 1056 259 l 257
 934 90 l 257
1056 259 m 257
 649 -299 l 257
 870 -299 l 257
 1171 94 l 257
 1056 259 l 257
10 1548 m 257
 10 1348 l 257
 2048 1348 l 257
 2048 1548 l 257
 10 1548 l 257
1593 1528 m 257
 1593 1088 l 257
 1793 1088 l 257
 1793 1528 l 257
 1593 1528 l 257
1793 1123 m 257
 120 1123 l 257
 120 922 l 257
 1793 922 l 257
 1793 1123 l 257
99 1124 m 257
 99 305 l 257
 299 305 l 257
 299 1124 l 257
 99 1124 l 257
99 501 m 257
 99 300 l 257
 1836 300 l 257
 1836 501 l 257
 99 501 l 257
1637 844 m 257
 1637 298 l 257
 1838 298 l 257
 1838 844 l 257
 1637 844 l 257
1584 847 m 257
 1584 647 l 257
 1836 647 l 257
 1836 847 l 257
 1584 847 l 257
EndSplineSet
EndChar

StartChar: uni0923
Encoding: 2339 2339 435
GlifName: uni0923
Width: 2048
VWidth: 0
Flags: W
LayerCount: 2
Fore
SplineSet
0 1548 m 257
 0 1350 l 257
 2048 1350 l 257
 2048 1548 l 257
 0 1548 l 257
1740 1530 m 257
 1740 0 l 257
 1940 0 l 257
 1940 1530 l 257
 1740 1530 l 257
110 1543 m 257
 110 855 l 257
 310 855 l 257
 310 1543 l 257
 110 1543 l 257
966 1528 m 257
 966 844 l 257
 1166 844 l 257
 1166 1528 l 257
 966 1528 l 257
110 1023 m 257
 110 825 l 257
 1166 825 l 257
 1166 1023 l 257
 110 1023 l 257
EndSplineSet
EndChar

StartChar: uni0923_uni0930_uni094D.vatu
Encoding: 65581 -1 436
GlifName: uni0923_uni0930_uni094D_.vatu
Width: 2048
VWidth: 0
Flags: W
LayerCount: 2
Fore
SplineSet
52 0 m 257
 476 0 l 257
 1778 215 l 257
 1778 416 l 257
 52 0 l 257
0 1548 m 257
 0 1350 l 257
 2048 1350 l 257
 2048 1548 l 257
 0 1548 l 257
1740 1530 m 257
 1740 0 l 257
 1940 0 l 257
 1940 1530 l 257
 1740 1530 l 257
110 1543 m 257
 110 855 l 257
 310 855 l 257
 310 1543 l 257
 110 1543 l 257
966 1528 m 257
 966 844 l 257
 1166 844 l 257
 1166 1528 l 257
 966 1528 l 257
110 1023 m 257
 110 825 l 257
 1166 825 l 257
 1166 1023 l 257
 110 1023 l 257
EndSplineSet
EndChar

StartChar: uni0923_uni094D.half
Encoding: 65582 -1 437
GlifName: uni0923_uni094D_.half
Width: 2048
VWidth: 0
Flags: W
LayerCount: 2
Fore
SplineSet
0 1548 m 257
 0 1350 l 257
 2048 1350 l 257
 2048 1548 l 257
 0 1548 l 257
510 1543 m 257
 510 855 l 257
 710 855 l 257
 710 1543 l 257
 510 1543 l 257
1366 1528 m 257
 1366 844 l 257
 1566 844 l 257
 1566 1528 l 257
 1366 1528 l 257
510 1023 m 257
 510 825 l 257
 1566 825 l 257
 1566 1023 l 257
 510 1023 l 257
EndSplineSet
EndChar

StartChar: uni0924
Encoding: 2340 2340 439
GlifName: uni0924
Width: 2048
VWidth: 0
Flags: W
LayerCount: 2
Fore
SplineSet
-15 1562 m 257
 -15 1362 l 257
 2063 1362 l 257
 2063 1562 l 257
 -15 1562 l 257
1673 1562 m 257
 1673 0 l 257
 1872 0 l 257
 1872 1562 l 257
 1673 1562 l 257
1827 788 m 257
 120 788 l 257
 120 588 l 257
 1827 588 l 257
 1827 788 l 257
120 766 m 257
 120 26 l 257
 320 26 l 257
 320 766 l 257
 120 766 l 257
EndSplineSet
EndChar

StartChar: uni0924_uni0930_uni094D.vatu
Encoding: 65584 -1 440
GlifName: uni0924_uni0930_uni094D_.vatu
Width: 2048
VWidth: 0
Flags: W
LayerCount: 2
Fore
SplineSet
52 0 m 257
 476 0 l 257
 1778 215 l 257
 1778 416 l 257
 52 0 l 257
-15 1562 m 257
 -15 1362 l 257
 2063 1362 l 257
 2063 1562 l 257
 -15 1562 l 257
1673 1562 m 257
 1673 0 l 257
 1872 0 l 257
 1872 1562 l 257
 1673 1562 l 257
1763 348 m 257
 284 1201 l 257
 184 1028 l 257
 1663 175 l 257
 1763 348 l 257
EndSplineSet
EndChar

StartChar: uni0924_uni094D.half
Encoding: 65585 -1 441
GlifName: uni0924_uni094D_.half
Width: 2048
VWidth: 0
Flags: W
LayerCount: 2
Fore
SplineSet
-15 1562 m 257
 -15 1362 l 257
 2063 1362 l 257
 2063 1562 l 257
 -15 1562 l 257
2072 788 m 257
 365 788 l 257
 365 588 l 257
 2072 588 l 257
 2072 788 l 257
365 766 m 257
 365 26 l 257
 565 26 l 257
 565 766 l 257
 365 766 l 257
EndSplineSet
EndChar

StartChar: uni0924_uni094D_uni0924.pres
Encoding: 65587 -1 443
GlifName: uni0924_uni094D__uni0924.pres
Width: 2048
VWidth: 0
Flags: W
LayerCount: 2
Fore
SplineSet
-30 1554 m 257
 -30 1354 l 257
 2049 1354 l 257
 2049 1554 l 257
 -30 1554 l 257
1659 1511 m 257
 1659 0 l 257
 1858 0 l 257
 1858 1511 l 257
 1659 1511 l 257
1813 788 m 257
 105 788 l 257
 105 588 l 257
 1813 588 l 257
 1813 788 l 257
105 588 m 257
 212 0 l 257
 412 0 l 257
 304 588 l 257
 105 588 l 257
1724 1038 m 257
 16 1038 l 257
 16 838 l 257
 1724 838 l 257
 1724 1038 l 257
EndSplineSet
EndChar

StartChar: uni0925
Encoding: 2341 2341 444
GlifName: uni0925
Width: 2048
VWidth: 0
Flags: W
LayerCount: 2
Fore
SplineSet
1647 1548 m 257
 1647 1350 l 257
 2031 1350 l 257
 2031 1548 l 257
 1647 1548 l 257
1783 1537 m 257
 1783 -18 l 257
 1982 -18 l 257
 1982 1537 l 257
 1783 1537 l 257
17 1548 m 257
 17 1350 l 257
 974 1350 l 257
 974 1548 l 257
 17 1548 l 257
773 1413 m 257
 773 927 l 257
 973 927 l 257
 973 1413 l 257
 773 1413 l 257
974 1018 m 257
 21 1018 l 257
 21 810 l 257
 974 810 l 257
 974 1018 l 257
21 946 m 257
 21 132 l 257
 220 132 l 257
 220 946 l 257
 21 946 l 257
21 331 m 257
 21 132 l 257
 1982 132 l 257
 1982 331 l 257
 21 331 l 257
EndSplineSet
EndChar

StartChar: uni0925_uni0930_uni094D.vatu
Encoding: 65588 -1 445
GlifName: uni0925_uni0930_uni094D_.vatu
Width: 2048
VWidth: 0
Flags: W
LayerCount: 2
Fore
SplineSet
52 0 m 257
 476 0 l 257
 1778 215 l 257
 1778 416 l 257
 52 0 l 257
1647 1548 m 257
 1647 1350 l 257
 2031 1350 l 257
 2031 1548 l 257
 1647 1548 l 257
1783 1537 m 257
 1783 -18 l 257
 1982 -18 l 257
 1982 1537 l 257
 1783 1537 l 257
17 1548 m 257
 17 1350 l 257
 974 1350 l 257
 974 1548 l 257
 17 1548 l 257
773 1413 m 257
 773 927 l 257
 973 927 l 257
 973 1413 l 257
 773 1413 l 257
974 1018 m 257
 21 1018 l 257
 21 810 l 257
 974 810 l 257
 974 1018 l 257
21 946 m 257
 21 332 l 257
 220 332 l 257
 220 946 l 257
 21 946 l 257
21 531 m 257
 21 332 l 257
 1982 332 l 257
 1982 531 l 257
 21 531 l 257
EndSplineSet
EndChar

StartChar: uni0925_uni094D.half
Encoding: 65589 -1 446
GlifName: uni0925_uni094D_.half
Width: 2048
VWidth: 0
Flags: W
LayerCount: 2
Fore
SplineSet
1647 1548 m 257
 1647 1350 l 257
 2031 1350 l 257
 2031 1548 l 257
 1647 1548 l 257
17 1548 m 257
 17 1350 l 257
 974 1350 l 257
 974 1548 l 257
 17 1548 l 257
773 1413 m 257
 773 927 l 257
 973 927 l 257
 973 1413 l 257
 773 1413 l 257
974 1018 m 257
 21 1018 l 257
 21 810 l 257
 974 810 l 257
 974 1018 l 257
21 946 m 257
 21 132 l 257
 220 132 l 257
 220 946 l 257
 21 946 l 257
21 331 m 257
 21 132 l 257
 2052 132 l 257
 2052 331 l 257
 21 331 l 257
EndSplineSet
EndChar

StartChar: uni0926
Encoding: 2342 2342 448
GlifName: uni0926
Width: 2048
VWidth: 0
Flags: W
LayerCount: 2
Fore
SplineSet
0 1548 m 257
 0 1350 l 257
 2044 1350 l 257
 2044 1548 l 257
 0 1548 l 257
992 1509 m 257
 992 923 l 257
 1192 923 l 257
 1192 1509 l 257
 992 1509 l 257
1192 1023 m 257
 58 1023 l 257
 58 821 l 257
 1192 821 l 257
 1192 1023 l 257
54 996 m 257
 54 219 l 257
 254 219 l 257
 254 996 l 257
 54 996 l 257
54 346 m 257
 54 146 l 257
 1318 146 l 257
 1318 346 l 257
 54 346 l 257
1122 406 m 257
 1122 -7 l 257
 1322 -7 l 257
 1322 406 l 257
 1122 406 l 257
EndSplineSet
EndChar

StartChar: uni0926_uni0930_uni094D.vatu
Encoding: 65591 -1 449
GlifName: uni0926_uni0930_uni094D_.vatu
Width: 2048
VWidth: 0
Flags: W
LayerCount: 2
Fore
SplineSet
52 0 m 257
 476 0 l 257
 1178 215 l 257
 1178 416 l 257
 52 0 l 257
0 1548 m 257
 0 1350 l 257
 2044 1350 l 257
 2044 1548 l 257
 0 1548 l 257
992 1509 m 257
 992 923 l 257
 1192 923 l 257
 1192 1509 l 257
 992 1509 l 257
1192 1023 m 257
 58 1023 l 257
 58 821 l 257
 1192 821 l 257
 1192 1023 l 257
54 996 m 257
 54 419 l 257
 254 419 l 257
 254 996 l 257
 54 996 l 257
54 546 m 257
 54 346 l 257
 1318 346 l 257
 1318 546 l 257
 54 546 l 257
1122 606 m 257
 1122 -7 l 257
 1322 -7 l 257
 1322 606 l 257
 1122 606 l 257
EndSplineSet
EndChar

StartChar: uni0926_uni094D.half
Encoding: 65592 -1 450
GlifName: uni0926_uni094D_.half
Width: 2048
VWidth: 0
Flags: W
LayerCount: 2
Fore
SplineSet
0 1548 m 257
 0 1350 l 257
 2044 1350 l 257
 2044 1548 l 257
 0 1548 l 257
992 1509 m 257
 992 923 l 257
 1192 923 l 257
 1192 1509 l 257
 992 1509 l 257
1192 1023 m 257
 58 1023 l 257
 58 821 l 257
 1192 821 l 257
 1192 1023 l 257
54 996 m 257
 54 419 l 257
 254 419 l 257
 254 996 l 257
 54 996 l 257
54 546 m 257
 54 346 l 257
 1318 346 l 257
 1318 546 l 257
 54 546 l 257
1122 606 m 257
 1122 193 l 257
 1322 193 l 257
 1322 606 l 257
 1122 606 l 257
1195 178 m 257
 1195 -18 l 257
 1552 -18 l 257
 1552 178 l 257
 1195 178 l 257
1411 17 m 257
 1881 -388 l 257
 2025 -225 l 257
 1554 179 l 257
 1411 17 l 257
EndSplineSet
EndChar

StartChar: uni0926_uni094D_uni0926.pres
Encoding: 65594 -1 452
GlifName: uni0926_uni094D__uni0926.pres
Width: 2048
VWidth: 0
Flags: W
LayerCount: 2
Fore
SplineSet
7 1548 m 257
 7 1350 l 257
 2051 1350 l 257
 2051 1548 l 257
 7 1548 l 257
996 1509 m 257
 996 1100 l 257
 1196 1100 l 257
 1196 1509 l 257
 996 1509 l 257
1195 1197 m 257
 261 1197 l 257
 261 998 l 257
 1195 998 l 257
 1195 1197 l 257
257 1173 m 257
 257 758 l 257
 457 758 l 257
 457 1173 l 257
 257 1173 l 257
257 346 m 257
 257 146 l 257
 1321 146 l 257
 1321 346 l 257
 257 346 l 257
1125 406 m 257
 1125 -7 l 257
 1325 -7 l 257
 1325 406 l 257
 1125 406 l 257
1195 798 m 257
 402 798 l 257
 402 599 l 257
 1195 599 l 257
 1195 798 l 257
257 651 m 257
 257 279 l 257
 457 279 l 257
 457 651 l 257
 257 651 l 257
EndSplineSet
EndChar

StartChar: uni0926_uni094D_uni0927.pres
Encoding: 65595 -1 453
GlifName: uni0926_uni094D__uni0927.pres
Width: 2048
VWidth: 0
Flags: W
LayerCount: 2
Fore
SplineSet
7 1548 m 257
 7 1350 l 257
 2050 1350 l 257
 2050 1548 l 257
 7 1548 l 257
1387 1509 m 257
 1387 923 l 257
 1587 923 l 257
 1587 1509 l 257
 1387 1509 l 257
1586 1023 m 257
 845 1023 l 257
 845 821 l 257
 1586 821 l 257
 1586 1023 l 257
845 996 m 257
 845 219 l 257
 1045 219 l 257
 1045 996 l 257
 845 996 l 257
1516 406 m 257
 1516 -7 l 257
 1716 -7 l 257
 1716 406 l 257
 1516 406 l 257
0 1117 m 257
 0 918 l 257
 302 918 l 257
 302 1117 l 257
 0 1117 l 257
0 950 m 257
 0 718 l 257
 195 718 l 257
 195 950 l 257
 0 950 l 257
-5 719 m 257
 -5 518 l 257
 858 518 l 257
 858 719 l 257
 -5 719 l 257
29 674 m 257
 29 218 l 257
 229 218 l 257
 229 674 l 257
 29 674 l 257
29 339 m 257
 29 139 l 257
 1603 139 l 257
 1603 339 l 257
 29 339 l 257
EndSplineSet
EndChar

StartChar: uni0926_uni094D_uni092F.pres
Encoding: 65596 -1 454
GlifName: uni0926_uni094D__uni092F_.pres
Width: 2048
VWidth: 0
Flags: W
LayerCount: 2
Fore
SplineSet
1829 1531 m 257
 1829 0 l 257
 2030 0 l 257
 2030 1531 l 257
 1829 1531 l 257
1186 428 m 257
 1186 229 l 257
 1829 0 l 257
 1893 166 l 257
 1186 428 l 257
-5 1548 m 257
 -5 1350 l 257
 2050 1350 l 257
 2050 1548 l 257
 -5 1548 l 257
996 1509 m 257
 996 923 l 257
 1196 923 l 257
 1196 1509 l 257
 996 1509 l 257
1186 428 m 257
 57 428 l 257
 57 229 l 257
 1186 229 l 257
 1186 428 l 257
57 996 m 257
 57 290 l 257
 257 290 l 257
 257 996 l 257
 57 996 l 257
1196 1023 m 257
 56 1023 l 257
 56 821 l 257
 1196 821 l 257
 1196 1023 l 257
EndSplineSet
EndChar

StartChar: uni0926_uni094D_uni0935.pres
Encoding: 65597 -1 455
GlifName: uni0926_uni094D__uni0935.pres
Width: 2048
VWidth: 0
Flags: W
LayerCount: 2
Fore
SplineSet
7 1548 m 257
 7 1350 l 257
 2050 1350 l 257
 2050 1548 l 257
 7 1548 l 257
996 1509 m 257
 996 1146 l 257
 1196 1146 l 257
 1196 1509 l 257
 996 1509 l 257
1195 1243 m 257
 61 1243 l 257
 61 1044 l 257
 1195 1044 l 257
 1195 1243 l 257
57 1243 m 257
 57 659 l 257
 257 659 l 257
 257 1243 l 257
 57 1243 l 257
57 825 m 257
 57 625 l 257
 1837 625 l 257
 1837 825 l 257
 57 825 l 257
1641 846 m 257
 1641 -7 l 257
 1841 -7 l 257
 1841 846 l 257
 1641 846 l 257
76 488 m 257
 76 102 l 257
 276 102 l 257
 276 488 l 257
 76 488 l 257
77 274 m 257
 77 74 l 257
 1840 74 l 257
 1840 274 l 257
 77 274 l 257
75 553 m 257
 75 352 l 257
 1023 352 l 257
 1023 553 l 257
 75 553 l 257
EndSplineSet
EndChar

StartChar: uni0927
Encoding: 2343 2343 456
GlifName: uni0927
Width: 2048
VWidth: 0
Flags: W
LayerCount: 2
Fore
SplineSet
1691 1548 m 257
 1691 1348 l 257
 1992 1348 l 257
 1992 1548 l 257
 1691 1548 l 257
1740 1440 m 257
 1740 -6 l 257
 1939 -6 l 257
 1939 1440 l 257
 1740 1440 l 257
63 1548 m 257
 63 1346 l 257
 961 1346 l 257
 961 1548 l 257
 63 1548 l 257
57 1501 m 257
 57 808 l 257
 256 808 l 257
 256 1501 l 257
 57 1501 l 257
56 882 m 257
 56 681 l 257
 967 681 l 257
 967 882 l 257
 56 882 l 257
90 711 m 257
 90 205 l 257
 290 205 l 257
 290 711 l 257
 90 711 l 257
90 326 m 257
 90 126 l 257
 1806 126 l 257
 1806 326 l 257
 90 326 l 257
EndSplineSet
EndChar

StartChar: uni0927_uni0930_uni094D.vatu
Encoding: 65598 -1 457
GlifName: uni0927_uni0930_uni094D_.vatu
Width: 2048
VWidth: 0
Flags: W
LayerCount: 2
Fore
SplineSet
52 0 m 257
 476 0 l 257
 1778 215 l 257
 1778 416 l 257
 52 0 l 257
1691 1548 m 257
 1691 1348 l 257
 1992 1348 l 257
 1992 1548 l 257
 1691 1548 l 257
1740 1440 m 257
 1740 -6 l 257
 1939 -6 l 257
 1939 1440 l 257
 1740 1440 l 257
63 1548 m 257
 63 1346 l 257
 961 1346 l 257
 961 1548 l 257
 63 1548 l 257
57 1501 m 257
 57 1008 l 257
 256 1008 l 257
 256 1501 l 257
 57 1501 l 257
56 1082 m 257
 56 881 l 257
 967 881 l 257
 967 1082 l 257
 56 1082 l 257
90 911 m 257
 90 405 l 257
 290 405 l 257
 290 911 l 257
 90 911 l 257
90 526 m 257
 90 326 l 257
 1806 326 l 257
 1806 526 l 257
 90 526 l 257
EndSplineSet
EndChar

StartChar: uni0927_uni094D.half
Encoding: 65599 -1 458
GlifName: uni0927_uni094D_.half
Width: 2048
VWidth: 0
Flags: W
LayerCount: 2
Fore
SplineSet
313 1548 m 257
 313 1346 l 257
 1211 1346 l 257
 1211 1548 l 257
 313 1548 l 257
307 1501 m 257
 307 808 l 257
 506 808 l 257
 506 1501 l 257
 307 1501 l 257
306 882 m 257
 306 681 l 257
 1217 681 l 257
 1217 882 l 257
 306 882 l 257
340 711 m 257
 340 205 l 257
 540 205 l 257
 540 711 l 257
 340 711 l 257
340 326 m 257
 340 126 l 257
 2056 126 l 257
 2056 326 l 257
 340 326 l 257
EndSplineSet
EndChar

StartChar: uni0928
Encoding: 2344 2344 460
GlifName: uni0928
Width: 2048
VWidth: 0
Flags: W
LayerCount: 2
Fore
SplineSet
0 1548 m 257
 0 1347 l 257
 2045 1347 l 257
 2045 1548 l 257
 0 1548 l 257
1730 1548 m 257
 1730 0 l 257
 1929 0 l 257
 1929 1548 l 257
 1730 1548 l 257
98 744 m 257
 98 544 l 257
 1899 544 l 257
 1899 744 l 257
 98 744 l 257
99 741 m 257
 99 456 l 257
 300 456 l 257
 300 741 l 257
 99 741 l 257
EndSplineSet
EndChar

StartChar: uni0928_uni0930_uni094D.vatu
Encoding: 65601 -1 461
GlifName: uni0928_uni0930_uni094D_.vatu
Width: 2048
VWidth: 0
Flags: W
LayerCount: 2
Fore
SplineSet
52 0 m 257
 476 0 l 257
 1778 215 l 257
 1778 416 l 257
 52 0 l 257
0 1548 m 257
 0 1347 l 257
 2045 1347 l 257
 2045 1548 l 257
 0 1548 l 257
1730 1548 m 257
 1730 0 l 257
 1929 0 l 257
 1929 1548 l 257
 1730 1548 l 257
98 744 m 257
 98 544 l 257
 1899 544 l 257
 1899 744 l 257
 98 744 l 257
99 741 m 257
 99 456 l 257
 300 456 l 257
 300 741 l 257
 99 741 l 257
EndSplineSet
EndChar

StartChar: uni0928_uni094D.half
Encoding: 65602 -1 462
GlifName: uni0928_uni094D_.half
Width: 2048
VWidth: 0
Flags: W
LayerCount: 2
Fore
SplineSet
0 1548 m 257
 0 1347 l 257
 2045 1347 l 257
 2045 1548 l 257
 0 1548 l 257
298 744 m 257
 298 544 l 257
 2099 544 l 257
 2099 744 l 257
 298 744 l 257
299 741 m 257
 299 456 l 257
 500 456 l 257
 500 741 l 257
 299 741 l 257
EndSplineSet
EndChar

StartChar: uni0929
Encoding: 2345 2345 464
GlifName: uni0929
Width: 2048
VWidth: 0
Flags: W
LayerCount: 2
Fore
SplineSet
0 1548 m 257
 0 1347 l 257
 2042 1347 l 257
 2042 1548 l 257
 0 1548 l 257
1727 1548 m 257
 1727 0 l 257
 1926 0 l 257
 1926 1548 l 257
 1727 1548 l 257
95 744 m 257
 95 544 l 257
 1896 544 l 257
 1896 744 l 257
 95 744 l 257
96 741 m 257
 96 456 l 257
 297 456 l 257
 297 741 l 257
 96 741 l 257
1084 -58 m 257
 1084 -305 l 257
 1348 -305 l 257
 1348 -58 l 257
 1084 -58 l 257
EndSplineSet
EndChar

StartChar: uni0929_uni0930_uni094D.vatu
Encoding: 65604 -1 465
GlifName: uni0929_uni0930_uni094D_.vatu
Width: 2048
VWidth: 0
Flags: W
LayerCount: 2
Fore
SplineSet
52 0 m 257
 476 0 l 257
 1778 215 l 257
 1778 416 l 257
 52 0 l 257
0 1548 m 257
 0 1347 l 257
 2042 1347 l 257
 2042 1548 l 257
 0 1548 l 257
1727 1548 m 257
 1727 0 l 257
 1926 0 l 257
 1926 1548 l 257
 1727 1548 l 257
95 744 m 257
 95 544 l 257
 1896 544 l 257
 1896 744 l 257
 95 744 l 257
96 741 m 257
 96 456 l 257
 297 456 l 257
 297 741 l 257
 96 741 l 257
1084 -58 m 257
 1084 -305 l 257
 1348 -305 l 257
 1348 -58 l 257
 1084 -58 l 257
EndSplineSet
EndChar

StartChar: uni0929_uni094D.half
Encoding: 65605 -1 466
GlifName: uni0929_uni094D_.half
Width: 2048
VWidth: 0
Flags: W
LayerCount: 2
Fore
SplineSet
0 1548 m 257
 0 1347 l 257
 2042 1347 l 257
 2042 1548 l 257
 0 1548 l 257
245 744 m 257
 245 544 l 257
 2046 544 l 257
 2046 744 l 257
 245 744 l 257
246 741 m 257
 246 456 l 257
 447 456 l 257
 447 741 l 257
 246 741 l 257
1234 -58 m 257
 1234 -305 l 257
 1498 -305 l 257
 1498 -58 l 257
 1234 -58 l 257
EndSplineSet
EndChar

StartChar: uni092A
Encoding: 2346 2346 468
GlifName: uni092A_
Width: 2048
VWidth: 0
Flags: W
LayerCount: 2
Fore
SplineSet
-15 1548 m 257
 -15 1349 l 257
 2063 1349 l 257
 2063 1548 l 257
 -15 1548 l 257
1723 1537 m 257
 1723 0 l 257
 1923 0 l 257
 1923 1537 l 257
 1723 1537 l 257
109 1548 m 257
 109 837 l 257
 310 837 l 257
 310 1548 l 257
 109 1548 l 257
109 1023 m 257
 109 825 l 257
 1889 825 l 257
 1889 1023 l 257
 109 1023 l 257
EndSplineSet
EndChar

StartChar: uni092A_uni0930_uni094D.vatu
Encoding: 65607 -1 469
GlifName: uni092A__uni0930_uni094D_.vatu
Width: 2048
VWidth: 0
Flags: W
LayerCount: 2
Fore
SplineSet
52 0 m 257
 476 0 l 257
 1778 215 l 257
 1778 416 l 257
 52 0 l 257
-15 1548 m 257
 -15 1349 l 257
 2063 1349 l 257
 2063 1548 l 257
 -15 1548 l 257
1723 1537 m 257
 1723 0 l 257
 1923 0 l 257
 1923 1537 l 257
 1723 1537 l 257
109 1548 m 257
 109 837 l 257
 310 837 l 257
 310 1548 l 257
 109 1548 l 257
109 1023 m 257
 109 825 l 257
 1889 825 l 257
 1889 1023 l 257
 109 1023 l 257
EndSplineSet
EndChar

StartChar: uni092A_uni094D.half
Encoding: 65608 -1 470
GlifName: uni092A__uni094D_.half
Width: 2048
VWidth: 0
Flags: W
LayerCount: 2
Fore
SplineSet
-15 1548 m 257
 -15 1349 l 257
 2063 1349 l 257
 2063 1548 l 257
 -15 1548 l 257
109 1548 m 257
 109 837 l 257
 310 837 l 257
 310 1548 l 257
 109 1548 l 257
109 1023 m 257
 109 825 l 257
 2089 825 l 257
 2089 1023 l 257
 109 1023 l 257
EndSplineSet
EndChar

StartChar: uni092B
Encoding: 2347 2347 472
GlifName: uni092B_
Width: 2048
VWidth: 0
Flags: W
LayerCount: 2
Fore
SplineSet
-15 1548 m 257
 -15 1349 l 257
 2063 1349 l 257
 2063 1548 l 257
 -15 1548 l 257
1378 1537 m 257
 1378 0 l 257
 1578 0 l 257
 1578 1537 l 257
 1378 1537 l 257
109 1548 m 257
 109 837 l 257
 310 837 l 257
 310 1548 l 257
 109 1548 l 257
109 1023 m 257
 109 824 l 257
 2003 824 l 257
 2003 1023 l 257
 109 1023 l 257
1813 1023 m 257
 1813 686 l 257
 2012 686 l 257
 2012 1023 l 257
 1813 1023 l 257
EndSplineSet
EndChar

StartChar: uni092B_uni0930_uni094D.vatu
Encoding: 65610 -1 473
GlifName: uni092B__uni0930_uni094D_.vatu
Width: 2048
VWidth: 0
Flags: W
LayerCount: 2
Fore
SplineSet
52 0 m 257
 476 0 l 257
 1578 415 l 257
 1578 616 l 257
 52 0 l 257
-15 1548 m 257
 -15 1349 l 257
 2063 1349 l 257
 2063 1548 l 257
 -15 1548 l 257
1378 1537 m 257
 1378 0 l 257
 1578 0 l 257
 1578 1537 l 257
 1378 1537 l 257
109 1548 m 257
 109 837 l 257
 310 837 l 257
 310 1548 l 257
 109 1548 l 257
109 1023 m 257
 109 824 l 257
 2003 824 l 257
 2003 1023 l 257
 109 1023 l 257
1813 1023 m 257
 1813 686 l 257
 2012 686 l 257
 2012 1023 l 257
 1813 1023 l 257
EndSplineSet
EndChar

StartChar: uni092B_uni094D.half
Encoding: 65611 -1 474
GlifName: uni092B__uni094D_.half
Width: 2048
VWidth: 0
Flags: W
LayerCount: 2
Fore
SplineSet
-15 1548 m 257
 -15 1349 l 257
 2063 1349 l 257
 2063 1548 l 257
 -15 1548 l 257
1378 1537 m 257
 1378 0 l 257
 1578 0 l 257
 1578 1537 l 257
 1378 1537 l 257
109 1548 m 257
 109 837 l 257
 310 837 l 257
 310 1548 l 257
 109 1548 l 257
109 1023 m 257
 109 824 l 257
 2053 824 l 257
 2053 1023 l 257
 109 1023 l 257
EndSplineSet
EndChar

StartChar: uni092C
Encoding: 2348 2348 476
GlifName: uni092C_
Width: 2048
VWidth: 0
Flags: W
LayerCount: 2
Fore
SplineSet
0 1548 m 257
 0 1351 l 257
 2048 1351 l 257
 2048 1548 l 257
 0 1548 l 257
1684 1437 m 257
 1684 -25 l 257
 1884 -25 l 257
 1884 1437 l 257
 1684 1437 l 257
76 1023 m 257
 76 232 l 257
 276 232 l 257
 276 1023 l 257
 76 1023 l 257
78 404 m 257
 78 204 l 257
 1834 204 l 257
 1834 404 l 257
 78 404 l 257
102 926 m 257
 1556 224 l 257
 1722 328 l 257
 272 1030 l 257
 102 926 l 257
76 1037 m 257
 76 820 l 257
 1126 820 l 257
 1126 1037 l 257
 76 1037 l 257
EndSplineSet
EndChar

StartChar: uni092C_uni0930_uni094D.vatu
Encoding: 65613 -1 477
GlifName: uni092C__uni0930_uni094D_.vatu
Width: 2048
VWidth: 0
Flags: W
LayerCount: 2
Fore
SplineSet
52 0 m 257
 476 0 l 257
 1778 215 l 257
 1778 416 l 257
 52 0 l 257
0 1548 m 257
 0 1351 l 257
 2048 1351 l 257
 2048 1548 l 257
 0 1548 l 257
1684 1437 m 257
 1684 -25 l 257
 1884 -25 l 257
 1884 1437 l 257
 1684 1437 l 257
76 1221 m 257
 76 432 l 257
 276 432 l 257
 276 1221 l 257
 76 1221 l 257
78 604 m 257
 78 404 l 257
 1834 404 l 257
 1834 604 l 257
 78 604 l 257
102 1126 m 257
 1556 424 l 257
 1722 528 l 257
 272 1230 l 257
 102 1126 l 257
76 1237 m 257
 76 1023 l 257
 1126 1023 l 257
 1126 1237 l 257
 76 1237 l 257
EndSplineSet
EndChar

StartChar: uni092C_uni094D.half
Encoding: 65614 -1 478
GlifName: uni092C__uni094D_.half
Width: 2048
VWidth: 0
Flags: W
LayerCount: 2
Fore
SplineSet
0 1548 m 257
 0 1351 l 257
 2048 1351 l 257
 2048 1548 l 257
 0 1548 l 257
296 1023 m 257
 296 232 l 257
 496 232 l 257
 496 1023 l 257
 296 1023 l 257
298 404 m 257
 298 204 l 257
 2054 204 l 257
 2054 404 l 257
 298 404 l 257
322 926 m 257
 1776 224 l 257
 1942 328 l 257
 492 1030 l 257
 322 926 l 257
296 1037 m 257
 296 820 l 257
 1346 820 l 257
 1346 1037 l 257
 296 1037 l 257
EndSplineSet
EndChar

StartChar: uni092D
Encoding: 2349 2349 480
GlifName: uni092D_
Width: 2048
VWidth: 0
Flags: W
LayerCount: 2
Fore
SplineSet
0 169 m 257
 0 0 l 257
 838 0 l 257
 838 169 l 257
 0 169 l 257
0 473 m 257
 0 0 l 257
 186 0 l 257
 186 473 l 257
 0 473 l 257
1582 1548 m 257
 1582 1348 l 257
 2028 1348 l 257
 2028 1548 l 257
 1582 1548 l 257
1752 1543 m 257
 1752 0 l 257
 1952 0 l 257
 1952 1543 l 257
 1752 1543 l 257
20 1532 m 257
 20 1079 l 257
 220 1079 l 257
 220 1532 l 257
 20 1532 l 257
46 1537 m 257
 46 1338 l 257
 838 1338 l 257
 838 1537 l 257
 46 1537 l 257
774 1537 m 257
 774 0 l 257
 972 0 l 257
 972 1537 l 257
 774 1537 l 257
80 473 m 257
 80 273 l 257
 1924 273 l 257
 1924 473 l 257
 80 473 l 257
EndSplineSet
EndChar

StartChar: uni092D_uni0930_uni094D.vatu
Encoding: 65616 -1 481
GlifName: uni092D__uni0930_uni094D_.vatu
Width: 2048
VWidth: 0
Flags: W
LayerCount: 2
Fore
SplineSet
52 0 m 257
 476 0 l 257
 1778 215 l 257
 1778 416 l 257
 52 0 l 257
0 397 m 257
 0 228 l 257
 838 228 l 257
 838 397 l 257
 0 397 l 257
0 673 m 257
 0 228 l 257
 186 228 l 257
 186 673 l 257
 0 673 l 257
1582 1548 m 257
 1582 1348 l 257
 2028 1348 l 257
 2028 1548 l 257
 1582 1548 l 257
1752 1543 m 257
 1752 0 l 257
 1952 0 l 257
 1952 1543 l 257
 1752 1543 l 257
20 1532 m 257
 20 1079 l 257
 220 1079 l 257
 220 1532 l 257
 20 1532 l 257
46 1537 m 257
 46 1338 l 257
 838 1338 l 257
 838 1537 l 257
 46 1537 l 257
774 1537 m 257
 774 229 l 257
 972 229 l 257
 972 1537 l 257
 774 1537 l 257
80 673 m 257
 80 473 l 257
 1924 473 l 257
 1924 673 l 257
 80 673 l 257
EndSplineSet
EndChar

StartChar: uni092D_uni094D.half
Encoding: 65617 -1 482
GlifName: uni092D__uni094D_.half
Width: 2048
VWidth: 0
Flags: W
LayerCount: 2
Fore
SplineSet
0 169 m 257
 0 0 l 257
 838 0 l 257
 838 169 l 257
 0 169 l 257
0 473 m 257
 0 0 l 257
 186 0 l 257
 186 473 l 257
 0 473 l 257
1582 1548 m 257
 1582 1348 l 257
 2028 1348 l 257
 2028 1548 l 257
 1582 1548 l 257
20 1532 m 257
 20 1079 l 257
 220 1079 l 257
 220 1532 l 257
 20 1532 l 257
46 1537 m 257
 46 1338 l 257
 838 1338 l 257
 838 1537 l 257
 46 1537 l 257
774 1537 m 257
 774 0 l 257
 972 0 l 257
 972 1537 l 257
 774 1537 l 257
80 473 m 257
 80 273 l 257
 2124 273 l 257
 2124 473 l 257
 80 473 l 257
EndSplineSet
EndChar

StartChar: uni092E
Encoding: 2350 2350 484
GlifName: uni092E_
Width: 2048
VWidth: 0
Flags: W
LayerCount: 2
Fore
SplineSet
0 169 m 257
 0 0 l 257
 608 0 l 257
 608 169 l 257
 0 169 l 257
0 473 m 257
 0 0 l 257
 186 0 l 257
 186 473 l 257
 0 473 l 257
0 1548 m 257
 0 1348 l 257
 2045 1348 l 257
 2045 1548 l 257
 0 1548 l 257
1770 1543 m 257
 1770 0 l 257
 1969 0 l 257
 1969 1543 l 257
 1770 1543 l 257
591 1537 m 257
 591 0 l 257
 790 0 l 257
 790 1537 l 257
 591 1537 l 257
97 473 m 257
 97 273 l 257
 1941 273 l 257
 1941 473 l 257
 97 473 l 257
EndSplineSet
EndChar

StartChar: uni092E_uni0930_uni094D.vatu
Encoding: 65619 -1 485
GlifName: uni092E__uni0930_uni094D_.vatu
Width: 2048
VWidth: 0
Flags: W
LayerCount: 2
Fore
SplineSet
52 0 m 257
 476 0 l 257
 1778 215 l 257
 1778 416 l 257
 52 0 l 257
0 419 m 257
 0 250 l 257
 608 250 l 257
 608 419 l 257
 0 419 l 257
0 723 m 257
 0 250 l 257
 186 250 l 257
 186 723 l 257
 0 723 l 257
0 1548 m 257
 0 1348 l 257
 2045 1348 l 257
 2045 1548 l 257
 0 1548 l 257
1770 1543 m 257
 1770 0 l 257
 1969 0 l 257
 1969 1543 l 257
 1770 1543 l 257
591 1537 m 257
 591 249 l 257
 790 249 l 257
 790 1537 l 257
 591 1537 l 257
97 723 m 257
 97 523 l 257
 1941 523 l 257
 1941 723 l 257
 97 723 l 257
EndSplineSet
EndChar

StartChar: uni092E_uni094D.half
Encoding: 65620 -1 486
GlifName: uni092E__uni094D_.half
Width: 2048
VWidth: 0
Flags: W
LayerCount: 2
Fore
SplineSet
0 169 m 257
 0 0 l 257
 608 0 l 257
 608 169 l 257
 0 169 l 257
0 473 m 257
 0 0 l 257
 186 0 l 257
 186 473 l 257
 0 473 l 257
0 1548 m 257
 0 1348 l 257
 2045 1348 l 257
 2045 1548 l 257
 0 1548 l 257
591 1537 m 257
 591 0 l 257
 790 0 l 257
 790 1537 l 257
 591 1537 l 257
97 473 m 257
 97 273 l 257
 2093 273 l 257
 2093 473 l 257
 97 473 l 257
EndSplineSet
EndChar

StartChar: uni092F
Encoding: 2351 2351 488
GlifName: uni092F_
Width: 2048
VWidth: 0
Flags: W
LayerCount: 2
Fore
SplineSet
-9 1548 m 257
 -9 1351 l 257
 2057 1351 l 257
 2057 1548 l 257
 -9 1548 l 257
1722 1531 m 257
 1722 0 l 257
 1923 0 l 257
 1923 1531 l 257
 1722 1531 l 257
134 1484 m 257
 627 846 l 257
 837 846 l 257
 328 1537 l 257
 134 1484 l 257
627 846 m 257
 136 472 l 257
 299 405 l 257
 837 846 l 257
 627 846 l 257
343 626 m 257
 294 412 l 257
 1852 185 l 257
 1929 358 l 257
 343 626 l 257
EndSplineSet
EndChar

StartChar: uni092F_uni0930_uni094D.vatu
Encoding: 65622 -1 489
GlifName: uni092F__uni0930_uni094D_.vatu
Width: 2048
VWidth: 0
Flags: W
LayerCount: 2
Fore
SplineSet
52 0 m 257
 476 0 l 257
 1778 215 l 257
 1778 416 l 257
 52 0 l 257
-9 1548 m 257
 -9 1351 l 257
 2057 1351 l 257
 2057 1548 l 257
 -9 1548 l 257
1722 1531 m 257
 1722 0 l 257
 1923 0 l 257
 1923 1531 l 257
 1722 1531 l 257
134 1484 m 257
 627 846 l 257
 837 846 l 257
 328 1537 l 257
 134 1484 l 257
627 846 m 257
 136 472 l 257
 299 405 l 257
 837 846 l 257
 627 846 l 257
343 626 m 257
 294 412 l 257
 1852 185 l 257
 1929 358 l 257
 343 626 l 257
EndSplineSet
EndChar

StartChar: uni092F_uni094D.half
Encoding: 65623 -1 490
GlifName: uni092F__uni094D_.half
Width: 2048
VWidth: 0
Flags: W
LayerCount: 2
Fore
SplineSet
-9 1548 m 257
 -9 1351 l 257
 2057 1351 l 257
 2057 1548 l 257
 -9 1548 l 257
334 1484 m 257
 827 846 l 257
 1037 846 l 257
 528 1537 l 257
 334 1484 l 257
827 846 m 257
 336 472 l 257
 499 405 l 257
 1037 846 l 257
 827 846 l 257
543 626 m 257
 494 412 l 257
 2052 185 l 257
 2129 358 l 257
 543 626 l 257
EndSplineSet
EndChar

StartChar: uni0930
Encoding: 2352 2352 492
GlifName: uni0930
Width: 2048
VWidth: 0
Flags: W
LayerCount: 2
Fore
SplineSet
0 1548 m 257
 0 1350 l 257
 2048 1350 l 257
 2048 1548 l 257
 0 1548 l 257
1098 1537 m 257
 1098 790 l 257
 1298 790 l 257
 1298 1537 l 257
 1098 1537 l 257
1298 802 m 257
 352 802 l 257
 352 603 l 257
 1298 603 l 257
 1298 802 l 257
352 603 m 257
 1212 -50 l 257
 1386 41 l 257
 524 694 l 257
 352 603 l 257
EndSplineSet
EndChar

StartChar: uni0930_uni0930_uni094D.vatu
Encoding: 65625 -1 493
GlifName: uni0930_uni0930_uni094D_.vatu
Width: 2048
VWidth: 0
Flags: W
LayerCount: 2
Fore
SplineSet
52 0 m 257
 476 0 l 257
 1122 202 l 257
 950 334 l 257
 52 0 l 257
0 1548 m 257
 0 1350 l 257
 2048 1350 l 257
 2048 1548 l 257
 0 1548 l 257
1098 1537 m 257
 1098 790 l 257
 1298 790 l 257
 1298 1537 l 257
 1098 1537 l 257
1298 802 m 257
 352 802 l 257
 352 603 l 257
 1298 603 l 257
 1298 802 l 257
352 603 m 257
 1212 -50 l 257
 1386 41 l 257
 524 694 l 257
 352 603 l 257
EndSplineSet
EndChar

StartChar: uni0930_uni0941.blws
Encoding: 65626 -1 494
GlifName: uni0930_uni0941.blws
Width: 2048
VWidth: 0
Flags: W
LayerCount: 2
Fore
SplineSet
960.5 877.5 m 257
 1890.5 877.5 l 257
 1890.5 1077.5 l 257
 960.5 1077.5 l 257
 960.5 877.5 l 257
1783.5 379.5 m 257
 1982.5 379.5 l 257
 1982.5 1078.5 l 257
 1783.5 1078.5 l 257
 1783.5 379.5 l 257
1401.5 379.5 m 257
 1880.5 379.5 l 257
 1880.5 579.5 l 257
 1401.5 579.5 l 257
 1401.5 379.5 l 257
0 1548 m 257
 0 1350 l 257
 2044 1350 l 257
 2044 1548 l 257
 0 1548 l 257
876 1537 m 257
 876 790 l 257
 1076 790 l 257
 1076 1537 l 257
 876 1537 l 257
1076 802 m 257
 131 802 l 257
 131 603 l 257
 1076 603 l 257
 1076 802 l 257
131 603 m 257
 991 -50 l 257
 1164 41 l 257
 303 694 l 257
 131 603 l 257
EndSplineSet
EndChar

StartChar: uni0930_uni0942.blws
Encoding: 65627 -1 495
GlifName: uni0930_uni0942.blws
Width: 2048
VWidth: 0
Flags: W
LayerCount: 2
Fore
SplineSet
1543 539 m 257
 1543 739 l 257
 1198 739 l 257
 1198 539 l 257
 1543 539 l 257
1399 735 m 257
 1399 1024 l 257
 1198 1024 l 257
 1198 735 l 257
 1399 735 l 257
934 1024 m 257
 934 825 l 257
 1575 825 l 257
 1575 1024 l 257
 934 1024 l 257
1575 828 m 257
 2048 594 l 257
 2048 774 l 257
 1575 1024 l 257
 1575 828 l 257
0 1548 m 257
 0 1350 l 257
 2044 1350 l 257
 2044 1548 l 257
 0 1548 l 257
763 1537 m 257
 763 790 l 257
 963 790 l 257
 963 1537 l 257
 763 1537 l 257
963 802 m 257
 18 802 l 257
 18 603 l 257
 963 603 l 257
 963 802 l 257
18 603 m 257
 878 -50 l 257
 1051 41 l 257
 190 694 l 257
 18 603 l 257
EndSplineSet
EndChar

StartChar: uni0930_uni094D.abvs
Encoding: 65628 -1 496
GlifName: uni0930_uni094D_.abvs
Width: 2048
VWidth: 0
Flags: W
LayerCount: 2
Fore
SplineSet
-16 1548 m 257
 182 1548 l 257
 182 1871 l 257
 -16 1871 l 257
 -16 1548 l 257
244 2142 m 257
 244 1942 l 257
 572 1942 l 257
 572 2142 l 257
 244 2142 l 257
244 2142 m 257
 -17 1869 l 257
 181 1869 l 257
 244 1942 l 257
 244 2142 l 257
EndSplineSet
EndChar

StartChar: uni0930_uni094D.blwf
Encoding: 65629 -1 497
GlifName: uni0930_uni094D_.blwf
Width: 2048
VWidth: 0
Flags: W
LayerCount: 2
Fore
SplineSet
-14 1548 m 257
 -14 1351 l 257
 2050 1351 l 257
 2050 1548 l 257
 -14 1548 l 257
-971 -210 m 257
 -747 -590 l 257
 -465 -590 l 257
 -849 -41 l 257
 -971 -210 l 257
-849 -41 m 257
 -1256 -599 l 257
 -1035 -599 l 257
 -734 -206 l 257
 -849 -41 l 257
EndSplineSet
EndChar

StartChar: uni0930_uni094D.half
Encoding: 65630 -1 498
GlifName: uni0930_uni094D_.half
Width: 2048
VWidth: 0
Flags: W
LayerCount: 2
Fore
SplineSet
0 1548 m 257
 0 1350 l 257
 2048 1350 l 257
 2048 1548 l 257
 0 1548 l 257
2048 1099 m 257
 1448 802 l 257
 1448 603 l 257
 2048 871 l 257
 2048 1099 l 257
1448 802 m 257
 838 802 l 257
 838 603 l 257
 1448 603 l 257
 1448 802 l 257
250 1023 m 257
 838 596 l 257
 838 784 l 257
 295 1189 l 257
 250 1023 l 257
EndSplineSet
EndChar

StartChar: uni0930_uni094D.rphf
Encoding: 65632 -1 500
GlifName: uni0930_uni094D_.rphf
Width: 2048
VWidth: 0
Flags: W
LayerCount: 2
Fore
SplineSet
-11 1548 m 257
 -11 1352 l 257
 2052 1352 l 257
 2052 1548 l 257
 -11 1548 l 257
-516 1548 m 257
 -318 1548 l 257
 -318 1871 l 257
 -516 1871 l 257
 -516 1548 l 257
-256 2142 m 257
 -256 1942 l 257
 72 1942 l 257
 72 2142 l 257
 -256 2142 l 257
-256 2142 m 257
 -517 1869 l 257
 -319 1869 l 257
 -256 1942 l 257
 -256 2142 l 257
EndSplineSet
EndChar

StartChar: uni0930_uni094D.vatu
Encoding: 65633 -1 501
GlifName: uni0930_uni094D_.vatu
Width: 2048
VWidth: 0
Flags: W
LayerCount: 2
Fore
SplineSet
52 0 m 257
 476 0 l 257
 1778 215 l 257
 1778 416 l 257
 52 0 l 257
EndSplineSet
EndChar

StartChar: uni0931
Encoding: 2353 2353 502
GlifName: uni0931
Width: 2048
VWidth: 0
Flags: W
LayerCount: 2
Fore
SplineSet
0 1548 m 257
 0 1350 l 257
 2049 1350 l 257
 2049 1548 l 257
 0 1548 l 257
1098 1537 m 257
 1098 790 l 257
 1298 790 l 257
 1298 1537 l 257
 1098 1537 l 257
1298 802 m 257
 353 802 l 257
 353 603 l 257
 1298 603 l 257
 1298 802 l 257
353 603 m 257
 1213 -50 l 257
 1386 41 l 257
 525 694 l 257
 353 603 l 257
1002 -118 m 257
 1002 -365 l 257
 1268 -365 l 257
 1268 -118 l 257
 1002 -118 l 257
EndSplineSet
EndChar

StartChar: uni0931_uni0930_uni094D.vatu
Encoding: 65634 -1 503
GlifName: uni0931_uni0930_uni094D_.vatu
Width: 2048
VWidth: 0
Flags: W
LayerCount: 2
Fore
SplineSet
52 0 m 257
 476 0 l 257
 1050 93 l 257
 1050 294 l 257
 52 0 l 257
0 1548 m 257
 0 1350 l 257
 2049 1350 l 257
 2049 1548 l 257
 0 1548 l 257
1098 1537 m 257
 1098 790 l 257
 1298 790 l 257
 1298 1537 l 257
 1098 1537 l 257
1298 802 m 257
 353 802 l 257
 353 603 l 257
 1298 603 l 257
 1298 802 l 257
353 603 m 257
 1213 -50 l 257
 1386 41 l 257
 525 694 l 257
 353 603 l 257
1002 -118 m 257
 1002 -365 l 257
 1268 -365 l 257
 1268 -118 l 257
 1002 -118 l 257
EndSplineSet
EndChar

StartChar: uni0932
Encoding: 2354 2354 505
GlifName: uni0932
Width: 2048
VWidth: 0
Flags: W
LayerCount: 2
Fore
SplineSet
-6 1548 m 257
 -6 1344 l 257
 2054 1344 l 257
 2054 1548 l 257
 -6 1548 l 257
1928 1548 m 257
 1728 1548 l 257
 1728 0 l 257
 1928 0 l 257
 1928 1548 l 257
38 703 m 257
 38 194 l 257
 240 194 l 257
 240 703 l 257
 38 703 l 257
38 782 m 257
 38 582 l 257
 1842 582 l 257
 1842 782 l 257
 38 782 l 257
892 689 m 257
 892 374 l 257
 1092 374 l 257
 1092 689 l 257
 892 689 l 257
EndSplineSet
EndChar

StartChar: uni0932_uni0930_uni094D.vatu
Encoding: 65636 -1 506
GlifName: uni0932_uni0930_uni094D_.vatu
Width: 2048
VWidth: 0
Flags: W
LayerCount: 2
Fore
SplineSet
52 0 m 257
 476 0 l 257
 1778 215 l 257
 1778 416 l 257
 52 0 l 257
-6 1548 m 257
 -6 1344 l 257
 2054 1344 l 257
 2054 1548 l 257
 -6 1548 l 257
1928 1548 m 257
 1728 1548 l 257
 1728 0 l 257
 1928 0 l 257
 1928 1548 l 257
38 703 m 257
 38 194 l 257
 240 194 l 257
 240 703 l 257
 38 703 l 257
38 782 m 257
 38 582 l 257
 1842 582 l 257
 1842 782 l 257
 38 782 l 257
892 689 m 257
 892 374 l 257
 1092 374 l 257
 1092 689 l 257
 892 689 l 257
EndSplineSet
EndChar

StartChar: uni0932_uni094D.half
Encoding: 65637 -1 507
GlifName: uni0932_uni094D_.half
Width: 2048
VWidth: 0
Flags: W
LayerCount: 2
Fore
SplineSet
-6 1548 m 257
 -6 1344 l 257
 2054 1344 l 257
 2054 1548 l 257
 -6 1548 l 257
238 703 m 257
 238 194 l 257
 440 194 l 257
 440 703 l 257
 238 703 l 257
238 782 m 257
 238 582 l 257
 2042 582 l 257
 2042 782 l 257
 238 782 l 257
1092 689 m 257
 1092 374 l 257
 1292 374 l 257
 1292 689 l 257
 1092 689 l 257
EndSplineSet
EndChar

StartChar: uni0933
Encoding: 2355 2355 509
GlifName: uni0933
Width: 2048
VWidth: 0
Flags: W
LayerCount: 2
Fore
SplineSet
-6 1548 m 257
 -6 1344 l 257
 2054 1344 l 257
 2054 1548 l 257
 -6 1548 l 257
1928 1548 m 257
 1728 1548 l 257
 1728 194 l 257
 1928 194 l 257
 1928 1548 l 257
38 703 m 257
 38 194 l 257
 240 194 l 257
 240 703 l 257
 38 703 l 257
38 782 m 257
 38 582 l 257
 1842 582 l 257
 1842 782 l 257
 38 782 l 257
892 689 m 257
 892 374 l 257
 1092 374 l 257
 1092 689 l 257
 892 689 l 257
40 391 m 257
 40 191 l 257
 1928 191 l 257
 1928 391 l 257
 40 391 l 257
EndSplineSet
EndChar

StartChar: uni0933_uni0930_uni094D.vatu
Encoding: 65639 -1 510
GlifName: uni0933_uni0930_uni094D_.vatu
Width: 2048
VWidth: 0
Flags: W
LayerCount: 2
Fore
SplineSet
929 13 m 257
 1153 -367 l 257
 1435 -367 l 257
 1051 182 l 257
 929 13 l 257
1051 182 m 257
 644 -376 l 257
 865 -376 l 257
 1166 17 l 257
 1051 182 l 257
-6 1548 m 257
 -6 1344 l 257
 2054 1344 l 257
 2054 1548 l 257
 -6 1548 l 257
1928 1548 m 257
 1728 1548 l 257
 1728 194 l 257
 1928 194 l 257
 1928 1548 l 257
38 703 m 257
 38 194 l 257
 240 194 l 257
 240 703 l 257
 38 703 l 257
38 782 m 257
 38 582 l 257
 1842 582 l 257
 1842 782 l 257
 38 782 l 257
892 689 m 257
 892 374 l 257
 1092 374 l 257
 1092 689 l 257
 892 689 l 257
40 391 m 257
 40 191 l 257
 1928 191 l 257
 1928 391 l 257
 40 391 l 257
EndSplineSet
EndChar

StartChar: uni0933_uni094D.half
Encoding: 65640 -1 511
GlifName: uni0933_uni094D_.half
Width: 2048
VWidth: 0
Flags: W
LayerCount: 2
Fore
SplineSet
-6 1548 m 257
 -6 1344 l 257
 2054 1344 l 257
 2054 1548 l 257
 -6 1548 l 257
1928 794 m 257
 1728 794 l 257
 1728 194 l 257
 1928 194 l 257
 1928 794 l 257
38 703 m 257
 38 194 l 257
 240 194 l 257
 240 703 l 257
 38 703 l 257
38 782 m 257
 38 582 l 257
 1842 582 l 257
 1842 782 l 257
 38 782 l 257
892 689 m 257
 892 374 l 257
 1092 374 l 257
 1092 689 l 257
 892 689 l 257
40 391 m 257
 40 191 l 257
 1928 191 l 257
 1928 391 l 257
 40 391 l 257
EndSplineSet
EndChar

StartChar: uni0934
Encoding: 2356 2356 513
GlifName: uni0934
Width: 2048
VWidth: 0
Flags: W
LayerCount: 2
Fore
SplineSet
0 1548 m 257
 0 1344 l 257
 2059 1344 l 257
 2059 1548 l 257
 0 1548 l 257
1934 1548 m 257
 1734 1548 l 257
 1734 194 l 257
 1934 194 l 257
 1934 1548 l 257
43 703 m 257
 43 194 l 257
 246 194 l 257
 246 703 l 257
 43 703 l 257
43 782 m 257
 43 582 l 257
 1848 582 l 257
 1848 782 l 257
 43 782 l 257
898 689 m 257
 898 374 l 257
 1098 374 l 257
 1098 689 l 257
 898 689 l 257
45 391 m 257
 45 191 l 257
 1934 191 l 257
 1934 391 l 257
 45 391 l 257
1040 -34 m 257
 1040 -281 l 257
 1306 -281 l 257
 1306 -34 l 257
 1040 -34 l 257
EndSplineSet
EndChar

StartChar: uni0934_uni0930_uni094D.vatu
Encoding: 65642 -1 514
GlifName: uni0934_uni0930_uni094D_.vatu
Width: 2048
VWidth: 0
Flags: W
LayerCount: 2
Fore
SplineSet
929 5 m 257
 1153 -375 l 257
 1435 -375 l 257
 1051 174 l 257
 929 5 l 257
1051 174 m 257
 644 -384 l 257
 865 -384 l 257
 1166 9 l 257
 1051 174 l 257
0 1548 m 257
 0 1344 l 257
 2059 1344 l 257
 2059 1548 l 257
 0 1548 l 257
1934 1548 m 257
 1734 1548 l 257
 1734 194 l 257
 1934 194 l 257
 1934 1548 l 257
43 703 m 257
 43 194 l 257
 246 194 l 257
 246 703 l 257
 43 703 l 257
43 782 m 257
 43 582 l 257
 1848 582 l 257
 1848 782 l 257
 43 782 l 257
898 689 m 257
 898 374 l 257
 1098 374 l 257
 1098 689 l 257
 898 689 l 257
45 391 m 257
 45 191 l 257
 1934 191 l 257
 1934 391 l 257
 45 391 l 257
70 95 m 257
 70 -152 l 257
 336 -152 l 257
 336 95 l 257
 70 95 l 257
EndSplineSet
EndChar

StartChar: uni0934_uni094D.half
Encoding: 65643 -1 515
GlifName: uni0934_uni094D_.half
Width: 2048
VWidth: 0
Flags: W
LayerCount: 2
Fore
SplineSet
0 1548 m 257
 0 1344 l 257
 2059 1344 l 257
 2059 1548 l 257
 0 1548 l 257
1934 794 m 257
 1734 794 l 257
 1734 194 l 257
 1934 194 l 257
 1934 794 l 257
43 703 m 257
 43 194 l 257
 246 194 l 257
 246 703 l 257
 43 703 l 257
43 782 m 257
 43 582 l 257
 1848 582 l 257
 1848 782 l 257
 43 782 l 257
898 689 m 257
 898 374 l 257
 1098 374 l 257
 1098 689 l 257
 898 689 l 257
45 391 m 257
 45 191 l 257
 1934 191 l 257
 1934 391 l 257
 45 391 l 257
1040 -34 m 257
 1040 -281 l 257
 1306 -281 l 257
 1306 -34 l 257
 1040 -34 l 257
EndSplineSet
EndChar

StartChar: uni0935
Encoding: 2357 2357 517
GlifName: uni0935
Width: 2048
VWidth: 0
Flags: W
LayerCount: 2
Fore
SplineSet
0 1548 m 257
 0 1351 l 257
 2048 1351 l 257
 2048 1548 l 257
 0 1548 l 257
1684 1437 m 257
 1684 -25 l 257
 1884 -25 l 257
 1884 1437 l 257
 1684 1437 l 257
76 1023 m 257
 76 232 l 257
 276 232 l 257
 276 1023 l 257
 76 1023 l 257
78 404 m 257
 78 204 l 257
 1834 204 l 257
 1834 404 l 257
 78 404 l 257
76 1037 m 257
 76 820 l 257
 614 820 l 257
 614 1037 l 257
 76 1037 l 257
EndSplineSet
EndChar

StartChar: uni0935_uni0930_uni094D.vatu
Encoding: 65645 -1 518
GlifName: uni0935_uni0930_uni094D_.vatu
Width: 2048
VWidth: 0
Flags: W
LayerCount: 2
Fore
SplineSet
52 0 m 257
 476 0 l 257
 1778 215 l 257
 1778 416 l 257
 52 0 l 257
0 1548 m 257
 0 1351 l 257
 2048 1351 l 257
 2048 1548 l 257
 0 1548 l 257
1684 1437 m 257
 1684 -25 l 257
 1884 -25 l 257
 1884 1437 l 257
 1684 1437 l 257
76 1221 m 257
 76 432 l 257
 276 432 l 257
 276 1221 l 257
 76 1221 l 257
78 604 m 257
 78 404 l 257
 1834 404 l 257
 1834 604 l 257
 78 604 l 257
76 1237 m 257
 76 1023 l 257
 614 1023 l 257
 614 1237 l 257
 76 1237 l 257
EndSplineSet
EndChar

StartChar: uni0935_uni094D.half
Encoding: 65646 -1 519
GlifName: uni0935_uni094D_.half
Width: 2048
VWidth: 0
Flags: W
LayerCount: 2
Fore
SplineSet
0 1548 m 257
 0 1351 l 257
 2048 1351 l 257
 2048 1548 l 257
 0 1548 l 257
276 1023 m 257
 276 232 l 257
 476 232 l 257
 476 1023 l 257
 276 1023 l 257
278 404 m 257
 278 204 l 257
 2034 204 l 257
 2034 404 l 257
 278 404 l 257
276 1037 m 257
 276 820 l 257
 814 820 l 257
 814 1037 l 257
 276 1037 l 257
EndSplineSet
EndChar

StartChar: uni0936
Encoding: 2358 2358 521
GlifName: uni0936
Width: 2048
VWidth: 0
Flags: W
LayerCount: 2
Fore
SplineSet
1309 1548 m 257
 1309 1349 l 257
 1998 1349 l 257
 1998 1548 l 257
 1309 1548 l 257
1748 1520 m 257
 1748 0 l 257
 1949 0 l 257
 1949 1520 l 257
 1748 1520 l 257
50 1543 m 257
 50 1224 l 257
 250 1224 l 257
 250 1543 l 257
 50 1543 l 257
50 1548 m 257
 50 1348 l 257
 993 1348 l 257
 993 1548 l 257
 50 1548 l 257
869 1548 m 257
 869 816 l 257
 1069 816 l 257
 1069 1548 l 257
 869 1548 l 257
113 1023 m 257
 113 816 l 257
 1060 816 l 257
 1060 1023 l 257
 113 1023 l 257
110 822 m 257
 942 8 l 257
 1109 68 l 257
 277 882 l 257
 110 822 l 257
EndSplineSet
EndChar

StartChar: uni0936_uni0930_uni094D.vatu
Encoding: 65648 -1 522
GlifName: uni0936_uni0930_uni094D_.vatu
Width: 2048
VWidth: 0
Flags: W
LayerCount: 2
Fore
SplineSet
182 0 m 257
 439 0 l 257
 1803 355 l 257
 1803 556 l 257
 182 0 l 257
1795 1548 m 257
 1795 1349 l 257
 2048 1349 l 257
 2048 1548 l 257
 1795 1548 l 257
1798 1520 m 257
 1798 0 l 257
 1999 0 l 257
 1999 1520 l 257
 1798 1520 l 257
100 1543 m 257
 100 1224 l 257
 300 1224 l 257
 300 1543 l 257
 100 1543 l 257
100 1548 m 257
 100 1348 l 257
 1043 1348 l 257
 1043 1548 l 257
 100 1548 l 257
919 1548 m 257
 919 961 l 257
 1119 961 l 257
 1119 1548 l 257
 919 1548 l 257
63 734 m 257
 209 588 l 257
 1197 861 l 257
 919 961 l 257
 63 734 l 257
115 1235 m 257
 1797 658 l 257
 1918 788 l 257
 236 1365 l 257
 115 1235 l 257
EndSplineSet
EndChar

StartChar: uni0936_uni094D.half
Encoding: 65649 -1 523
GlifName: uni0936_uni094D_.half
Width: 2048
VWidth: 0
Flags: W
LayerCount: 2
Fore
SplineSet
450 1543 m 257
 450 1224 l 257
 650 1224 l 257
 650 1543 l 257
 450 1543 l 257
450 1548 m 257
 450 1348 l 257
 1393 1348 l 257
 1393 1548 l 257
 450 1548 l 257
1269 1548 m 257
 1269 816 l 257
 1469 816 l 257
 1469 1548 l 257
 1269 1548 l 257
513 1023 m 257
 513 816 l 257
 1460 816 l 257
 1460 1023 l 257
 513 1023 l 257
510 822 m 257
 1342 8 l 257
 1509 68 l 257
 677 882 l 257
 510 822 l 257
EndSplineSet
EndChar

StartChar: uni0937
Encoding: 2359 2359 525
GlifName: uni0937
Width: 2048
VWidth: 0
Flags: W
LayerCount: 2
Fore
SplineSet
-8 1548 m 257
 -8 1350 l 257
 2056 1350 l 257
 2056 1548 l 257
 -8 1548 l 257
1716 1537 m 257
 1716 0 l 257
 1916 0 l 257
 1916 1537 l 257
 1716 1537 l 257
94 1548 m 257
 94 965 l 257
 294 965 l 257
 294 1548 l 257
 94 1548 l 257
94 1023 m 257
 94 824 l 257
 1882 824 l 257
 1882 1023 l 257
 94 1023 l 257
98 1352 m 257
 1450 981 l 257
 1916 981 l 257
 630 1352 l 257
 98 1352 l 257
EndSplineSet
EndChar

StartChar: uni0937_uni0930_uni094D.vatu
Encoding: 65651 -1 526
GlifName: uni0937_uni0930_uni094D_.vatu
Width: 2048
VWidth: 0
Flags: W
LayerCount: 2
Fore
SplineSet
52 0 m 257
 476 0 l 257
 1778 215 l 257
 1778 416 l 257
 52 0 l 257
-8 1548 m 257
 -8 1350 l 257
 2056 1350 l 257
 2056 1548 l 257
 -8 1548 l 257
1716 1537 m 257
 1716 0 l 257
 1916 0 l 257
 1916 1537 l 257
 1716 1537 l 257
94 1548 m 257
 94 965 l 257
 294 965 l 257
 294 1548 l 257
 94 1548 l 257
94 1023 m 257
 94 824 l 257
 1882 824 l 257
 1882 1023 l 257
 94 1023 l 257
98 1352 m 257
 1450 981 l 257
 1916 981 l 257
 630 1352 l 257
 98 1352 l 257
EndSplineSet
EndChar

StartChar: uni0937_uni094D.half
Encoding: 65652 -1 527
GlifName: uni0937_uni094D_.half
Width: 2048
VWidth: 0
Flags: W
LayerCount: 2
Fore
SplineSet
-8 1548 m 257
 -8 1350 l 257
 2056 1350 l 257
 2056 1548 l 257
 -8 1548 l 257
294 1548 m 257
 294 965 l 257
 494 965 l 257
 494 1548 l 257
 294 1548 l 257
294 1023 m 257
 294 824 l 257
 2082 824 l 257
 2082 1023 l 257
 294 1023 l 257
298 1352 m 257
 1650 981 l 257
 2116 981 l 257
 830 1352 l 257
 298 1352 l 257
EndSplineSet
EndChar

StartChar: uni0938
Encoding: 2360 2360 529
GlifName: uni0938
Width: 2048
VWidth: 0
Flags: W
LayerCount: 2
Fore
SplineSet
0 1548 m 257
 0 1350 l 257
 2052 1350 l 257
 2052 1548 l 257
 0 1548 l 257
1738 1548 m 257
 1738 0 l 257
 1938 0 l 257
 1938 1548 l 257
 1738 1548 l 257
154 1509 m 257
 154 729 l 257
 353 729 l 257
 353 1509 l 257
 154 1509 l 257
154 858 m 257
 154 659 l 257
 1886 659 l 257
 1886 858 l 257
 154 858 l 257
154 658 m 257
 993 0 l 257
 1190 0 l 257
 344 742 l 257
 154 658 l 257
EndSplineSet
EndChar

StartChar: uni0938_uni0930_uni094D.vatu
Encoding: 65654 -1 530
GlifName: uni0938_uni0930_uni094D_.vatu
Width: 2048
VWidth: 0
Flags: W
LayerCount: 2
Fore
SplineSet
1056 0 m 257
 1480 0 l 257
 1782 215 l 257
 1782 416 l 257
 1056 0 l 257
0 1548 m 257
 0 1350 l 257
 2056 1350 l 257
 2056 1548 l 257
 0 1548 l 257
1742 1548 m 257
 1742 0 l 257
 1942 0 l 257
 1942 1548 l 257
 1742 1548 l 257
158 1509 m 257
 158 729 l 257
 357 729 l 257
 357 1509 l 257
 158 1509 l 257
158 858 m 257
 158 659 l 257
 1890 659 l 257
 1890 858 l 257
 158 858 l 257
158 658 m 257
 797 0 l 257
 994 0 l 257
 348 742 l 257
 158 658 l 257
EndSplineSet
EndChar

StartChar: uni0938_uni094D.half
Encoding: 65655 -1 531
GlifName: uni0938_uni094D_.half
Width: 2048
VWidth: 0
Flags: W
LayerCount: 2
Fore
SplineSet
0 1548 m 257
 0 1350 l 257
 2052 1350 l 257
 2052 1548 l 257
 0 1548 l 257
354 1509 m 257
 354 729 l 257
 553 729 l 257
 553 1509 l 257
 354 1509 l 257
354 858 m 257
 354 659 l 257
 2086 659 l 257
 2086 858 l 257
 354 858 l 257
354 658 m 257
 1193 0 l 257
 1390 0 l 257
 544 742 l 257
 354 658 l 257
EndSplineSet
EndChar

StartChar: uni0939
Encoding: 2361 2361 533
GlifName: uni0939
Width: 2048
VWidth: 0
Flags: W
LayerCount: 2
Fore
SplineSet
0 1548 m 257
 0 1351 l 257
 2052 1351 l 257
 2052 1548 l 257
 0 1548 l 257
968 1510 m 257
 968 1174 l 257
 1164 1174 l 257
 1164 1510 l 257
 968 1510 l 257
1170 1196 m 257
 524 1196 l 257
 524 996 l 257
 1170 996 l 257
 1170 1196 l 257
396 1195 m 257
 396 785 l 257
 598 785 l 257
 598 1195 l 257
 396 1195 l 257
1204 789 m 257
 1204 577 l 257
 1402 577 l 257
 1402 789 l 257
 1204 789 l 257
142 841 m 257
 142 643 l 257
 1402 643 l 257
 1402 841 l 257
 142 841 l 257
142 793 m 257
 142 215 l 257
 342 215 l 257
 342 793 l 257
 142 793 l 257
340 215 m 257
 142 215 l 257
 652 0 l 257
 1110 0 l 257
 340 215 l 257
EndSplineSet
EndChar

StartChar: uni0939_uni0930_uni094D.vatu
Encoding: 65657 -1 534
GlifName: uni0939_uni0930_uni094D_.vatu
Width: 2048
VWidth: 0
Flags: W
LayerCount: 2
Fore
SplineSet
668 280 m 257
 1092 280 l 257
 1580 403 l 257
 1580 604 l 257
 668 280 l 257
0 1548 m 257
 0 1351 l 257
 2052 1351 l 257
 2052 1548 l 257
 0 1548 l 257
968 1510 m 257
 968 1174 l 257
 1164 1174 l 257
 1164 1510 l 257
 968 1510 l 257
1170 1196 m 257
 524 1196 l 257
 524 996 l 257
 1170 996 l 257
 1170 1196 l 257
396 1195 m 257
 396 785 l 257
 598 785 l 257
 598 1195 l 257
 396 1195 l 257
1504 789 m 257
 1504 377 l 257
 1702 377 l 257
 1702 789 l 257
 1504 789 l 257
142 841 m 257
 142 643 l 257
 1702 643 l 257
 1702 841 l 257
 142 841 l 257
142 793 m 257
 142 215 l 257
 342 215 l 257
 342 793 l 257
 142 793 l 257
340 215 m 257
 142 215 l 257
 652 0 l 257
 1110 0 l 257
 340 215 l 257
EndSplineSet
EndChar

StartChar: uni0939_uni0943.blws
Encoding: 65658 -1 535
GlifName: uni0939_uni0943.blws
Width: 2048
VWidth: 0
Flags: W
LayerCount: 2
Fore
SplineSet
1265 756 m 257
 1265 306 l 257
 1465 306 l 257
 1465 756 l 257
 1265 756 l 257
1337 506 m 257
 1337 306 l 257
 1713 306 l 257
 1713 506 l 257
 1337 506 l 257
-6 1548 m 257
 -6 1348 l 257
 2049 1348 l 257
 2049 1548 l 257
 -6 1548 l 257
965 1510 m 257
 965 1174 l 257
 1162 1174 l 257
 1162 1510 l 257
 965 1510 l 257
1162 1196 m 257
 450 1196 l 257
 450 996 l 257
 1162 996 l 257
 1162 1196 l 257
450 1195 m 257
 450 785 l 257
 651 785 l 257
 651 1195 l 257
 450 1195 l 257
139 841 m 257
 139 643 l 257
 1662 643 l 257
 1662 841 l 257
 139 841 l 257
139 793 m 257
 139 215 l 257
 339 215 l 257
 339 793 l 257
 139 793 l 257
338 215 m 257
 139 215 l 257
 701 0 l 257
 908 0 l 257
 338 215 l 257
EndSplineSet
EndChar

StartChar: uni0939_uni094D.half
Encoding: 65659 -1 536
GlifName: uni0939_uni094D_.half
Width: 2048
VWidth: 0
Flags: W
LayerCount: 2
Fore
SplineSet
0 1548 m 257
 0 1351 l 257
 2052 1351 l 257
 2052 1548 l 257
 0 1548 l 257
1368 1510 m 257
 1368 1174 l 257
 1564 1174 l 257
 1564 1510 l 257
 1368 1510 l 257
1570 1196 m 257
 924 1196 l 257
 924 996 l 257
 1570 996 l 257
 1570 1196 l 257
796 1195 m 257
 796 785 l 257
 998 785 l 257
 998 1195 l 257
 796 1195 l 257
542 841 m 257
 542 643 l 257
 2102 643 l 257
 2102 841 l 257
 542 841 l 257
542 793 m 257
 542 215 l 257
 742 215 l 257
 742 793 l 257
 542 793 l 257
740 215 m 257
 542 215 l 257
 1052 0 l 257
 1510 0 l 257
 740 215 l 257
EndSplineSet
EndChar

StartChar: uni0939_uni094D_uni092E.pres
Encoding: 65661 -1 538
GlifName: uni0939_uni094D__uni092E_.pres
Width: 2048
VWidth: 0
Flags: W
LayerCount: 2
Fore
SplineSet
-6 1548 m 257
 -6 1351 l 257
 2051 1351 l 257
 2051 1548 l 257
 -6 1548 l 257
1209 1510 m 257
 1209 1174 l 257
 1406 1174 l 257
 1406 1510 l 257
 1209 1510 l 257
1411 1196 m 257
 722 1196 l 257
 722 996 l 257
 1411 996 l 257
 1411 1196 l 257
594 1195 m 257
 594 785 l 257
 795 785 l 257
 795 1195 l 257
 594 1195 l 257
1285 841 m 257
 1285 82 l 257
 1483 82 l 257
 1483 841 l 257
 1285 841 l 257
29 841 m 257
 29 643 l 257
 1455 643 l 257
 1455 841 l 257
 29 841 l 257
29 793 m 257
 29 316 l 257
 229 316 l 257
 229 793 l 257
 29 793 l 257
997 169 m 257
 997 0 l 257
 1484 0 l 257
 1484 169 l 257
 997 169 l 257
909 473 m 257
 909 0 l 257
 1095 0 l 257
 1095 473 l 257
 909 473 l 257
1782 1543 m 257
 1782 0 l 257
 1981 0 l 257
 1981 1543 l 257
 1782 1543 l 257
1055 473 m 257
 1055 273 l 257
 1857 273 l 257
 1857 473 l 257
 1055 473 l 257
235 316 m 257
 29 316 l 257
 587 0 l 257
 663 8 l 257
 235 316 l 257
EndSplineSet
EndChar

StartChar: uni093A
Encoding: 2362 2362 539
GlifName: uni093A_
Width: 2048
VWidth: 0
Flags: W
LayerCount: 2
Fore
SplineSet
938 1633 m 257
 938 1090 l 257
 1110 1090 l 257
 1110 1633 l 257
 938 1633 l 257
EndSplineSet
EndChar

StartChar: uni093B
Encoding: 2363 2363 540
GlifName: uni093B_
Width: 2048
VWidth: 0
Flags: W
LayerCount: 2
Fore
SplineSet
924 1548 m 257
 924 0 l 257
 1124 0 l 257
 1124 1548 l 257
 924 1548 l 257
96 1228 m 257
 96 1028 l 257
 1952 1028 l 257
 1952 1228 l 257
 96 1228 l 257
EndSplineSet
EndChar

StartChar: uni093C
Encoding: 2364 2364 541
GlifName: uni093C_
Width: 2048
VWidth: 0
Flags: W
LayerCount: 2
Fore
SplineSet
-1033 -234 m 257
 -1033 -481 l 257
 -767 -481 l 257
 -767 -234 l 257
 -1033 -234 l 257
EndSplineSet
EndChar

StartChar: uni093D
Encoding: 2365 2365 542
GlifName: uni093D_
Width: 2048
VWidth: 0
Flags: W
LayerCount: 2
Fore
SplineSet
856 1264 m 257
 856 1080 l 257
 1381 1080 l 257
 1381 1264 l 257
 856 1264 l 257
857 1079 m 257
 1161 269 l 257
 1351 269 l 257
 1058 1079 l 257
 857 1079 l 257
967 269 m 257
 967 104 l 257
 1351 104 l 257
 1351 269 l 257
 967 269 l 257
667 457 m 257
 968 104 l 257
 968 270 l 257
 812 548 l 257
 667 457 l 257
EndSplineSet
EndChar

StartChar: uni093E
Encoding: 2366 2366 543
GlifName: uni093E_
Width: 2048
VWidth: 0
Flags: W
LayerCount: 2
Fore
SplineSet
0 1548 m 257
 0 1350 l 257
 2048 1350 l 257
 2048 1548 l 257
 0 1548 l 257
922 1514 m 257
 922 0 l 257
 1122 0 l 257
 1122 1514 l 257
 922 1514 l 257
EndSplineSet
EndChar

StartChar: uni093F
Encoding: 2367 2367 545
GlifName: uni093F_
Width: 2048
VWidth: 0
Flags: W
LayerCount: 2
Fore
SplineSet
30 1548 m 257
 30 1352 l 257
 2042 1352 l 257
 2042 1548 l 257
 30 1548 l 257
996 1784 m 257
 996 0 l 257
 1195 0 l 257
 1195 1784 l 257
 996 1784 l 257
993 1933 m 257
 993 1733 l 257
 2366 1733 l 257
 2366 1933 l 257
 993 1933 l 257
2169 1909 m 257
 2169 1621 l 257
 2369 1621 l 257
 2369 1909 l 257
 2169 1909 l 257
EndSplineSet
EndChar

StartChar: uni0940
Encoding: 2368 2368 546
GlifName: uni0940
Width: 2048
VWidth: 0
Flags: W
LayerCount: 2
Fore
SplineSet
0 1548 m 257
 0 1350 l 257
 2048 1350 l 257
 2048 1548 l 257
 0 1548 l 257
1057 1748 m 257
 1057 12 l 257
 1256 12 l 257
 1256 1748 l 257
 1057 1748 l 257
1256 1694 m 257
 1256 1895 l 257
 -398 1895 l 257
 -398 1694 l 257
 1256 1694 l 257
-409 1895 m 257
 -409 1563 l 257
 -210 1563 l 257
 -210 1895 l 257
 -409 1895 l 257
EndSplineSet
EndChar

StartChar: uni0941
Encoding: 2369 2369 549
GlifName: uni0941
Width: 2048
VWidth: 0
Flags: W
LayerCount: 2
Fore
SplineSet
0 1548 m 257
 0 1350 l 257
 2048 1350 l 257
 2048 1548 l 257
 0 1548 l 257
-360 -23 m 257
 -360 -222 l 257
 70 -222 l 257
 70 -23 l 257
 -360 -23 l 257
-130 -40 m 257
 -130 -458 l 257
 70 -458 l 257
 70 -40 l 257
 -130 -40 l 257
-1028 -351 m 257
 -1028 -550 l 257
 70 -550 l 257
 70 -351 l 257
 -1028 -351 l 257
-1028 -183 m 257
 -1028 -448 l 257
 -828 -448 l 257
 -828 -183 l 257
 -1028 -183 l 257
EndSplineSet
EndChar

StartChar: uni0942
Encoding: 2370 2370 552
GlifName: uni0942
Width: 2048
VWidth: 0
Flags: W
LayerCount: 2
Fore
SplineSet
0 1548 m 257
 0 1353 l 257
 2048 1353 l 257
 2048 1548 l 257
 0 1548 l 257
-826 -485 m 257
 -826 -285 l 257
 -1140 -285 l 257
 -1140 -485 l 257
 -826 -485 l 257
-940 -289 m 257
 -940 0 l 257
 -1140 0 l 257
 -1140 -289 l 257
 -940 -289 l 257
-1140 0 m 257
 -1140 -199 l 257
 -324 -199 l 257
 -324 0 l 257
 -1140 0 l 257
-324 -196 m 257
 -70 -406 l 257
 192 -406 l 257
 -324 0 l 257
 -324 -196 l 257
EndSplineSet
EndChar

StartChar: uni0943
Encoding: 2371 2371 555
GlifName: uni0943
Width: 2048
VWidth: 0
Flags: W
LayerCount: 2
Fore
SplineSet
-5 1548 m 257
 -5 1349 l 257
 2048 1349 l 257
 2048 1548 l 257
 -5 1548 l 257
-8 9 m 257
 -790 -133 l 257
 -720 -320 l 257
 61 -178 l 257
 -8 9 l 257
-790 -132 m 257
 -612 -611 l 257
 -424 -580 l 257
 -602 -101 l 257
 -790 -132 l 257
-670 -455 m 257
 -600 -643 l 257
 261 -471 l 257
 191 -284 l 257
 -670 -455 l 257
EndSplineSet
EndChar

StartChar: uni0944
Encoding: 2372 2372 558
GlifName: uni0944
Width: 2048
VWidth: 0
Flags: W
LayerCount: 2
Fore
SplineSet
14 1548 m 257
 14 1347 l 257
 2048 1347 l 257
 2048 1548 l 257
 14 1548 l 257
-88 0 m 257
 -833 0 l 257
 -833 -196 l 257
 -88 -196 l 257
 -88 0 l 257
-888 0 m 257
 -888 -872 l 257
 -688 -872 l 257
 -688 0 l 257
 -888 0 l 257
-823 -321 m 257
 -823 -522 l 257
 -62 -522 l 257
 -62 -321 l 257
 -823 -321 l 257
-816 -672 m 257
 -816 -872 l 257
 -49 -872 l 257
 -49 -672 l 257
 -816 -672 l 257
EndSplineSet
EndChar

StartChar: uni0945
Encoding: 2373 2373 561
GlifName: uni0945
Width: 2048
VWidth: 0
Flags: W
LayerCount: 2
Fore
SplineSet
-12 1553 m 257
 -12 1354 l 257
 2048 1354 l 257
 2048 1553 l 257
 -12 1553 l 257
-937 2124 m 257
 -937 1639 l 257
 -735 1639 l 257
 -735 2124 l 257
 -937 2124 l 257
-748 1841 m 257
 -748 1641 l 257
 246 1641 l 257
 246 1841 l 257
 -748 1841 l 257
210 2132 m 257
 210 1641 l 257
 410 1641 l 257
 410 2132 l 257
 210 2132 l 257
EndSplineSet
EndChar

StartChar: uni0946
Encoding: 2374 2374 564
GlifName: uni0946
Width: 2048
VWidth: 0
Flags: W
LayerCount: 2
Fore
SplineSet
-44 1548 m 257
 -44 1350 l 257
 2048 1350 l 257
 2048 1548 l 257
 -44 1548 l 257
-1084 2123 m 257
 -1084 1823 l 257
 -884 1823 l 257
 -884 2123 l 257
 -1084 2123 l 257
-1086 1963 m 257
 -1086 1763 l 257
 198 1763 l 257
 198 1963 l 257
 -1086 1963 l 257
0 1858 m 257
 0 1537 l 257
 198 1537 l 257
 198 1858 l 257
 0 1858 l 257
EndSplineSet
EndChar

StartChar: uni0947
Encoding: 2375 2375 567
GlifName: uni0947
Width: 2048
VWidth: 0
Flags: W
LayerCount: 2
Fore
SplineSet
5 1548 m 257
 5 1350 l 257
 2048 1350 l 257
 2048 1548 l 257
 5 1548 l 257
-691 1919 m 257
 81 1447 l 257
 239 1555 l 257
 -509 2044 l 257
 -691 1919 l 257
EndSplineSet
EndChar

StartChar: uni0948
Encoding: 2376 2376 570
GlifName: uni0948
Width: 2048
VWidth: 0
Flags: W
LayerCount: 2
Fore
SplineSet
-22 1548 m 257
 -22 1343 l 257
 2048 1343 l 257
 2048 1548 l 257
 -22 1548 l 257
-812 1750 m 257
 68 1548 l 257
 360 1548 l 257
 -676 1903 l 257
 -812 1750 l 257
178 1949 m 257
 240 1522 l 257
 452 1548 l 257
 374 1988 l 257
 178 1949 l 257
EndSplineSet
EndChar

StartChar: uni0949
Encoding: 2377 2377 573
GlifName: uni0949
Width: 2048
VWidth: 0
Flags: W
LayerCount: 2
Fore
SplineSet
8 1548 m 257
 8 1347 l 257
 2048 1347 l 257
 2048 1548 l 257
 8 1548 l 257
918 1504 m 257
 918 0 l 257
 1120 0 l 257
 1120 1504 l 257
 918 1504 l 257
116 2085 m 257
 116 1639 l 257
 316 1639 l 257
 316 2085 l 257
 116 2085 l 257
260 1841 m 257
 260 1641 l 257
 1790 1641 l 257
 1790 1841 l 257
 260 1841 l 257
1718 2083 m 257
 1718 1641 l 257
 1918 1641 l 257
 1918 2083 l 257
 1718 2083 l 257
EndSplineSet
EndChar

StartChar: uni094A
Encoding: 2378 2378 576
GlifName: uni094A_
Width: 2048
VWidth: 0
Flags: W
LayerCount: 2
Fore
SplineSet
0 1548 m 257
 0 1352 l 257
 2048 1352 l 257
 2048 1548 l 257
 0 1548 l 257
1050 1518 m 257
 1050 0 l 257
 1244 0 l 257
 1244 1518 l 257
 1050 1518 l 257
-610 2062 m 257
 -610 1823 l 257
 -410 1823 l 257
 -410 2062 l 257
 -610 2062 l 257
-610 1866 m 257
 -610 1665 l 257
 1072 1665 l 257
 1072 1866 l 257
 -610 1866 l 257
1044 1866 m 257
 1044 1548 l 257
 1244 1548 l 257
 1244 1866 l 257
 1044 1866 l 257
EndSplineSet
EndChar

StartChar: uni094B
Encoding: 2379 2379 579
GlifName: uni094B_
Width: 2048
VWidth: 0
Flags: W
LayerCount: 2
Fore
SplineSet
0 1548 m 257
 0 1343 l 257
 2048 1343 l 257
 2048 1548 l 257
 0 1548 l 257
1006 1423 m 257
 1006 5 l 257
 1205 5 l 257
 1205 1423 l 257
 1006 1423 l 257
-500 1999 m 257
 880 1458 l 257
 1058 1548 l 257
 -323 2092 l 257
 -500 1999 l 257
EndSplineSet
EndChar

StartChar: uni094C
Encoding: 2380 2380 582
GlifName: uni094C_
Width: 2048
VWidth: 0
Flags: W
LayerCount: 2
Fore
SplineSet
0 1548 m 257
 0 1343 l 257
 2048 1343 l 257
 2048 1548 l 257
 0 1548 l 257
1099 1419 m 257
 1099 0 l 257
 1298 0 l 257
 1298 1419 l 257
 1099 1419 l 257
-748 1805 m 257
 10 1548 l 257
 383 1548 l 257
 -574 2000 l 257
 -748 1805 l 257
200 2058 m 257
 263 1522 l 257
 485 1548 l 257
 397 2107 l 257
 200 2058 l 257
EndSplineSet
EndChar

StartChar: uni094D
Encoding: 2381 2381 585
GlifName: uni094D_
Width: 2048
VWidth: 0
Flags: W
LayerCount: 2
Fore
SplineSet
-553 -22 m 257
 -553 -218 l 257
 -196 -218 l 257
 -196 -22 l 257
 -553 -22 l 257
-337 -183 m 257
 133 -588 l 257
 277 -425 l 257
 -194 -21 l 257
 -337 -183 l 257
0 1563 m 257
 0 1361 l 257
 2058 1361 l 257
 2058 1563 l 257
 0 1563 l 257
EndSplineSet
EndChar

StartChar: uni094E
Encoding: 2382 2382 586
GlifName: uni094E_
Width: 2048
VWidth: 0
Flags: W
LayerCount: 2
Fore
SplineSet
794 1537 m 257
 794 0 l 257
 994 0 l 257
 994 1537 l 257
 794 1537 l 257
806 1548 m 257
 806 1342 l 257
 1254 1342 l 257
 1254 1548 l 257
 806 1548 l 257
EndSplineSet
EndChar

StartChar: uni094F
Encoding: 2383 2383 587
GlifName: uni094F_
Width: 2048
VWidth: 0
Flags: W
LayerCount: 2
Fore
SplineSet
0 1555 m 257
 0 1354 l 257
 2048 1354 l 257
 2048 1555 l 257
 0 1555 l 257
882 1518 m 257
 882 0 l 257
 1084 0 l 257
 1084 1518 l 257
 882 1518 l 257
-252 2062 m 257
 -252 1823 l 257
 -53 1823 l 257
 -53 2062 l 257
 -252 2062 l 257
-253 1866 m 257
 -253 1666 l 257
 430 1666 l 257
 430 1866 l 257
 -253 1866 l 257
232 1863 m 257
 232 1548 l 257
 430 1548 l 257
 430 1863 l 257
 232 1863 l 257
295 2450 m 257
 114 2104 l 257
 269 2029 l 257
 459 2355 l 257
 295 2450 l 257
256 2283 m 257
 144 2089 l 257
 686 1816 l 257
 809 1987 l 257
 256 2283 l 257
808 1986 m 257
 477 1528 l 257
 756 1528 l 257
 980 1879 l 257
 808 1986 l 257
EndSplineSet
EndChar

StartChar: uni0950
Encoding: 2384 2384 588
GlifName: uni0950
Width: 2048
VWidth: 0
Flags: W
LayerCount: 2
Fore
SplineSet
1825 894 m 257
 1825 510 l 257
 2026 510 l 257
 2026 894 l 257
 1825 894 l 257
50 1548 m 257
 50 1348 l 257
 940 1348 l 257
 940 1548 l 257
 50 1548 l 257
780 1548 m 257
 780 140 l 257
 980 140 l 257
 980 1548 l 257
 780 1548 l 257
134 894 m 257
 134 693 l 257
 1855 693 l 257
 1855 894 l 257
 134 894 l 257
25 201 m 257
 25 0 l 257
 978 0 l 257
 978 201 l 257
 25 201 l 257
1356 1417 m 257
 1356 988 l 257
 1457 988 l 257
 1457 1417 l 257
 1356 1417 l 257
1390 1085 m 257
 1390 985 l 257
 1967 985 l 257
 1967 1085 l 257
 1390 1085 l 257
1886 1420 m 257
 1886 985 l 257
 1986 985 l 257
 1986 1420 l 257
 1886 1420 l 257
1523 1269 m 257
 1523 1188 l 257
 1828 1188 l 257
 1828 1269 l 257
 1523 1269 l 257
EndSplineSet
EndChar

StartChar: uni0951
Encoding: 2385 2385 589
GlifName: uni0951
Width: 2048
VWidth: 0
Flags: W
LayerCount: 2
Fore
SplineSet
925 2128 m 257
 925 1738 l 257
 1123 1738 l 257
 1123 2128 l 257
 925 2128 l 257
EndSplineSet
EndChar

StartChar: uni0952
Encoding: 2386 2386 590
GlifName: uni0952
Width: 2048
VWidth: 0
Flags: W
LayerCount: 2
Fore
SplineSet
610 -134 m 257
 610 -285 l 257
 1438 -285 l 257
 1438 -134 l 257
 610 -134 l 257
EndSplineSet
EndChar

StartChar: uni0953
Encoding: 2387 2387 591
GlifName: uni0953
Width: 2048
VWidth: 0
Flags: W
LayerCount: 2
Fore
SplineSet
808 1786 m 257
 1138 1318 l 257
 1240 1339 l 257
 1022 1841 l 257
 808 1786 l 257
EndSplineSet
EndChar

StartChar: uni0954
Encoding: 2388 2388 592
GlifName: uni0954
Width: 2048
VWidth: 0
Flags: W
LayerCount: 2
Fore
SplineSet
985 1894 m 257
 831 1376 l 257
 972 1376 l 257
 1217 1850 l 257
 985 1894 l 257
EndSplineSet
EndChar

StartChar: uni0955
Encoding: 2389 2389 593
GlifName: uni0955
Width: 2048
VWidth: 0
Flags: W
LayerCount: 2
Fore
SplineSet
-58 1553 m 257
 -58 1354 l 257
 2048 1354 l 257
 2048 1553 l 257
 -58 1553 l 257
-436 2190 m 257
 -436 1849 l 257
 -236 1849 l 257
 -236 2190 l 257
 -436 2190 l 257
-390 2047 m 257
 -390 1848 l 257
 204 1848 l 257
 204 2047 l 257
 -390 2047 l 257
30 2190 m 257
 30 1848 l 257
 228 1848 l 257
 228 2190 l 257
 30 2190 l 257
-528 1787 m 257
 -528 1588 l 257
 300 1588 l 257
 300 1787 l 257
 -528 1787 l 257
EndSplineSet
EndChar

StartChar: uni0956
Encoding: 2390 2390 594
GlifName: uni0956
Width: 2048
VWidth: 0
Flags: W
LayerCount: 2
Fore
SplineSet
0 1553 m 257
 0 1354 l 257
 2048 1354 l 257
 2048 1553 l 257
 0 1553 l 257
-761 -58 m 257
 -761 -391 l 257
 -562 -391 l 257
 -562 -58 l 257
 -761 -58 l 257
-569 -191 m 257
 -569 -390 l 257
 25 -390 l 257
 25 -191 l 257
 -569 -191 l 257
-151 -53 m 257
 -151 -391 l 257
 49 -391 l 257
 49 -53 l 257
 -151 -53 l 257
EndSplineSet
EndChar

StartChar: uni0957
Encoding: 2391 2391 595
GlifName: uni0957
Width: 2048
VWidth: 0
Flags: W
LayerCount: 2
Fore
SplineSet
-7 1553 m 257
 -7 1353 l 257
 2048 1353 l 257
 2048 1553 l 257
 -7 1553 l 257
-618 0 m 257
 -618 -236 l 257
 -548 -236 l 257
 -548 0 l 257
 -618 0 l 257
-572 -175 m 257
 -572 -235 l 257
 22 -235 l 257
 22 -175 l 257
 -572 -175 l 257
-13 0 m 257
 -13 -236 l 257
 46 -236 l 257
 46 0 l 257
 -13 0 l 257
-618 -394 m 257
 -618 -639 l 257
 -548 -639 l 257
 -548 -394 l 257
 -618 -394 l 257
-572 -578 m 257
 -572 -638 l 257
 22 -638 l 257
 22 -578 l 257
 -572 -578 l 257
-13 -394 m 257
 -13 -641 l 257
 46 -641 l 257
 46 -394 l 257
 -13 -394 l 257
EndSplineSet
EndChar

StartChar: uni0958
Encoding: 2392 2392 596
GlifName: uni0958
Width: 2048
VWidth: 0
Flags: W
LayerCount: 2
Fore
SplineSet
10 1548 m 257
 10 1343 l 257
 2048 1343 l 257
 2048 1548 l 257
 10 1548 l 257
1113 1516 m 257
 1113 10 l 257
 1315 10 l 257
 1315 1516 l 257
 1113 1516 l 257
142 1029 m 257
 142 829 l 257
 963 829 l 257
 963 1029 l 257
 142 1029 l 257
142 989 m 257
 142 443 l 257
 306 443 l 257
 308 989 l 257
 142 989 l 257
160 604 m 257
 160 401 l 257
 1167 401 l 257
 1167 604 l 257
 160 604 l 257
1219 947 m 257
 1219 746 l 257
 1955 746 l 257
 1955 947 l 257
 1219 947 l 257
1756 879 m 257
 1756 587 l 257
 1955 587 l 257
 1955 879 l 257
 1756 879 l 257
764 -34 m 257
 764 -281 l 257
 1028 -281 l 257
 1028 -34 l 257
 764 -34 l 257
EndSplineSet
EndChar

StartChar: uni0958_uni0930_uni094D.vatu
Encoding: 65689 -1 597
GlifName: uni0958_uni0930_uni094D_.vatu
Width: 2048
VWidth: 0
Flags: W
LayerCount: 2
Fore
SplineSet
46 364 m 257
 46 117 l 257
 311 117 l 257
 311 364 l 257
 46 364 l 257
52 0 m 257
 476 0 l 257
 1281 215 l 257
 1281 416 l 257
 52 0 l 257
5 1548 m 257
 5 1343 l 257
 2043 1343 l 257
 2043 1548 l 257
 5 1548 l 257
1108 1516 m 257
 1108 10 l 257
 1310 10 l 257
 1310 1516 l 257
 1108 1516 l 257
137 1029 m 257
 137 829 l 257
 1018 829 l 257
 1018 1029 l 257
 137 1029 l 257
137 989 m 257
 137 443 l 257
 303 443 l 257
 303 989 l 257
 137 989 l 257
155 604 m 257
 155 401 l 257
 1162 401 l 257
 1162 604 l 257
 155 604 l 257
1214 947 m 257
 1214 746 l 257
 1950 746 l 257
 1950 947 l 257
 1214 947 l 257
1751 879 m 257
 1751 587 l 257
 1950 587 l 257
 1950 879 l 257
 1751 879 l 257
EndSplineSet
EndChar

StartChar: uni0958_uni094D.half
Encoding: 65690 -1 598
GlifName: uni0958_uni094D_.half
Width: 2048
VWidth: 0
Flags: W
LayerCount: 2
Fore
SplineSet
10 1548 m 257
 10 1343 l 257
 2048 1343 l 257
 2048 1548 l 257
 10 1548 l 257
1113 1516 m 257
 1113 10 l 257
 1315 10 l 257
 1315 1516 l 257
 1113 1516 l 257
142 1029 m 257
 142 829 l 257
 1019 829 l 257
 1019 1029 l 257
 142 1029 l 257
142 989 m 257
 142 443 l 257
 308 443 l 257
 308 989 l 257
 142 989 l 257
160 604 m 257
 160 401 l 257
 1167 401 l 257
 1167 604 l 257
 160 604 l 257
1219 947 m 257
 1219 746 l 257
 2046 746 l 257
 2046 947 l 257
 1219 947 l 257
764 -34 m 257
 764 -281 l 257
 1028 -281 l 257
 1028 -34 l 257
 764 -34 l 257
EndSplineSet
EndChar

StartChar: uni0959
Encoding: 2393 2393 600
GlifName: uni0959
Width: 2048
VWidth: 0
Flags: W
LayerCount: 2
Fore
SplineSet
0 1548 m 257
 0 1349 l 257
 2056 1349 l 257
 2056 1548 l 257
 0 1548 l 257
1724 1514 m 257
 1724 0 l 257
 1924 0 l 257
 1924 1514 l 257
 1724 1514 l 257
1037 979 m 257
 1037 779 l 257
 1465 779 l 257
 1465 979 l 257
 1037 979 l 257
1007 979 m 257
 1007 457 l 257
 1207 457 l 257
 1207 979 l 257
 1007 979 l 257
1007 568 m 257
 1007 368 l 257
 1776 368 l 257
 1776 568 l 257
 1007 568 l 257
322 1441 m 257
 322 120 l 257
 522 120 l 257
 522 1441 l 257
 322 1441 l 257
17 734 m 257
 17 534 l 257
 521 534 l 257
 521 734 l 257
 17 734 l 257
321 270 m 257
 321 70 l 257
 1861 70 l 257
 1861 270 l 257
 321 270 l 257
942 -14 m 257
 942 -261 l 257
 1208 -261 l 257
 1208 -14 l 257
 942 -14 l 257
EndSplineSet
EndChar

StartChar: uni0959_uni0930_uni094D.vatu
Encoding: 65692 -1 601
GlifName: uni0959_uni0930_uni094D_.vatu
Width: 2048
VWidth: 0
Flags: W
LayerCount: 2
Fore
SplineSet
38 332 m 257
 38 85 l 257
 303 85 l 257
 303 332 l 257
 38 332 l 257
52 0 m 257
 476 0 l 257
 1778 215 l 257
 1778 416 l 257
 52 0 l 257
0 1548 m 257
 0 1349 l 257
 2052 1349 l 257
 2052 1548 l 257
 0 1548 l 257
1720 1514 m 257
 1720 0 l 257
 1920 0 l 257
 1920 1514 l 257
 1720 1514 l 257
1033 1279 m 257
 1033 1079 l 257
 1461 1079 l 257
 1461 1279 l 257
 1033 1279 l 257
1003 1279 m 257
 1003 757 l 257
 1203 757 l 257
 1203 1279 l 257
 1003 1279 l 257
1003 868 m 257
 1003 668 l 257
 1772 668 l 257
 1772 868 l 257
 1003 868 l 257
318 1441 m 257
 318 420 l 257
 518 420 l 257
 518 1441 l 257
 318 1441 l 257
13 1034 m 257
 13 834 l 257
 517 834 l 257
 517 1034 l 257
 13 1034 l 257
317 570 m 257
 317 370 l 257
 1857 370 l 257
 1857 570 l 257
 317 570 l 257
EndSplineSet
EndChar

StartChar: uni0959_uni094D.half
Encoding: 65693 -1 602
GlifName: uni0959_uni094D_.half
Width: 2048
VWidth: 0
Flags: W
LayerCount: 2
Fore
SplineSet
0 1548 m 257
 0 1349 l 257
 2056 1349 l 257
 2056 1548 l 257
 0 1548 l 257
1237 979 m 257
 1237 779 l 257
 1665 779 l 257
 1665 979 l 257
 1237 979 l 257
1207 979 m 257
 1207 457 l 257
 1407 457 l 257
 1407 979 l 257
 1207 979 l 257
1207 568 m 257
 1207 368 l 257
 1976 368 l 257
 1976 568 l 257
 1207 568 l 257
522 1441 m 257
 522 120 l 257
 722 120 l 257
 722 1441 l 257
 522 1441 l 257
17 734 m 257
 17 534 l 257
 721 534 l 257
 721 734 l 257
 17 734 l 257
521 270 m 257
 521 70 l 257
 2061 70 l 257
 2061 270 l 257
 521 270 l 257
1142 -14 m 257
 1142 -261 l 257
 1408 -261 l 257
 1408 -14 l 257
 1142 -14 l 257
EndSplineSet
EndChar

StartChar: uni095A
Encoding: 2394 2394 604
GlifName: uni095A_
Width: 2048
VWidth: 0
Flags: W
LayerCount: 2
Fore
SplineSet
0 853 m 257
 199 853 l 257
 199 1044 l 257
 0 1044 l 257
 0 853 l 257
0 882 m 257
 0 683 l 257
 988 683 l 257
 988 882 l 257
 0 882 l 257
789 1548 m 257
 789 812 l 257
 988 812 l 257
 988 1548 l 257
 789 1548 l 257
1946 1548 m 257
 159 1548 l 257
 159 1348 l 257
 1946 1348 l 257
 1946 1548 l 257
1666 1523 m 257
 1666 0 l 257
 1865 0 l 257
 1865 1523 l 257
 1666 1523 l 257
1020 20 m 257
 1020 -227 l 257
 1284 -227 l 257
 1284 20 l 257
 1020 20 l 257
EndSplineSet
EndChar

StartChar: uni095A_uni0930_uni094D.vatu
Encoding: 65695 -1 605
GlifName: uni095A__uni0930_uni094D_.vatu
Width: 2048
VWidth: 0
Flags: W
LayerCount: 2
Fore
SplineSet
538 544 m 257
 538 297 l 257
 803 297 l 257
 803 544 l 257
 538 544 l 257
52 0 m 257
 476 0 l 257
 1778 215 l 257
 1778 416 l 257
 52 0 l 257
51 853 m 257
 250 853 l 257
 250 1044 l 257
 51 1044 l 257
 51 853 l 257
51 882 m 257
 51 683 l 257
 1039 683 l 257
 1039 882 l 257
 51 882 l 257
840 1548 m 257
 840 812 l 257
 1039 812 l 257
 1039 1548 l 257
 840 1548 l 257
1997 1548 m 257
 210 1548 l 257
 210 1348 l 257
 1997 1348 l 257
 1997 1548 l 257
1717 1523 m 257
 1717 0 l 257
 1916 0 l 257
 1916 1523 l 257
 1717 1523 l 257
EndSplineSet
EndChar

StartChar: uni095A_uni094D.half
Encoding: 65696 -1 606
GlifName: uni095A__uni094D_.half
Width: 2048
VWidth: 0
Flags: W
LayerCount: 2
Fore
SplineSet
0 853 m 257
 199 853 l 257
 199 1044 l 257
 0 1044 l 257
 0 853 l 257
0 882 m 257
 0 683 l 257
 988 683 l 257
 988 882 l 257
 0 882 l 257
789 1548 m 257
 789 812 l 257
 988 812 l 257
 988 1548 l 257
 789 1548 l 257
1946 1548 m 257
 159 1548 l 257
 159 1348 l 257
 1946 1348 l 257
 1946 1548 l 257
1020 20 m 257
 1020 -227 l 257
 1284 -227 l 257
 1284 20 l 257
 1020 20 l 257
EndSplineSet
EndChar

StartChar: uni095B
Encoding: 2395 2395 608
GlifName: uni095B_
Width: 2048
VWidth: 0
Flags: W
LayerCount: 2
Fore
SplineSet
0 1548 m 257
 0 1350 l 257
 2082 1350 l 257
 2082 1548 l 257
 0 1548 l 257
1736 1548 m 257
 1736 -12 l 257
 1935 -12 l 257
 1935 1548 l 257
 1736 1548 l 257
943 860 m 257
 943 663 l 257
 1869 663 l 257
 1869 860 l 257
 943 860 l 257
897 860 m 257
 897 413 l 257
 1097 413 l 257
 1097 860 l 257
 897 860 l 257
75 567 m 257
 75 367 l 257
 1097 367 l 257
 1097 567 l 257
 75 567 l 257
75 855 m 257
 75 509 l 257
 275 509 l 257
 275 855 l 257
 75 855 l 257
1016 10 m 257
 1016 -237 l 257
 1280 -237 l 257
 1280 10 l 257
 1016 10 l 257
EndSplineSet
EndChar

StartChar: uni095B_uni0930_uni094D.vatu
Encoding: 65698 -1 609
GlifName: uni095B__uni0930_uni094D_.vatu
Width: 2048
VWidth: 0
Flags: W
LayerCount: 2
Fore
SplineSet
30 336 m 257
 30 89 l 257
 295 89 l 257
 295 336 l 257
 30 336 l 257
52 0 m 257
 476 0 l 257
 1778 215 l 257
 1778 416 l 257
 52 0 l 257
-17 1548 m 257
 -17 1350 l 257
 2065 1350 l 257
 2065 1548 l 257
 -17 1548 l 257
1719 1548 m 257
 1719 -12 l 257
 1918 -12 l 257
 1918 1548 l 257
 1719 1548 l 257
926 860 m 257
 926 663 l 257
 1852 663 l 257
 1852 860 l 257
 926 860 l 257
880 860 m 257
 880 413 l 257
 1080 413 l 257
 1080 860 l 257
 880 860 l 257
58 567 m 257
 58 367 l 257
 1080 367 l 257
 1080 567 l 257
 58 567 l 257
58 855 m 257
 58 509 l 257
 258 509 l 257
 258 855 l 257
 58 855 l 257
EndSplineSet
EndChar

StartChar: uni095B_uni094D.half
Encoding: 65699 -1 610
GlifName: uni095B__uni094D_.half
Width: 2048
VWidth: 0
Flags: W
LayerCount: 2
Fore
SplineSet
0 1548 m 257
 0 1350 l 257
 2082 1350 l 257
 2082 1548 l 257
 0 1548 l 257
943 860 m 257
 943 663 l 257
 2069 663 l 257
 2069 860 l 257
 943 860 l 257
897 860 m 257
 897 413 l 257
 1097 413 l 257
 1097 860 l 257
 897 860 l 257
75 567 m 257
 75 367 l 257
 1097 367 l 257
 1097 567 l 257
 75 567 l 257
75 855 m 257
 75 509 l 257
 275 509 l 257
 275 855 l 257
 75 855 l 257
1016 10 m 257
 1016 -237 l 257
 1280 -237 l 257
 1280 10 l 257
 1016 10 l 257
EndSplineSet
EndChar

StartChar: uni095C
Encoding: 2396 2396 612
GlifName: uni095C_
Width: 2048
VWidth: 0
Flags: W
LayerCount: 2
Fore
SplineSet
0 1548 m 257
 0 1348 l 257
 2052 1348 l 257
 2052 1548 l 257
 0 1548 l 257
384 1049 m 257
 384 638 l 257
 583 638 l 257
 583 1049 l 257
 384 1049 l 257
384 746 m 257
 384 538 l 257
 1581 538 l 257
 1581 746 l 257
 384 746 l 257
1382 703 m 257
 1383 5 l 257
 1582 5 l 257
 1581 703 l 257
 1382 703 l 257
62 200 m 257
 62 0 l 257
 1582 0 l 257
 1580 200 l 257
 62 200 l 257
62 331 m 257
 62 5 l 257
 262 5 l 257
 262 331 l 257
 62 331 l 257
384 1134 m 257
 384 926 l 257
 1445 926 l 257
 1445 1134 l 257
 384 1134 l 257
1246 1391 m 257
 1246 980 l 257
 1445 980 l 257
 1445 1391 l 257
 1246 1391 l 257
890 -54 m 257
 890 -301 l 257
 1156 -301 l 257
 1156 -54 l 257
 890 -54 l 257
EndSplineSet
EndChar

StartChar: uni095C_uni0930_uni094D.vatu
Encoding: 65701 -1 613
GlifName: uni095C__uni0930_uni094D_.vatu
Width: 2048
VWidth: 0
Flags: W
LayerCount: 2
Fore
SplineSet
282 1 m 257
 282 -246 l 257
 548 -246 l 257
 548 1 l 257
 282 1 l 257
929 63 m 257
 1153 -222 l 257
 1435 -222 l 257
 1051 190 l 257
 929 63 l 257
1051 190 m 257
 644 -228 l 257
 865 -228 l 257
 1166 67 l 257
 1051 190 l 257
0 1548 m 257
 0 1348 l 257
 2052 1348 l 257
 2052 1548 l 257
 0 1548 l 257
384 1106 m 257
 384 729 l 257
 583 729 l 257
 583 1106 l 257
 384 1106 l 257
384 837 m 257
 384 629 l 257
 1581 629 l 257
 1581 837 l 257
 384 837 l 257
1382 794 m 257
 1383 164 l 257
 1582 164 l 257
 1581 794 l 257
 1382 794 l 257
62 359 m 257
 62 159 l 257
 1582 159 l 257
 1580 359 l 257
 62 359 l 257
62 490 m 257
 62 164 l 257
 262 164 l 257
 262 490 l 257
 62 490 l 257
384 1191 m 257
 384 983 l 257
 1445 983 l 257
 1445 1191 l 257
 384 1191 l 257
1246 1391 m 257
 1246 1037 l 257
 1445 1037 l 257
 1445 1391 l 257
 1246 1391 l 257
EndSplineSet
EndChar

StartChar: uni095D
Encoding: 2397 2397 615
GlifName: uni095D_
Width: 2048
VWidth: 0
Flags: W
LayerCount: 2
Fore
SplineSet
0 1548 m 257
 0 1348 l 257
 2038 1348 l 257
 2038 1548 l 257
 0 1548 l 257
1583 1528 m 257
 1583 988 l 257
 1783 988 l 257
 1783 1528 l 257
 1583 1528 l 257
1783 1023 m 257
 110 1023 l 257
 110 822 l 257
 1783 822 l 257
 1783 1023 l 257
89 1023 m 257
 89 5 l 257
 289 5 l 257
 289 1023 l 257
 89 1023 l 257
89 201 m 257
 89 0 l 257
 1826 0 l 257
 1826 201 l 257
 89 201 l 257
1627 544 m 257
 1627 0 l 257
 1828 0 l 257
 1828 544 l 257
 1627 544 l 257
1574 547 m 257
 1574 347 l 257
 1826 347 l 257
 1826 547 l 257
 1574 547 l 257
1054 -106 m 257
 1054 -353 l 257
 1318 -353 l 257
 1318 -106 l 257
 1054 -106 l 257
EndSplineSet
EndChar

StartChar: uni095D_uni0930_uni094D.vatu
Encoding: 65703 -1 616
GlifName: uni095D__uni0930_uni094D_.vatu
Width: 2048
VWidth: 0
Flags: W
LayerCount: 2
Fore
SplineSet
328 247 m 257
 328 0 l 257
 593 0 l 257
 593 247 l 257
 328 247 l 257
934 90 m 257
 1158 -290 l 257
 1440 -290 l 257
 1056 259 l 257
 934 90 l 257
1056 259 m 257
 649 -299 l 257
 870 -299 l 257
 1171 94 l 257
 1056 259 l 257
10 1548 m 257
 10 1348 l 257
 2048 1348 l 257
 2048 1548 l 257
 10 1548 l 257
1593 1528 m 257
 1593 1088 l 257
 1793 1088 l 257
 1793 1528 l 257
 1593 1528 l 257
1793 1123 m 257
 120 1123 l 257
 120 922 l 257
 1793 922 l 257
 1793 1123 l 257
99 1124 m 257
 99 305 l 257
 299 305 l 257
 299 1124 l 257
 99 1124 l 257
99 501 m 257
 99 300 l 257
 1836 300 l 257
 1836 501 l 257
 99 501 l 257
1637 844 m 257
 1637 298 l 257
 1838 298 l 257
 1838 844 l 257
 1637 844 l 257
1584 847 m 257
 1584 647 l 257
 1836 647 l 257
 1836 847 l 257
 1584 847 l 257
EndSplineSet
EndChar

StartChar: uni095E
Encoding: 2398 2398 618
GlifName: uni095E_
Width: 2048
VWidth: 0
Flags: W
LayerCount: 2
Fore
SplineSet
0 1548 m 257
 0 1349 l 257
 2078 1349 l 257
 2078 1548 l 257
 0 1548 l 257
1393 1537 m 257
 1393 0 l 257
 1593 0 l 257
 1593 1537 l 257
 1393 1537 l 257
124 1548 m 257
 124 837 l 257
 325 837 l 257
 325 1548 l 257
 124 1548 l 257
124 1023 m 257
 124 824 l 257
 2018 824 l 257
 2018 1023 l 257
 124 1023 l 257
1828 1023 m 257
 1828 686 l 257
 2027 686 l 257
 2027 1023 l 257
 1828 1023 l 257
946 -58 m 257
 946 -305 l 257
 1210 -305 l 257
 1210 -58 l 257
 946 -58 l 257
EndSplineSet
EndChar

StartChar: uni095E_uni0930_uni094D.vatu
Encoding: 65705 -1 619
GlifName: uni095E__uni0930_uni094D_.vatu
Width: 2048
VWidth: 0
Flags: W
LayerCount: 2
Fore
SplineSet
514 665 m 257
 514 418 l 257
 779 418 l 257
 779 665 l 257
 514 665 l 257
52 0 m 257
 476 0 l 257
 1578 415 l 257
 1578 616 l 257
 52 0 l 257
-15 1548 m 257
 -15 1349 l 257
 2063 1349 l 257
 2063 1548 l 257
 -15 1548 l 257
1378 1537 m 257
 1378 0 l 257
 1578 0 l 257
 1578 1537 l 257
 1378 1537 l 257
109 1548 m 257
 109 837 l 257
 310 837 l 257
 310 1548 l 257
 109 1548 l 257
109 1023 m 257
 109 824 l 257
 2003 824 l 257
 2003 1023 l 257
 109 1023 l 257
1813 1023 m 257
 1813 686 l 257
 2012 686 l 257
 2012 1023 l 257
 1813 1023 l 257
EndSplineSet
EndChar

